/* XPM */
static char * e_meeting_time_sel_no_mail_xpm[] = {
"19 16 104 2",
"  	c None",
". 	c #000000",
"+ 	c #7B7B78",
"@ 	c #C7C7C3",
"# 	c #F1F0EB",
"$ 	c #BFBFBC",
"% 	c #5F5E5E",
"& 	c #E3E3DF",
"* 	c #F3F3EF",
"= 	c #F2F2EE",
"- 	c #F1F1EC",
"; 	c #F0EFEB",
"> 	c #D2D2CD",
", 	c #969592",
"' 	c #616060",
") 	c #B5B5B4",
"! 	c #F8F8F6",
"~ 	c #F7F7F5",
"{ 	c #F6F6F3",
"] 	c #F5F5F2",
"^ 	c #F4F4F0",
"/ 	c #F2F1ED",
"( 	c #F1F0EC",
"_ 	c #F0EFEA",
": 	c #EFEEE9",
"< 	c #4F4F4D",
"[ 	c #BDBCB8",
"} 	c #A7A6A3",
"| 	c #C6C6C4",
"1 	c #7C7C7B",
"2 	c #525251",
"3 	c #DBDBD9",
"4 	c #F5F4F1",
"5 	c #F4F3F0",
"6 	c #F3F2EE",
"7 	c #999894",
"8 	c #62625F",
"9 	c #BCBCB6",
"0 	c #EBE9E3",
"a 	c #838381",
"b 	c #D7D6D4",
"c 	c #A8A8A6",
"d 	c #515150",
"e 	c #7E7D7C",
"f 	c #DAD9D5",
"g 	c #D16069",
"h 	c #EEEDE7",
"i 	c #4F4E4C",
"j 	c #BCBBB6",
"k 	c #F6F5F2",
"l 	c #F4F3EF",
"m 	c #B5B4B1",
"n 	c #9B9A97",
"o 	c #646361",
"p 	c #92918E",
"q 	c #9F3C44",
"r 	c #797976",
"s 	c #B5444E",
"t 	c #B4B3AF",
"u 	c #D0D0CD",
"v 	c #F2F2ED",
"w 	c #BFBEBA",
"x 	c #BEBDB9",
"y 	c #BB565F",
"z 	c #812F36",
"A 	c #E6E4DC",
"B 	c #A9A9A6",
"C 	c #626260",
"D 	c #EDECE6",
"E 	c #ECEBE4",
"F 	c #BB555D",
"G 	c #90353D",
"H 	c #777671",
"I 	c #93918C",
"J 	c #EFEEE8",
"K 	c #BEBDB8",
"L 	c #989793",
"M 	c #ECEAE4",
"N 	c #E6E4DB",
"O 	c #E4E3DA",
"P 	c #75746F",
"Q 	c #91908A",
"R 	c #EEECE7",
"S 	c #62615F",
"T 	c #EBEAE4",
"U 	c #EAE9E2",
"V 	c #BD5A62",
"W 	c #E4E2DA",
"X 	c #CCCBC4",
"Y 	c #A3A29D",
"Z 	c #B6B5B2",
"` 	c #BCBCB7",
" .	c #979691",
"..	c #BC5760",
"+.	c #A13C45",
"@.	c #ECEBE5",
"#.	c #61615E",
"$.	c #C0636B",
"%.	c #A83F48",
"&.	c #797875",
"*.	c #969590",
"=.	c #CFCEC8",
"-.	c #585754",
";.	c #7B7A76",
"                      . . . .         ",
"            . . . . . + @ # $ .       ",
"  . . . . . % $ & * = - ; > , .       ",
". ' ) ! ~ { ] ^ * / ( _ : < [ } .     ",
". | 1 2 3 4 5 6 / # _ : 7 8 9 0 .     ",
". a b c d e f / # g g h i j g g .     ",
"  . k 4 l m n o p g q g r g s g t .   ",
"  . u * v ( ; w x g s g g y z g A .   ",
"  . B / ( _ : C D E g s F G g H I .   ",
"    . # _ J K L M 0 g s s g N O P Q . ",
"    . ; J R S T U g V s s g W X Y . . ",
"    . Z D `  .U g ..G g g +.g . .     ",
"      . @.#.U g $.G g . g %.g         ",
"      . &.*.=.g g g .     g g         ",
"      . -.;.. .                       ",
"        . .                           "};
