/* XPM */
static char * envelope_deleted_xpm[] = {
"16 16 35 1",
" 	c None",
".	c #FF0000",
"+	c #000000",
"@	c #837D71",
"#	c #FFFFFF",
"$	c #4E4B42",
"%	c #767165",
"&	c #FFFEFE",
"*	c #FFF4DB",
"=	c #F4E9D1",
"-	c #625D54",
";	c #D0C7B2",
">	c #767166",
",	c #FFFDFA",
"'	c #666257",
")	c #F2E7CF",
"!	c #C8BFAB",
"~	c #FFFEFC",
"{	c #F6EBD3",
"]	c #EEE3CC",
"^	c #918A7C",
"/	c #E0D6C0",
"(	c #C7BEAA",
"_	c #8A8476",
":	c #F9EED5",
"<	c #F1E6CE",
"[	c #F7ECD3",
"}	c #EFE4CD",
"|	c #D1C7B2",
"1	c #C1B8A5",
"2	c #C2B9A6",
"3	c #C0B7A4",
"4	c #C3BAA7",
"5	c #C4BBA8",
"6	c #CAC1AD",
"                ",
"                ",
"              . ",
" ...       ...  ",
"   ...    ..    ",
"   ++..++..+++  ",
"  +@###...###$+ ",
"  +#%&*...*=-;+ ",
"  +#*>..,..')!+ ",
"  +#*..~*{.*]!+ ",
"  +#..^'#'../(+ ",
"  +#._**'{{..(+ ",
"  +..*]:<[}|..+ ",
"  +.122234456.+ ",
"   +++++++++++  ",
"                "};
