/* XPM */
static char * envelope_closed_xpm[] = {
"16 16 46 1",
" 	c None",
".	c #FFFFFF",
"+	c #000000",
"@	c #837D71",
"#	c #4E4B42",
"$	c #767165",
"%	c #FFFEFE",
"&	c #FFF4DB",
"*	c #FFFEFD",
"=	c #F4E9D1",
"-	c #625D54",
";	c #D0C7B2",
">	c #767166",
",	c #FFFDFA",
"'	c #F2E7CF",
")	c #666257",
"!	c #C8BFAB",
"~	c #736D63",
"{	c #FFFEFC",
"]	c #F6EBD3",
"^	c #EEE3CC",
"/	c #FAEFD6",
"(	c #918A7C",
"_	c #7E786B",
":	c #E0D6C0",
"<	c #C7BEAA",
"[	c #FDF2D9",
"}	c #8A8476",
"|	c #746F63",
"1	c #CEC4B0",
"2	c #8C8678",
"3	c #F9EED5",
"4	c #F1E6CE",
"5	c #F7ECD3",
"6	c #EFE4CD",
"7	c #D1C7B2",
"8	c #555149",
"9	c #CDC4B0",
"0	c #666258",
"a	c #C1B8A5",
"b	c #C2B9A6",
"c	c #C0B7A4",
"d	c #C3BAA7",
"e	c #C4BBA8",
"f	c #CAC1AD",
"g	c #4E4B43",
"                ",
" ...............",
" ...............",
" ...............",
" ...............",
" ..+++++++++++..",
" .+@.........#+.",
" .+.$%&.&*&=-;+.",
" .+.&>%&,&')'!+.",
" .+.&&~{&])&^!+.",
" .+.&/().)_=:<+.",
" .+.[}&&)]]|1<+.",
" .+.2&^3456789+.",
" .+0abbbcddefg+.",
" ..+++++++++++..",
" ..............."};
