/* XPM */
static char * envelope_opened_xpm[] = {
"16 16 55 1",
" 	c None",
".	c #FFFFFF",
"+	c #000000",
"@	c #F4EDDD",
"#	c #F1EBDB",
"$	c #F1EAD8",
"%	c #EAE3CB",
"&	c #F4EAD5",
"*	c #F1E6CF",
"=	c #DDD4BE",
"-	c #ECE3CD",
";	c #D3CAB6",
">	c #C1C1C1",
",	c #BDBDBD",
"'	c #BFBFBF",
")	c #12110F",
"!	c #514D45",
"~	c #767165",
"{	c #D0C7B2",
"]	c #FFF4DB",
"^	c #625D54",
"/	c #565249",
"(	c #F2E7CF",
"_	c #C8BFAB",
":	c #3B3732",
"<	c #837D71",
"[	c #807A6D",
"}	c #45423B",
"|	c #EEE3CC",
"1	c #FBF0D7",
"2	c #918A7C",
"3	c #7E786B",
"4	c #F4E9D1",
"5	c #E0D6C0",
"6	c #C7BEAA",
"7	c #FDF2D9",
"8	c #6A665B",
"9	c #F6EBD3",
"0	c #656157",
"a	c #CEC4B0",
"b	c #6D675D",
"c	c #F9EED5",
"d	c #F1E6CE",
"e	c #F7ECD3",
"f	c #EFE4CD",
"g	c #D1C7B2",
"h	c #CDC4B0",
"i	c #080707",
"j	c #C1B8A5",
"k	c #C2B9A6",
"l	c #C0B7A4",
"m	c #C3BAA7",
"n	c #C4BBA8",
"o	c #CAC1AD",
"p	c #1E1D1A",
"                ",
" ...............",
" .....+++++.....",
" ....+@#$$%+....",
" ...+&*****=+...",
" ..+-*******;+..",
" .++>,,,,,,,')+.",
" .+.!.......~{+.",
" .+.]^...../(_+.",
" .+.]]:<<[}]|_+.",
" .+.]12]]]3456+.",
" .+.78]]]990a6+.",
" .+.b]|cdefg0h+.",
" .+ijkkklmmnop+.",
" ..+++++++++++..",
" ..............."};
