/* XPM */
static char * message_status_xpm[] = {
"16 16 3 1",
" 	c None",
".	c #09B0F2",
"+	c #33A8D6",
"                ",
"       ..       ",
"       ..       ",
"      ++++      ",
"      ++++      ",
"      ++++      ",
"  +++++++++++   ",
"..+++++..++++.. ",
"..+++++..++++.. ",
"  +++++++++++   ",
"      ++++      ",
"      ++++      ",
"      ++++      ",
"       ..       ",
"       ..       ",
"                "};
