<?xml version="1.0" encoding="UTF-8" standalone="no"?>
<!-- Created with Inkscape (http://www.inkscape.org/) -->
<svg
   xmlns:dc="http://purl.org/dc/elements/1.1/"
   xmlns:cc="http://web.resource.org/cc/"
   xmlns:rdf="http://www.w3.org/1999/02/22-rdf-syntax-ns#"
   xmlns:svg="http://www.w3.org/2000/svg"
   xmlns="http://www.w3.org/2000/svg"
   xmlns:xlink="http://www.w3.org/1999/xlink"
   xmlns:sodipodi="http://sodipodi.sourceforge.net/DTD/sodipodi-0.dtd"
   xmlns:inkscape="http://www.inkscape.org/namespaces/inkscape"
   width="22"
   height="22"
   id="svg2"
   sodipodi:version="0.32"
   inkscape:version="0.45"
   version="1.0"
   sodipodi:docbase="/home/dobey/Projects/gnome-icon-theme/22x22/actions"
   sodipodi:docname="mail-send.svg"
   inkscape:output_extension="org.inkscape.output.svg.inkscape">
  <defs
     id="defs4">
    <linearGradient
       id="linearGradient3702">
      <stop
         style="stop-color:black;stop-opacity:0;"
         offset="0"
         id="stop3704" />
      <stop
         id="stop3710"
         offset="0.5"
         style="stop-color:black;stop-opacity:1;" />
      <stop
         style="stop-color:black;stop-opacity:0;"
         offset="1"
         id="stop3706" />
    </linearGradient>
    <linearGradient
       inkscape:collect="always"
       id="linearGradient3688">
      <stop
         style="stop-color:black;stop-opacity:1;"
         offset="0"
         id="stop3690" />
      <stop
         style="stop-color:black;stop-opacity:0;"
         offset="1"
         id="stop3692" />
    </linearGradient>
    <linearGradient
       inkscape:collect="always"
       id="linearGradient6394">
      <stop
         style="stop-color:#729fcf;stop-opacity:1"
         offset="0"
         id="stop6396" />
      <stop
         style="stop-color:#ffffff;stop-opacity:1"
         offset="1"
         id="stop6398" />
    </linearGradient>
    <linearGradient
       inkscape:collect="always"
       id="linearGradient6754">
      <stop
         style="stop-color:#729fcf;stop-opacity:1"
         offset="0"
         id="stop6756" />
      <stop
         style="stop-color:#729fcf;stop-opacity:0"
         offset="1"
         id="stop6758" />
    </linearGradient>
    <linearGradient
       inkscape:collect="always"
       id="linearGradient6794">
      <stop
         style="stop-color:#ffffff;stop-opacity:1;"
         offset="0"
         id="stop6796" />
      <stop
         style="stop-color:#ffffff;stop-opacity:0;"
         offset="1"
         id="stop6798" />
    </linearGradient>
    <radialGradient
       inkscape:collect="always"
       xlink:href="#linearGradient3688"
       id="radialGradient9116"
       gradientUnits="userSpaceOnUse"
       gradientTransform="matrix(2.003784,0,0,1.4,27.98813,-17.4)"
       cx="4.9929786"
       cy="43.5"
       fx="4.9929786"
       fy="43.5"
       r="2.5" />
    <radialGradient
       inkscape:collect="always"
       xlink:href="#linearGradient3688"
       id="radialGradient9118"
       gradientUnits="userSpaceOnUse"
       gradientTransform="matrix(2.003784,0,0,1.4,-20.01187,-104.4)"
       cx="4.9929786"
       cy="43.5"
       fx="4.9929786"
       fy="43.5"
       r="2.5" />
    <linearGradient
       inkscape:collect="always"
       xlink:href="#linearGradient3702"
       id="linearGradient9120"
       gradientUnits="userSpaceOnUse"
       x1="25.058096"
       y1="47.027729"
       x2="25.058096"
       y2="39.999443" />
    <linearGradient
       inkscape:collect="always"
       xlink:href="#linearGradient6394"
       id="linearGradient9122"
       gradientUnits="userSpaceOnUse"
       gradientTransform="translate(80.00001,-3.89932e-2)"
       x1="-21.478369"
       y1="-0.80551612"
       x2="-21.478369"
       y2="18.005089" />
    <linearGradient
       inkscape:collect="always"
       xlink:href="#linearGradient6754"
       id="linearGradient9124"
       gradientUnits="userSpaceOnUse"
       gradientTransform="matrix(1,0,0,2,80.00001,-17.038994)"
       x1="-21.03125"
       y1="16.187811"
       x2="-21.03125"
       y2="14.13769" />
    <radialGradient
       inkscape:collect="always"
       xlink:href="#linearGradient6794"
       id="radialGradient9126"
       gradientUnits="userSpaceOnUse"
       gradientTransform="matrix(1.4386863,0,0,1.1876132,7.181008,-2.926052)"
       cx="-16.48411"
       cy="16.06098"
       fx="-16.48411"
       fy="16.06098"
       r="9" />
  </defs>
  <sodipodi:namedview
     id="base"
     pagecolor="#ffffff"
     bordercolor="#666666"
     borderopacity="1.0"
     inkscape:pageopacity="0.0"
     inkscape:pageshadow="2"
     inkscape:zoom="1"
     inkscape:cx="44.397182"
     inkscape:cy="17.111643"
     inkscape:document-units="px"
     inkscape:current-layer="layer1"
     width="22px"
     height="22px"
     inkscape:showpageshadow="false"
     gridspacingx="0.5px"
     gridspacingy="0.5px"
     gridempspacing="2"
     showgrid="false"
     inkscape:window-width="1003"
     inkscape:window-height="622"
     inkscape:window-x="10"
     inkscape:window-y="65"
     showborder="false"
     borderlayer="true" />
  <metadata
     id="metadata7">
    <rdf:RDF>
      <cc:Work
         rdf:about="">
        <dc:format>image/svg+xml</dc:format>
        <dc:type
           rdf:resource="http://purl.org/dc/dcmitype/StillImage" />
        <cc:license
           rdf:resource="http://creativecommons.org/licenses/GPL/2.0/" />
        <dc:creator>
          <cc:Agent>
            <dc:title>Lapo Calamandrei</dc:title>
          </cc:Agent>
        </dc:creator>
        <dc:title>Stamp</dc:title>
        <dc:contributor>
          <cc:Agent>
            <dc:title>Hylke Bons, Andreas Nilsson</dc:title>
          </cc:Agent>
        </dc:contributor>
        <dc:subject>
          <rdf:Bag>
            <rdf:li>mail</rdf:li>
            <rdf:li>send</rdf:li>
            <rdf:li>stamp</rdf:li>
          </rdf:Bag>
        </dc:subject>
      </cc:Work>
      <cc:License
         rdf:about="http://creativecommons.org/licenses/GPL/2.0/">
        <cc:permits
           rdf:resource="http://web.resource.org/cc/Reproduction" />
        <cc:permits
           rdf:resource="http://web.resource.org/cc/Distribution" />
        <cc:requires
           rdf:resource="http://web.resource.org/cc/Notice" />
        <cc:permits
           rdf:resource="http://web.resource.org/cc/DerivativeWorks" />
        <cc:requires
           rdf:resource="http://web.resource.org/cc/ShareAlike" />
        <cc:requires
           rdf:resource="http://web.resource.org/cc/SourceCode" />
      </cc:License>
    </rdf:RDF>
  </metadata>
  <g
     inkscape:label="Livello 1"
     inkscape:groupmode="layer"
     id="layer1">
    <g
       id="g8851"
       transform="translate(-50,0)">
      <g
         transform="matrix(0.6052629,0,0,0.7142856,46.473694,-11.571422)"
         style="opacity:0.3"
         id="g6378">
        <rect
           style="opacity:1;fill:url(#radialGradient9116);fill-opacity:1;stroke:none;stroke-width:1;stroke-linecap:round;stroke-linejoin:miter;stroke-miterlimit:4;stroke-dasharray:none;stroke-opacity:1"
           id="rect6380"
           width="5"
           height="7"
           x="38"
           y="40" />
        <rect
           style="opacity:1;fill:url(#radialGradient9118);fill-opacity:1;stroke:none;stroke-width:1;stroke-linecap:round;stroke-linejoin:miter;stroke-miterlimit:4;stroke-dasharray:none;stroke-opacity:1"
           id="rect6382"
           width="5"
           height="7"
           x="-10"
           y="-47"
           transform="scale(-1,-1)" />
        <rect
           style="opacity:1;fill:url(#linearGradient9120);fill-opacity:1;stroke:none;stroke-width:1;stroke-linecap:round;stroke-linejoin:miter;stroke-miterlimit:4;stroke-dasharray:none;stroke-opacity:1"
           id="rect6384"
           width="28"
           height="7.0000005"
           x="10"
           y="40" />
      </g>
      <path
         id="rect6352"
         d="M 51.500008,1.4610068 L 51.500008,4.4610068 L 52.062508,4.4610068 C 52.307344,4.4610068 52.500008,4.6536708 52.500008,4.8985068 L 52.500008,6.0235068 C 52.500008,6.2683428 52.307344,6.4610068 52.062508,6.4610068 L 51.500008,6.4610068 L 51.500008,8.4610068 L 52.062508,8.4610068 C 52.307344,8.4610068 52.500008,8.6536708 52.500008,8.8985068 L 52.500008,10.023507 C 52.500008,10.268343 52.307344,10.461007 52.062508,10.461007 L 51.500008,10.461007 L 51.500008,12.461007 L 52.062508,12.461007 C 52.307344,12.461007 52.500008,12.653671 52.500008,12.898507 L 52.500008,14.023506 C 52.500008,14.268342 52.307344,14.461006 52.062508,14.461006 L 51.500008,14.461006 L 51.500008,16.461006 L 52.062508,16.461006 C 52.307344,16.461006 52.500008,16.65367 52.500008,16.898506 L 52.500008,18.023506 C 52.500008,18.268342 52.307344,18.461006 52.062508,18.461006 L 51.500008,18.461006 L 51.500008,20.461006 L 53.500008,20.461006 L 53.500008,19.898506 C 53.500008,19.65367 53.692672,19.461006 53.937508,19.461006 L 55.062508,19.461006 C 55.307344,19.461006 55.500008,19.65367 55.500008,19.898506 L 55.500008,20.461006 L 57.500008,20.461006 L 57.500008,19.898506 C 57.500008,19.65367 57.692672,19.461006 57.937508,19.461006 L 59.062508,19.461006 C 59.307344,19.461006 59.500008,19.65367 59.500008,19.898506 L 59.500008,20.461006 L 61.500008,20.461006 L 61.500008,19.898506 C 61.500008,19.65367 61.692672,19.461006 61.937508,19.461006 L 63.062508,19.461006 C 63.307344,19.461006 63.500008,19.65367 63.500008,19.898506 L 63.500008,20.461006 L 65.500008,20.461006 L 65.500008,19.898506 C 65.500008,19.65367 65.692672,19.461006 65.937508,19.461006 L 67.062508,19.461006 C 67.307344,19.461006 67.500008,19.65367 67.500008,19.898506 L 67.500008,20.461006 L 70.500008,20.461006 L 70.500008,17.461006 L 69.937508,17.461006 C 69.692672,17.461006 69.500008,17.268342 69.500008,17.023506 L 69.500008,15.898506 C 69.500008,15.65367 69.692672,15.461006 69.937508,15.461006 L 70.500008,15.461006 L 70.500008,13.461006 L 69.937508,13.461006 C 69.692672,13.461006 69.500008,13.268343 69.500008,13.023507 L 69.500008,11.898507 C 69.500008,11.653671 69.692672,11.461007 69.937508,11.461007 L 70.500008,11.461007 L 70.500008,9.4610068 L 69.937508,9.4610068 C 69.692672,9.4610068 69.500008,9.2683428 69.500008,9.0235068 L 69.500008,7.8985068 C 69.500008,7.6536708 69.692672,7.4610068 69.937508,7.4610068 L 70.500008,7.4610068 L 70.500008,5.4610068 L 69.937508,5.4610068 C 69.692672,5.4610068 69.500008,5.2683428 69.500008,5.0235068 L 69.500008,3.8985068 C 69.500008,3.6536708 69.692672,3.4610068 69.937508,3.4610068 L 70.500008,3.4610068 L 70.500008,1.4610068 L 68.500008,1.4610068 L 68.500008,2.0235068 C 68.500008,2.2683426 68.307344,2.4610068 68.062508,2.4610068 L 66.937508,2.4610068 C 66.692672,2.4610068 66.500008,2.2683425 66.500008,2.0235068 L 66.500008,1.4610068 L 64.500008,1.4610068 L 64.500008,2.0235068 C 64.500008,2.2683426 64.307344,2.4610068 64.062508,2.4610068 L 62.937508,2.4610068 C 62.692672,2.4610068 62.500008,2.2683425 62.500008,2.0235068 L 62.500008,1.4610068 L 60.500008,1.4610068 L 60.500008,2.0235068 C 60.500008,2.2683426 60.307344,2.4610068 60.062508,2.4610068 L 58.937508,2.4610068 C 58.692672,2.4610068 58.500008,2.2683425 58.500008,2.0235068 L 58.500008,1.4610068 L 56.500008,1.4610068 L 56.500008,2.0235068 C 56.500008,2.2683426 56.307344,2.4610068 56.062508,2.4610068 L 54.937508,2.4610068 C 54.692672,2.4610068 54.500008,2.2683425 54.500008,2.0235068 L 54.500008,1.4610068 L 51.500008,1.4610068 z "
         style="fill:#eeeeec;fill-opacity:1;stroke:#979894;stroke-width:0.99999994;stroke-linecap:round;stroke-linejoin:miter;stroke-miterlimit:4;stroke-dasharray:none;stroke-dashoffset:0.7;stroke-opacity:1" />
      <rect
         ry="0.46875"
         rx="0.46875"
         y="4.4922566"
         x="54.500008"
         height="12.96875"
         width="13.000002"
         id="rect6372"
         style="fill:url(#linearGradient9122);fill-opacity:1;stroke:#729fcf;stroke-width:1;stroke-linecap:round;stroke-linejoin:miter;stroke-miterlimit:4;stroke-dasharray:none;stroke-dashoffset:0.7;stroke-opacity:1" />
      <path
         id="path6762"
         d="M 65.000008,7.9610068 C 63.344008,7.9610068 62.000008,9.3050068 62.000008,10.961007 C 62.000008,11.741519 62.292183,12.458417 62.781258,12.992257 L 67.000008,12.992257 L 67.000008,8.7422568 C 66.468179,8.2626508 65.771996,7.9610068 65.000008,7.9610068 z "
         style="fill:#ffffff;fill-opacity:1;stroke:none;stroke-width:1;stroke-linecap:round;stroke-linejoin:miter;stroke-miterlimit:4;stroke-dasharray:none;stroke-dashoffset:0.7;stroke-opacity:1" />
      <rect
         y="12.961006"
         x="55.000008"
         height="4"
         width="12"
         id="rect6752"
         style="opacity:0.78448277;fill:url(#linearGradient9124);fill-opacity:1;stroke:none;stroke-width:1;stroke-linecap:round;stroke-linejoin:miter;stroke-miterlimit:4;stroke-dasharray:none;stroke-dashoffset:0.7;stroke-opacity:1" />
      <rect
         y="5.4610066"
         x="55.500008"
         height="11.03125"
         width="11.000002"
         id="rect6392"
         style="opacity:0.2;fill:none;fill-opacity:1;stroke:#ffffff;stroke-width:0.99999994;stroke-linecap:round;stroke-linejoin:miter;stroke-miterlimit:4;stroke-dasharray:none;stroke-dashoffset:0.7;stroke-opacity:1" />
      <path
         sodipodi:nodetypes="cscscscsccccccsc"
         id="path6782"
         d="M 56.000008,6.8985068 C 57.158606,7.2243959 57.748137,7.1709944 58.597315,7.5189176 C 59.763603,7.9967658 59.889031,8.4925108 60.718758,8.8672568 C 60.702759,8.8110638 60.764663,8.7536308 61.001741,8.7891318 C 61.110803,8.8054628 61.125008,9.0391318 61.125008,9.0391318 C 61.976953,9.3071708 62.748338,9.1869198 63.233461,9.4579818 C 64.251171,10.02663 64.618134,10.513187 65.671883,11.164132 C 64.556843,11.003207 63.910581,10.465106 62.985135,10.15638 C 62.175832,9.8863978 61.341464,9.8625928 61.125008,9.6875688 L 60.781258,10.007882 L 60.937508,10.367257 C 60.341566,10.613163 59.790355,10.523707 59.437508,10.132882 L 59.968758,9.8203818 L 60.082709,9.2807638 C 59.349786,8.8962858 59.152306,8.5846648 58.516696,8.2338798 C 57.800251,7.8384813 56.969195,7.7584989 56.000008,6.8985068 z "
         style="fill:#555753;fill-opacity:1;fill-rule:evenodd;stroke:none;stroke-width:0.1;stroke-linecap:butt;stroke-linejoin:miter;stroke-miterlimit:4;stroke-dasharray:none;stroke-opacity:1" />
      <path
         transform="translate(80.00001,-3.89932e-2)"
         d="M -28,2 L -28,4 L -27.9375,4 C -27.423087,4 -27,4.4230873 -27,4.9375 L -27,6.0625 C -27,6.5769127 -27.423087,7 -27.9375,7 L -28,7 L -28,8 L -27.9375,8 C -27.423087,8 -27,8.4230873 -27,8.9375 L -27,10.0625 C -27,10.576913 -27.423087,11 -27.9375,11 L -28,11 L -28,12 L -27.9375,12 C -27.423087,12 -27,12.423087 -27,12.9375 L -27,14.0625 C -27,14.576913 -27.423087,15 -27.9375,15 L -28,15 L -28,16 L -27.9375,16 C -27.423087,16 -27,16.423087 -27,16.9375 L -27,18.0625 C -27,18.576913 -27.423087,19 -27.9375,19 L -28,19 L -28,20 L -27,20 L -27,19.9375 C -27,19.423087 -26.576913,19 -26.0625,19 L -24.9375,19 C -24.423087,19 -24,19.423087 -24,19.9375 L -24,20 L -23,20 L -23,19.9375 C -23,19.423087 -22.576913,19 -22.0625,19 L -20.9375,19 C -20.423087,19 -20,19.423087 -20,19.9375 L -20,20 L -19,20 L -19,19.9375 C -19,19.423087 -18.576913,19 -18.0625,19 L -16.9375,19 C -16.423087,19 -16,19.423087 -16,19.9375 L -16,20 L -15,20 L -15,19.9375 C -15,19.423087 -14.576913,19 -14.0625,19 L -12.9375,19 C -12.423087,19 -12,19.423087 -12,19.9375 L -12,20 L -10,20 L -10,18 L -10.0625,18 C -10.576913,18 -11,17.576913 -11,17.0625 L -11,15.9375 C -11,15.423087 -10.576913,15 -10.0625,15 L -10,15 L -10,14 L -10.0625,14 C -10.576913,14 -11,13.576913 -11,13.0625 L -11,11.9375 C -11,11.423087 -10.576913,11 -10.0625,11 L -10,11 L -10,10 L -10.0625,10 C -10.576913,10 -11,9.5769127 -11,9.0625 L -11,7.9375 C -11,7.4230873 -10.576913,7 -10.0625,7 L -10,7 L -10,6 L -10.0625,6 C -10.576913,6 -11,5.5769127 -11,5.0625 L -11,3.9375 C -11,3.4230873 -10.576913,3 -10.0625,3 L -10,3 L -10,2 L -11,2 L -11,2.0625 C -11,2.5769127 -11.423087,3 -11.9375,3 L -13.0625,3 C -13.576913,3 -14,2.5769127 -14,2.0625 L -14,2 L -15,2 L -15,2.0625 C -15,2.5769127 -15.423087,3 -15.9375,3 L -17.0625,3 C -17.576913,3 -18,2.5769127 -18,2.0625 L -18,2 L -19,2 L -19,2.0625 C -19,2.5769127 -19.423087,3 -19.9375,3 L -21.0625,3 C -21.576913,3 -22,2.5769127 -22,2.0625 L -22,2 L -23,2 L -23,2.0625 C -23,2.5769127 -23.423087,3 -23.9375,3 L -25.0625,3 C -25.576913,3 -26,2.5769127 -26,2.0625 L -26,2 L -28,2 z "
         id="path6792"
         style="opacity:0.4;fill:url(#radialGradient9126);fill-opacity:1;stroke:none;stroke-width:0.99999994;stroke-linecap:round;stroke-linejoin:miter;stroke-miterlimit:4;stroke-dasharray:none;stroke-dashoffset:0.7;stroke-opacity:1"
         inkscape:original="M -28.5 1.5 L -28.5 4.5 L -27.9375 4.5 C -27.692664 4.5 -27.5 4.692664 -27.5 4.9375 L -27.5 6.0625 C -27.5 6.307336 -27.692664 6.5 -27.9375 6.5 L -28.5 6.5 L -28.5 8.5 L -27.9375 8.5 C -27.692664 8.5 -27.5 8.692664 -27.5 8.9375 L -27.5 10.0625 C -27.5 10.307336 -27.692664 10.5 -27.9375 10.5 L -28.5 10.5 L -28.5 12.5 L -27.9375 12.5 C -27.692664 12.5 -27.5 12.692664 -27.5 12.9375 L -27.5 14.0625 C -27.5 14.307336 -27.692664 14.5 -27.9375 14.5 L -28.5 14.5 L -28.5 16.5 L -27.9375 16.5 C -27.692664 16.5 -27.5 16.692664 -27.5 16.9375 L -27.5 18.0625 C -27.5 18.307336 -27.692664 18.5 -27.9375 18.5 L -28.5 18.5 L -28.5 20.5 L -26.5 20.5 L -26.5 19.9375 C -26.5 19.692664 -26.307336 19.5 -26.0625 19.5 L -24.9375 19.5 C -24.692664 19.5 -24.5 19.692664 -24.5 19.9375 L -24.5 20.5 L -22.5 20.5 L -22.5 19.9375 C -22.5 19.692664 -22.307336 19.5 -22.0625 19.5 L -20.9375 19.5 C -20.692664 19.5 -20.5 19.692664 -20.5 19.9375 L -20.5 20.5 L -18.5 20.5 L -18.5 19.9375 C -18.5 19.692664 -18.307336 19.5 -18.0625 19.5 L -16.9375 19.5 C -16.692664 19.5 -16.5 19.692664 -16.5 19.9375 L -16.5 20.5 L -14.5 20.5 L -14.5 19.9375 C -14.5 19.692664 -14.307336 19.5 -14.0625 19.5 L -12.9375 19.5 C -12.692664 19.5 -12.5 19.692664 -12.5 19.9375 L -12.5 20.5 L -9.5 20.5 L -9.5 17.5 L -10.0625 17.5 C -10.307336 17.5 -10.5 17.307336 -10.5 17.0625 L -10.5 15.9375 C -10.5 15.692664 -10.307336 15.5 -10.0625 15.5 L -9.5 15.5 L -9.5 13.5 L -10.0625 13.5 C -10.307336 13.5 -10.5 13.307336 -10.5 13.0625 L -10.5 11.9375 C -10.5 11.692664 -10.307336 11.5 -10.0625 11.5 L -9.5 11.5 L -9.5 9.5 L -10.0625 9.5 C -10.307336 9.5 -10.5 9.307336 -10.5 9.0625 L -10.5 7.9375 C -10.5 7.692664 -10.307336 7.5 -10.0625 7.5 L -9.5 7.5 L -9.5 5.5 L -10.0625 5.5 C -10.307336 5.5 -10.5 5.307336 -10.5 5.0625 L -10.5 3.9375 C -10.5 3.692664 -10.307336 3.5 -10.0625 3.5 L -9.5 3.5 L -9.5 1.5 L -11.5 1.5 L -11.5 2.0625 C -11.5 2.3073358 -11.692664 2.5 -11.9375 2.5 L -13.0625 2.5 C -13.307336 2.5 -13.5 2.3073357 -13.5 2.0625 L -13.5 1.5 L -15.5 1.5 L -15.5 2.0625 C -15.5 2.3073358 -15.692664 2.5 -15.9375 2.5 L -17.0625 2.5 C -17.307336 2.5 -17.5 2.3073357 -17.5 2.0625 L -17.5 1.5 L -19.5 1.5 L -19.5 2.0625 C -19.5 2.3073358 -19.692664 2.5 -19.9375 2.5 L -21.0625 2.5 C -21.307336 2.5 -21.5 2.3073357 -21.5 2.0625 L -21.5 1.5 L -23.5 1.5 L -23.5 2.0625 C -23.5 2.3073358 -23.692664 2.5 -23.9375 2.5 L -25.0625 2.5 C -25.307336 2.5 -25.5 2.3073357 -25.5 2.0625 L -25.5 1.5 L -28.5 1.5 z "
         inkscape:radius="-0.5138641"
         sodipodi:type="inkscape:offset" />
      <text
         transform="scale(1.0930485,0.9148725)"
         id="text6784"
         y="17.405226"
         x="55.319271"
         style="font-size:2.89033341px;font-style:normal;font-weight:bold;fill:#ffffff;fill-opacity:1;stroke:none;stroke-width:1px;stroke-linecap:butt;stroke-linejoin:miter;stroke-opacity:1;font-family:Bitstream Vera Sans"
         xml:space="preserve"><tspan
           y="17.405226"
           x="55.319271"
           id="tspan6786"
           sodipodi:role="line">50-</tspan></text>
      <path
         transform="translate(80.00001,-3.89932e-2)"
         d="M -27.5,2.5 L -27.5,3.6875 C -26.944443,3.8944803 -26.5,4.3267621 -26.5,4.9375 L -26.5,6.0625 C -26.5,6.6732379 -26.944443,7.1055197 -27.5,7.3125 L -27.5,7.6875 C -26.944443,7.8944803 -26.5,8.3267621 -26.5,8.9375 L -26.5,10.0625 C -26.5,10.673238 -26.944443,11.10552 -27.5,11.3125 L -27.5,11.6875 C -26.944443,11.89448 -26.5,12.326762 -26.5,12.9375 L -26.5,14.0625 C -26.5,14.673238 -26.944443,15.10552 -27.5,15.3125 L -27.5,15.6875 C -26.944443,15.89448 -26.5,16.326762 -26.5,16.9375 L -26.5,18.0625 C -26.5,18.333252 -26.641679,18.559463 -26.78125,18.78125 C -26.559463,18.641679 -26.333252,18.5 -26.0625,18.5 L -24.9375,18.5 C -24.326762,18.5 -23.89448,18.944443 -23.6875,19.5 L -23.3125,19.5 C -23.10552,18.944443 -22.673238,18.5 -22.0625,18.5 L -20.9375,18.5 C -20.326762,18.5 -19.89448,18.944443 -19.6875,19.5 L -19.3125,19.5 C -19.10552,18.944443 -18.673238,18.5 -18.0625,18.5 L -16.9375,18.5 C -16.326762,18.5 -15.89448,18.944443 -15.6875,19.5 L -15.3125,19.5 C -15.10552,18.944443 -14.673238,18.5 -14.0625,18.5 L -12.9375,18.5 C -12.326762,18.5 -11.89448,18.944443 -11.6875,19.5 L -10.5,19.5 L -10.5,18.3125 C -11.055557,18.10552 -11.5,17.673238 -11.5,17.0625 L -11.5,15.9375 C -11.5,15.326762 -11.055557,14.89448 -10.5,14.6875 L -10.5,14.3125 C -11.055557,14.10552 -11.5,13.673238 -11.5,13.0625 L -11.5,11.9375 C -11.5,11.326762 -11.055557,10.89448 -10.5,10.6875 L -10.5,10.3125 C -11.055557,10.10552 -11.5,9.6732379 -11.5,9.0625 L -11.5,7.9375 C -11.5,7.3267621 -11.055557,6.8944803 -10.5,6.6875 L -10.5,6.3125 C -11.055557,6.1055197 -11.5,5.6732379 -11.5,5.0625 L -11.5,3.9375 C -11.5,3.6667478 -11.358321,3.4405368 -11.21875,3.21875 C -11.440537,3.358321 -11.666748,3.5 -11.9375,3.5 L -13.0625,3.5 C -13.673239,3.5 -14.10552,3.0555573 -14.3125,2.5 L -14.6875,2.5 C -14.89448,3.0555573 -15.326762,3.5 -15.9375,3.5 L -17.0625,3.5 C -17.673239,3.5 -18.10552,3.0555573 -18.3125,2.5 L -18.6875,2.5 C -18.89448,3.0555573 -19.326762,3.5 -19.9375,3.5 L -21.0625,3.5 C -21.673239,3.5 -22.10552,3.0555573 -22.3125,2.5 L -22.6875,2.5 C -22.89448,3.0555573 -23.326762,3.5 -23.9375,3.5 L -25.0625,3.5 C -25.673239,3.5 -26.10552,3.0555573 -26.3125,2.5 L -27.5,2.5 z M -10.6875,2.5 C -10.722695,2.5944672 -10.727716,2.6961811 -10.78125,2.78125 C -10.696181,2.7277159 -10.594467,2.722695 -10.5,2.6875 L -10.5,2.5 L -10.6875,2.5 z M -27.21875,19.21875 C -27.303819,19.272284 -27.405533,19.277305 -27.5,19.3125 L -27.5,19.5 L -27.3125,19.5 C -27.277305,19.405533 -27.272284,19.303819 -27.21875,19.21875 z "
         id="path6790"
         style="opacity:0.87999998;fill:none;fill-opacity:1;stroke:#ffffff;stroke-width:0.99999994;stroke-linecap:round;stroke-linejoin:miter;stroke-miterlimit:4;stroke-dasharray:none;stroke-dashoffset:0.7;stroke-opacity:1"
         inkscape:original="M -28.5 1.5 L -28.5 4.5 L -27.9375 4.5 C -27.692664 4.5 -27.5 4.692664 -27.5 4.9375 L -27.5 6.0625 C -27.5 6.307336 -27.692664 6.5 -27.9375 6.5 L -28.5 6.5 L -28.5 8.5 L -27.9375 8.5 C -27.692664 8.5 -27.5 8.692664 -27.5 8.9375 L -27.5 10.0625 C -27.5 10.307336 -27.692664 10.5 -27.9375 10.5 L -28.5 10.5 L -28.5 12.5 L -27.9375 12.5 C -27.692664 12.5 -27.5 12.692664 -27.5 12.9375 L -27.5 14.0625 C -27.5 14.307336 -27.692664 14.5 -27.9375 14.5 L -28.5 14.5 L -28.5 16.5 L -27.9375 16.5 C -27.692664 16.5 -27.5 16.692664 -27.5 16.9375 L -27.5 18.0625 C -27.5 18.307336 -27.692664 18.5 -27.9375 18.5 L -28.5 18.5 L -28.5 20.5 L -26.5 20.5 L -26.5 19.9375 C -26.5 19.692664 -26.307336 19.5 -26.0625 19.5 L -24.9375 19.5 C -24.692664 19.5 -24.5 19.692664 -24.5 19.9375 L -24.5 20.5 L -22.5 20.5 L -22.5 19.9375 C -22.5 19.692664 -22.307336 19.5 -22.0625 19.5 L -20.9375 19.5 C -20.692664 19.5 -20.5 19.692664 -20.5 19.9375 L -20.5 20.5 L -18.5 20.5 L -18.5 19.9375 C -18.5 19.692664 -18.307336 19.5 -18.0625 19.5 L -16.9375 19.5 C -16.692664 19.5 -16.5 19.692664 -16.5 19.9375 L -16.5 20.5 L -14.5 20.5 L -14.5 19.9375 C -14.5 19.692664 -14.307336 19.5 -14.0625 19.5 L -12.9375 19.5 C -12.692664 19.5 -12.5 19.692664 -12.5 19.9375 L -12.5 20.5 L -9.5 20.5 L -9.5 17.5 L -10.0625 17.5 C -10.307336 17.5 -10.5 17.307336 -10.5 17.0625 L -10.5 15.9375 C -10.5 15.692664 -10.307336 15.5 -10.0625 15.5 L -9.5 15.5 L -9.5 13.5 L -10.0625 13.5 C -10.307336 13.5 -10.5 13.307336 -10.5 13.0625 L -10.5 11.9375 C -10.5 11.692664 -10.307336 11.5 -10.0625 11.5 L -9.5 11.5 L -9.5 9.5 L -10.0625 9.5 C -10.307336 9.5 -10.5 9.307336 -10.5 9.0625 L -10.5 7.9375 C -10.5 7.692664 -10.307336 7.5 -10.0625 7.5 L -9.5 7.5 L -9.5 5.5 L -10.0625 5.5 C -10.307336 5.5 -10.5 5.307336 -10.5 5.0625 L -10.5 3.9375 C -10.5 3.692664 -10.307336 3.5 -10.0625 3.5 L -9.5 3.5 L -9.5 1.5 L -11.5 1.5 L -11.5 2.0625 C -11.5 2.3073358 -11.692664 2.5 -11.9375 2.5 L -13.0625 2.5 C -13.307336 2.5 -13.5 2.3073357 -13.5 2.0625 L -13.5 1.5 L -15.5 1.5 L -15.5 2.0625 C -15.5 2.3073358 -15.692664 2.5 -15.9375 2.5 L -17.0625 2.5 C -17.307336 2.5 -17.5 2.3073357 -17.5 2.0625 L -17.5 1.5 L -19.5 1.5 L -19.5 2.0625 C -19.5 2.3073358 -19.692664 2.5 -19.9375 2.5 L -21.0625 2.5 C -21.307336 2.5 -21.5 2.3073357 -21.5 2.0625 L -21.5 1.5 L -23.5 1.5 L -23.5 2.0625 C -23.5 2.3073358 -23.692664 2.5 -23.9375 2.5 L -25.0625 2.5 C -25.307336 2.5 -25.5 2.3073357 -25.5 2.0625 L -25.5 1.5 L -28.5 1.5 z "
         inkscape:radius="-1.015625"
         sodipodi:type="inkscape:offset" />
    </g>
  </g>
</svg>
