/* XPM */
static char * 16_configure_mail_xpm[] = {
"16 16 42 1",
" 	c None",
".	c #000000",
"+	c #FFFFFF",
"@	c #EFEFEF",
"#	c #C3C3C3",
"$	c #010101",
"%	c #2F2F2F",
"&	c #A7A4A0",
"*	c #FCFCFC",
"=	c #F5F5F5",
"-	c #5D5B57",
";	c #EBEBEB",
">	c #1B1B1B",
",	c #FBFBF8",
"'	c #716E6B",
")	c #ECECEC",
"!	c #BEBEBE",
"~	c #EDEDED",
"{	c #DFDFDF",
"]	c #FBFAF7",
"^	c #A5A29D",
"/	c #E9E9E8",
"(	c #797873",
"_	c #8E8C8A",
":	c #C6C3BD",
"<	c #C9C5C0",
"[	c #7D7A77",
"}	c #F7F5F1",
"|	c #FAF9F6",
"1	c #F8F6F2",
"2	c #DAD8D6",
"3	c #656360",
"4	c #E2DFD8",
"5	c #090808",
"6	c #D7D4CE",
"7	c #D8D5CF",
"8	c #D6D3CD",
"9	c #D9D6D0",
"0	c #D3D1CD",
"a	c #BEBCB6",
"b	c #E0DCD5",
"c	c #222221",
"         ..  .. ",
"        .+.  .@.",
"        .+....@.",
"        .+@@@@#.",
"         .+@@#. ",
"          .+#.  ",
"  $%$$$$$$.+@.  ",
" $&******=.+#.  ",
" $+-+++++;>+@.  ",
" $+,'+++).!@##. ",
" $+,,'+~.{@@@@#.",
" $+,]^'/.+....@.",
" $+](,,_.+.:<.@.",
" $+[,}|12..34.. ",
" $56777890abc$  ",
"  $$$$$$$$$$$   "};
