/* XPM */
static char * 16_copy_message_xpm[] = {
"16 16 39 1",
" 	c None",
".	c #010101",
"+	c #2F2F2F",
"@	c #A7A4A0",
"#	c #FCFCFC",
"$	c #64625F",
"%	c #95938E",
"&	c #FBFBFB",
"*	c #F9F8F6",
"=	c #FBFAFA",
"-	c #F6F5F1",
";	c #7D7B78",
">	c #EAE8E3",
",	c #969491",
"'	c #F6F4F1",
")	c #81807C",
"!	c #E5E3DE",
"~	c #F7F6F4",
"{	c #B0ADA7",
"]	c #83817E",
"^	c #E1DFDA",
"/	c #928F8B",
"(	c #FBFBFA",
"_	c #F7F5F2",
":	c #F5F3F0",
"<	c #B5B2AC",
"[	c #A09C97",
"}	c #F0EFEB",
"|	c #E4E2DD",
"1	c #AEABA6",
"2	c #92908B",
"3	c #E8E6E1",
"4	c #F7F6F2",
"5	c #F5F4F0",
"6	c #6B6A68",
"7	c #E2DFD9",
"8	c #E2E0DB",
"9	c #E3E1DC",
"0	c #E6E4DF",
"                ",
" .+.........    ",
".@#########$.   ",
".#%&*#*=*-;>.   ",
".#*,=*=*')'!.   ",
".#**.+......... ",
".#*.@#########$.",
".#~.#%&*#*=*-;>.",
".#{.#*,=*=*')'!.",
".]^.#**/(*_)*:!.",
" ...#*~<)#)[-}|.",
"   .#~1**)__23|.",
"   .#{*:45_:>63.",
"   .]^777^8890$.",
"    ........... ",
"                "};
