/* XPM */
static char * 16_move_message_xpm[] = {
"16 16 40 1",
" 	c None",
".	c #010101",
"+	c #2F2F2F",
"@	c #A7A4A0",
"#	c #FCFCFC",
"$	c #64625F",
"%	c #95938E",
"&	c #FBFBFB",
"*	c #F9F8F6",
"=	c #FBFAFA",
"-	c #F6F5F1",
";	c #7D7B78",
">	c #EAE8E3",
",	c #969491",
"'	c #F6F4F1",
")	c #81807C",
"!	c #E5E3DE",
"~	c #000000",
"{	c #928F8B",
"]	c #FBFBFA",
"^	c #F7F5F2",
"/	c #F5F3F0",
"(	c #F7F6F4",
"_	c #B5B2AC",
":	c #A09C97",
"<	c #F0EFEB",
"[	c #E4E2DD",
"}	c #AEABA6",
"|	c #92908B",
"1	c #E8E6E1",
"2	c #B0ADA7",
"3	c #F7F6F2",
"4	c #F5F4F0",
"5	c #6B6A68",
"6	c #83817E",
"7	c #E1DFDA",
"8	c #E2DFD9",
"9	c #E2E0DB",
"0	c #E3E1DC",
"a	c #E6E4DF",
"                ",
" . . . . . .    ",
".           .   ",
"                ",
".           .   ",
"    .+......... ",
".  .@#########$.",
"   .#%&*#*=*-;>.",
".  .#*,=*=*')'!.",
" ~ .#**{]*^)*/!.",
"   .#*(_)#):-<[.",
"   .#(}**)^^|1[.",
"   .#2*/34^/>51.",
"   .678887990a$.",
"    ........... ",
"                "};
