/* XPM */
static char * 16_print_xpm[] = {
"16 16 35 1",
" 	c None",
".	c #000000",
"+	c #DCDCDC",
"@	c #F8F8F8",
"#	c #F1F1F1",
"$	c #E8E8E8",
"%	c #E4E4E4",
"&	c #FFFFFF",
"*	c #E5E5E5",
"=	c #D7D7D7",
"-	c #D2D2D2",
";	c #E3E3E3",
">	c #979797",
",	c #F2F2F2",
"'	c #FCFCFC",
")	c #EBEBEB",
"!	c #939393",
"~	c #B8B8B8",
"{	c #DADADA",
"]	c #F0F0F0",
"^	c #D1D1D1",
"/	c #A7A7A7",
"(	c #CACACA",
"_	c #B9B9B9",
":	c #8A8A8A",
"<	c #C0C0C0",
"[	c #E36548",
"}	c #DBDBDB",
"|	c #5B5B5B",
"1	c #B3B3B3",
"2	c #EED684",
"3	c #EED683",
"4	c #707070",
"5	c #A4A4A4",
"6	c #585858",
"        .       ",
"       .+..     ",
"      .@#$%..   ",
"     .&&&&#*=.. ",
"    .-@&&&&&#;. ",
"  ..+>*,'&&&).  ",
"..++..!~{$]&..  ",
".^^+++..!/.(++..",
".^^^];++._^+:::.",
".^<&[]]}++::::|.",
".^^1&23:^:::|4|.",
"..^^<5::^:|4|:|.",
"  ..^^^^^:|:|:..",
"    ..^^^:6:..  ",
"      ..^:..    ",
"        ..      "};
