/* XPM */
static char * 16_save_xpm[] = {
"16 16 26 1",
" 	c None",
".	c #000000",
"+	c #B8CADB",
"@	c #C5D4E3",
"#	c #687B8D",
"$	c #D8D8D8",
"%	c #CFDBE6",
"&	c #9DB8D2",
"*	c #728699",
"=	c #BCCEDF",
"-	c #FFFFFF",
";	c #D2DEEA",
">	c #C0D1E2",
",	c #CFDBE7",
"'	c #798EA3",
")	c #D0DDE9",
"!	c #B7CBDE",
"~	c #B6CADD",
"{	c #B7CADD",
"]	c #BACCDF",
"^	c #9FB9D3",
"/	c #7E94A9",
"(	c #A4BDD5",
"_	c #BABABA",
":	c #556474",
"<	c #2A303A",
"                ",
"                ",
"  ............  ",
" .+@#$$$$$$%&*. ",
" .=&#------;&*. ",
" .>&#$$$$$$,&*. ",
" .>&'------)&*. ",
" .>&&!~~{{]^&*. ",
" .>&&&&&&&&&&*. ",
" .>&&//////&&*. ",
" .>(/$$_$-$/&*. ",
" .>&/$_$-/$/&*. ",
" .>&/$_-$/$/&*. ",
" .=&/_$-$$$/**. ",
"  .:........<.  ",
"                "};
