/* XPM */
static char * 24_all_contacts_xpm[] = {
"24 24 50 1",
" 	c None",
".	c #000000",
"+	c #BDBDBD",
"@	c #FFFFFF",
"#	c #A3A3A3",
"$	c #F8F8F8",
"%	c #C9B49B",
"&	c #8E7151",
"*	c #876E51",
"=	c #BAB1A5",
"-	c #FDFDFD",
";	c #FBFBFB",
">	c #EAE8E3",
",	c #F3F3F3",
"'	c #A88D6E",
")	c #DFD0BF",
"!	c #5E432B",
"~	c #7E6C5B",
"{	c #313131",
"]	c #575757",
"^	c #FCFCFC",
"/	c #555555",
"(	c #EEDFCC",
"_	c #F4EEE6",
":	c #765E45",
"<	c #736251",
"[	c #FAFAFA",
"}	c #7590AE",
"|	c #C1665A",
"1	c #445B71",
"2	c #D7D6D3",
"3	c #ADADAD",
"4	c #9B9B9B",
"5	c #4B6983",
"6	c #9DB8D2",
"7	c #486481",
"8	c #314E6C",
"9	c #667A8D",
"0	c #5F7C96",
"a	c #5D7A95",
"b	c #4D6B87",
"c	c #3B556D",
"d	c #344A60",
"e	c #999999",
"f	c #EDEDED",
"g	c #C7C7C7",
"h	c #5D5D5D",
"i	c #787878",
"j	c #E0DDD6",
"k	c #918E85",
"                        ",
"                        ",
"                        ",
"  ..............        ",
" .+@@@@@@@@@@@@#.       ",
" .@$%&*=@-@;@@@>..      ",
" .@,')!~@{]^/-@>.#.     ",
" .@,(_:<@@@@@@@>.>..    ",
" .@[}|12@3@43@@>.>.#.   ",
" .@56789@@@@@@@>.>.>..  ",
" .@0abcd@e4fg@@>.>.>.#. ",
" .@@@@@@@@@@@@@>.>.>.>. ",
" .@@h@h@i@4@g@@j.>.>.>. ",
" .#>>>>>>>>>>>jk.>.>.>. ",
"  ..............@j.>.>. ",
"   .#>>>>>>>>>>>jk.>.>. ",
"    ..............@j.>. ",
"     .#>>>>>>>>>>>jk.>. ",
"      ..............@j. ",
"       .#>>>>>>>>>>>jk. ",
"        ..............  ",
"                        ",
"                        ",
"                        "};
