/* XPM */
static char * 24_all_contacts_xpm[] = {
"24 24 109 2",
"  	c None",
". 	c #000000",
"+ 	c #E2E2E2",
"@ 	c #FFFFFF",
"# 	c #7C7C7C",
"$ 	c #99A097",
"% 	c #4D4D4D",
"& 	c #535250",
"* 	c #A6A6A6",
"= 	c #798874",
"- 	c #444F42",
"; 	c #5B6158",
"> 	c #909090",
", 	c #6B6B6B",
"' 	c #B5BCB3",
") 	c #596555",
"! 	c #869880",
"~ 	c #DDDDDD",
"{ 	c #C5C5C5",
"] 	c #6E6E6E",
"^ 	c #DCE1DA",
"/ 	c #495246",
"( 	c #575757",
"_ 	c #929292",
": 	c #CDCDCD",
"< 	c #F8F8F9",
"[ 	c #ABABAB",
"} 	c #656565",
"| 	c #BDBDBD",
"1 	c #9C9FA2",
"2 	c #1E1E1F",
"3 	c #BEBEBE",
"4 	c #F8F8F8",
"5 	c #C9B49B",
"6 	c #8E7151",
"7 	c #876E51",
"8 	c #BAB1A5",
"9 	c #C4CCD4",
"0 	c #5F6D7C",
"a 	c #4B5E6D",
"b 	c #34383A",
"c 	c #F3F3F3",
"d 	c #A88D6E",
"e 	c #DFD0BF",
"f 	c #5E432B",
"g 	c #7E6C5B",
"h 	c #9EA8B3",
"i 	c #C0C8CF",
"j 	c #9EA2A7",
"k 	c #6E6F6E",
"l 	c #80766E",
"m 	c #665B52",
"n 	c #969696",
"o 	c #C3C3C3",
"p 	c #EEDFCC",
"q 	c #F4EEE6",
"r 	c #765E45",
"s 	c #F9F9FA",
"t 	c #C9CFD6",
"u 	c #A3AEBA",
"v 	c #E9EEF2",
"w 	c #91B7BA",
"x 	c #625547",
"y 	c #625347",
"z 	c #D0CCC9",
"A 	c #CFCFCF",
"B 	c #FAFAFA",
"C 	c #7590AE",
"D 	c #C1665A",
"E 	c #445B71",
"F 	c #FDFCFC",
"G 	c #EEF0F1",
"H 	c #DCD8D5",
"I 	c #BCB2A7",
"J 	c #776E67",
"K 	c #877D75",
"L 	c #C8C8C8",
"M 	c #4B6983",
"N 	c #9DB8D2",
"O 	c #486481",
"P 	c #314E6C",
"Q 	c #667A8D",
"R 	c #FDFDFD",
"S 	c #736A63",
"T 	c #756C65",
"U 	c #D6D3D1",
"V 	c #BABABA",
"W 	c #5F7C96",
"X 	c #5D7A95",
"Y 	c #4D6B87",
"Z 	c #3B556D",
"` 	c #344A60",
" .	c #999999",
"..	c #7F7F7F",
"+.	c #F6F6F6",
"@.	c #5D5D5D",
"#.	c #787878",
"$.	c #9B9B9B",
"%.	c #C7C7C7",
"&.	c #A3A3A3",
"*.	c #EAE8E3",
"=.	c #E0DDD6",
"-.	c #918E85",
";.	c #D5D5D5",
">.	c #B5B5B5",
",.	c #E1E1E1",
"'.	c #989898",
").	c #C1C1C1",
"!.	c #DADADA",
"                      . . . .                   ",
"                  . . + @ . . . .               ",
"              . . + @ # . + @ @ + . .           ",
"          . . + @ $ % & . @ @ * @ @ + . .       ",
"        . + @ @ = - ; . + @ @ > , @ @ @ + . .   ",
"        . + @ @ ' ) ! . @ @ ~ # @ { ] @ @ @ + . ",
"          . @ @ ^ / . + @ @ > @ @ ] @ @ ( @ + . ",
"          . + @ @ ^ . @ @ ~ , @ _ ] @ * : @ .   ",
"    . . . . . . . . + < @ [ ~ @ # @ @ } @ + .   ",
"  . | @ @ @ @ @ @ . @ 1 2 @ @ * 3 @ > @ @ .     ",
"  . @ 4 5 6 7 8 . + 9 0 a b @ @ @ > ~ @ + . .   ",
"  . @ c d e f g . @ h i j k l m @ n o @ . @ + . ",
"  . @ c p q r . + s t u v w x y z @ @ A . + + . ",
"  . @ B C D E . + @ F G H I J K @ > @ . L @ .   ",
"  . @ M N O P Q . . + R @ S T U V @ + . @ + .   ",
"  . @ W X Y Z ` @  .. . + @ @ @ ..+.. @ @ .     ",
"  . @ @ @ @ @ @ @ @ @ @ . . + @ @ + . @ + .     ",
"  . @ @ @.@ @.@ #.@ $.@ %.@ . . . . @ @ .       ",
"  . &.*.*.*.*.*.*.*.*.*.*.*.=.-.. ;.@ A .       ",
"    . . . . . . . . . . . . . . >.,.@ .         ",
"                . . '.V V V V ).!.@ L .         ",
"                    . . + @ @ @ @ @ .           ",
"                        . . + @ @ L .           ",
"                            . . . .             "};
