/* XPM */
static char * 24_find_contact_xpm[] = {
"24 24 100 2",
"  	c None",
". 	c #000000",
"+ 	c #BDBDBD",
"@ 	c #FFFFFF",
"# 	c #A3A3A3",
"$ 	c #F8F8F8",
"% 	c #C9B49B",
"& 	c #8E7151",
"* 	c #876E51",
"= 	c #BAB1A5",
"- 	c #FDFDFD",
"; 	c #FBFBFB",
"> 	c #EAE8E3",
", 	c #F3F3F3",
"' 	c #A88D6E",
") 	c #DFD0BF",
"! 	c #5E432B",
"~ 	c #7E6C5B",
"{ 	c #313131",
"] 	c #575757",
"^ 	c #FCFCFC",
"/ 	c #555555",
"( 	c #EEDFCC",
"_ 	c #F4EEE6",
": 	c #765E45",
"< 	c #736251",
"[ 	c #FAFAFA",
"} 	c #7590AE",
"| 	c #C1665A",
"1 	c #445B71",
"2 	c #D7D6D3",
"3 	c #ADADAD",
"4 	c #9B9B9B",
"5 	c #4B6983",
"6 	c #9DB8D2",
"7 	c #486481",
"8 	c #314E6C",
"9 	c #667A8D",
"0 	c #E0E0E0",
"a 	c #BCBCBC",
"b 	c #C5C5C5",
"c 	c #5F7C96",
"d 	c #5D7A95",
"e 	c #4D6B87",
"f 	c #3B556D",
"g 	c #344A60",
"h 	c #47473F",
"i 	c #0A0A09",
"j 	c #4B4B43",
"k 	c #999999",
"l 	c #34342E",
"m 	c #9D9D8D",
"n 	c #CFCFB9",
"o 	c #C4C4AF",
"p 	c #8D8D7F",
"q 	c #353530",
"r 	c #A2A2A2",
"s 	c #D2D2D2",
"t 	c #5D5D5D",
"u 	c #46463F",
"v 	c #9C9C8C",
"w 	c #E2E2D0",
"x 	c #EDEDE7",
"y 	c #C0C0AC",
"z 	c #B2B29F",
"A 	c #828274",
"B 	c #4C4C44",
"C 	c #B9B9B9",
"D 	c #D1CFC8",
"E 	c #090908",
"F 	c #D5D5BF",
"G 	c #FBFBFA",
"H 	c #C3C3AE",
"I 	c #B5B5A2",
"J 	c #A6A695",
"K 	c #959586",
"L 	c #080807",
"M 	c #72706D",
"N 	c #918E85",
"O 	c #090909",
"P 	c #CACAB5",
"Q 	c #DDDDD0",
"R 	c #B7B7A4",
"S 	c #AAAA98",
"T 	c #9B9B8B",
"U 	c #8C8C7D",
"V 	c #474740",
"W 	c #929283",
"X 	c #BABAA7",
"Y 	c #ADAD9B",
"Z 	c #9F9F8E",
"` 	c #909081",
" .	c #727266",
"..	c #4C4C45",
"+.	c #34342F",
"@.	c #878779",
"#.	c #A0A090",
"$.	c #737367",
"%.	c #010101",
"&.	c #414141",
"                                                ",
"                                                ",
"                                                ",
"        . . . . . . . . . . . . . .             ",
"      . + @ @ @ @ @ @ @ @ @ @ @ @ # .           ",
"      . @ $ % & * = @ - @ ; @ @ @ > .           ",
"      . @ , ' ) ! ~ @ { ] ^ / - @ > .           ",
"      . @ , ( _ : < @ @ @ @ @ @ @ > .           ",
"      . @ [ } | 1 2 @ 3 @ 4 3 @ @ > .           ",
"      . @ 5 6 7 8 9 0 3 a b 0 @ @ > .           ",
"      . @ c d e f g h i i j k b @ > .           ",
"      . @ @ @ @ @ l m n o p q r s > .           ",
"      . @ @ t @ u v w x y z A B C D .           ",
"      . # > > > E F G H I J K L M N .           ",
"        . . . . O P Q R S T U i . .             ",
"                V W X Y Z `  ...                ",
"                  +.@.#.W $.%.%.                ",
"                    j i i &.  %.%.              ",
"                              %.%.%.            ",
"                                %.%.%.          ",
"                                  %.%.%.        ",
"                                    %.%.        ",
"                                                ",
"                                                "};
