/* XPM */
static char * all_contacts_xpm[] = {
"24 24 131 2",
"  	c None",
". 	c #000000",
"+ 	c #FDFDFD",
"@ 	c #F5F5F5",
"# 	c #F6F6F6",
"$ 	c #D0D0D0",
"% 	c #C1C1C1",
"& 	c #C3C3C3",
"* 	c #C6C6C6",
"= 	c #C8C8C8",
"- 	c #8D8D8D",
"; 	c #CACACA",
"> 	c #919191",
", 	c #EFEFEF",
"' 	c #878787",
") 	c #8A8A8A",
"! 	c #5C5C5C",
"~ 	c #F8F8F8",
"{ 	c #EAEAEA",
"] 	c #CCCCCC",
"^ 	c #CECECE",
"/ 	c #979797",
"( 	c #D2D2D2",
"_ 	c #9A9A9A",
": 	c #646464",
"< 	c #939393",
"[ 	c #9D9D9D",
"} 	c #6B6B6B",
"| 	c #BDBDBD",
"1 	c #FFFFFF",
"2 	c #A1A1A1",
"3 	c #D9D9D9",
"4 	c #E3E3E3",
"5 	c #EDEDED",
"6 	c #EEEEEE",
"7 	c #C9B49B",
"8 	c #8E7151",
"9 	c #876E51",
"0 	c #BAB1A5",
"a 	c #FBFBFB",
"b 	c #FEFEFE",
"c 	c #DEDCD7",
"d 	c #9E9E9E",
"e 	c #BABABA",
"f 	c #D1D1D1",
"g 	c #A3A3A3",
"h 	c #F3F3F3",
"i 	c #A88D6E",
"j 	c #DFD0BF",
"k 	c #5E432B",
"l 	c #7E6C5B",
"m 	c #313131",
"n 	c #575757",
"o 	c #FCFCFC",
"p 	c #555555",
"q 	c #D5D3CF",
"r 	c #868686",
"s 	c #A6A6A6",
"t 	c #CDCDCD",
"u 	c #DBDBDB",
"v 	c #EEDFCC",
"w 	c #F4EEE6",
"x 	c #765E45",
"y 	c #736251",
"z 	c #D9D7D2",
"A 	c #606060",
"B 	c #7D7D7D",
"C 	c #9C9C9C",
"D 	c #A5A5A5",
"E 	c #7C7C7C",
"F 	c #FAFAFA",
"G 	c #7590AE",
"H 	c #C1665A",
"I 	c #445B71",
"J 	c #D7D6D3",
"K 	c #ADADAD",
"L 	c #9B9B9B",
"M 	c #B6B6B6",
"N 	c #E6E6E6",
"O 	c #F1F1F1",
"P 	c #A8A8A8",
"Q 	c #4B6983",
"R 	c #9DB8D2",
"S 	c #486481",
"T 	c #314E6C",
"U 	c #667A8D",
"V 	c #D4D3CE",
"W 	c #787878",
"X 	c #D3D3D3",
"Y 	c #E1E1E1",
"Z 	c #ABABAB",
"` 	c #5F7C96",
" .	c #5D7A95",
"..	c #4D6B87",
"+.	c #3B556D",
"@.	c #344A60",
"#.	c #999999",
"$.	c #C7C7C7",
"%.	c #DDDBD6",
"&.	c #DADADA",
"*.	c #E2E2E2",
"=.	c #898989",
"-.	c #A9A9A9",
";.	c #B0B0B0",
">.	c #5D5D5D",
",.	c #CBC9C2",
"'.	c #BBBBBB",
").	c #ECECEC",
"!.	c #EAE8E3",
"~.	c #DAD8D3",
"{.	c #D3D2CD",
"].	c #CECCC8",
"^.	c #CCCAC6",
"/.	c #D1CFCA",
"(.	c #D2D0CB",
"_.	c #C8C5BF",
":.	c #737169",
"<.	c #8F8F8F",
"[.	c #B3B3B3",
"}.	c #DCDCDC",
"|.	c #E8E8E8",
"1.	c #B5B5B5",
"2.	c #565656",
"3.	c #A0A0A0",
"4.	c #C2C2C2",
"5.	c #848484",
"6.	c #838383",
"7.	c #7B7B7B",
"8.	c #8B8B8B",
"9.	c #B2B2B2",
"0.	c #B8B8B8",
"                                                ",
"                                                ",
"        . . . . . . . . . . . . . . . . . . . . ",
"        . + @ @ @ @ @ @ @ # # # # # # # # # $ . ",
"        . @ % % % & & & & * * * * * = = = = - . ",
"        . # & & & * * * * = = = = = ; ; ; ; > . ",
"        . , ' ' ' ) ) ) ) - - - - - > > > > ! . ",
"        . ~ { { { { { { { { { { { { { { { { ; . ",
"        . # ; ; ; ] ] ] ] ] ^ ^ ^ ^ $ $ $ $ / . ",
"        . # ] ] ] ^ ^ ^ ^ ^ $ & ^ $ ( ( ( ( _ . ",
"  . . . . . . . . . . . . . . : < / [ [ [ [ } . ",
". | 1 1 1 1 1 1 1 1 1 1 1 1 2 . 3 4 5 6 6 6 * . ",
". 1 ~ 7 8 9 0 1 + 1 a 1 1 b c . d e f 3 3 3 g . ",
". 1 h i j k l 1 m n o p + 1 q . r s t u u u g . ",
". 1 h v w x y 1 1 1 1 1 1 1 z . A B C D D D E . ",
". 1 F G H I J 1 K 1 L K 1 1 q . ) M N O O , P . ",
". 1 Q R S T U 1 1 1 1 1 1 1 V . W D X Y Y Y Z . ",
". 1 `  ...+.@.1 #.L 5 $.1 1 %.. E K &.*.*.*.K . ",
". 1 1 1 1 1 1 1 1 1 1 1 1 1 c . A =.-.;.;.;.[ . ",
". 1 1 >.1 >.1 W 1 L 1 * o F ,.. =.'.).@ @ @ $ . ",
". g !.!.!.~.~.~.{.].^./.(._.:.. <.[.}.N |.|.1.. ",
"  . . . . . . . . . . . . . . 2.3.% Y N |.|.1.. ",
"        . 4.< - =.' 5.) r 6.7.E 8.2 9.1.0.0.e . ",
"        . . . . . . . . . . . . . . . . . . . . "};
