/* XPM */
static char * apply_filers_16_xpm[] = {
"16 16 29 1",
" 	c None",
".	c #161616",
"+	c #EDEAE8",
"@	c #CDC1BA",
"#	c #6A4E3D",
"$	c #C6B8AF",
"%	c #333333",
"&	c #F3F1EE",
"*	c #5E4537",
"=	c #D6CCC5",
"-	c #916C56",
";	c #5A4235",
">	c #BBA9A0",
",	c #C3B3AC",
"'	c #CEC1BB",
")	c #BBAAA0",
"!	c #A1897A",
"~	c #664B3B",
"{	c #383838",
"]	c #856B60",
"^	c #C2B3A9",
"/	c #E9E3E0",
"(	c #EEE9E7",
"_	c #7B5A46",
":	c #F5F4F2",
"<	c #B8A69B",
"[	c #AE998D",
"}	c #553E32",
"|	c #725442",
"                ",
"  .+.           ",
"  .@.     .#    ",
"  .$.     %&*   ",
"  .$.......=-;  ",
"  .$>$$$$$,'--. ",
"  .$.......)-*  ",
"  .$.     .!*   ",
"  .$.     .~    ",
"  .$.     {]    ",
"  .^.     ./~   ",
"  .(.......,-#  ",
"  _$:,$$$$$<--. ",
"   ~.......[-}  ",
"          .!#   ",
"          .|    "};
