/* XPM */
static char * attachment_xpm[] = {
"16 16 119 2",
"  	c None",
". 	c #000000",
"+ 	c #3E3E32",
"@ 	c #414134",
"# 	c #676753",
"$ 	c #8E8E71",
"% 	c #C4C49D",
"& 	c #BCBC96",
"* 	c #0F0F0C",
"= 	c #828267",
"- 	c #C2C29B",
"; 	c #ECECBD",
"> 	c #FBFBC9",
", 	c #FEFECB",
"' 	c #D0D0A5",
") 	c #22221B",
"! 	c #2C2C23",
"~ 	c #75755E",
"{ 	c #DDDDB0",
"] 	c #2A2A21",
"^ 	c #B8B893",
"/ 	c #EEEEBE",
"( 	c #D0D0A7",
"_ 	c #48483A",
": 	c #EFEFBF",
"< 	c #78785F",
"[ 	c #20201A",
"} 	c #515141",
"| 	c #B1B18E",
"1 	c #E9E9BA",
"2 	c #FFFFCC",
"3 	c #F2F2C1",
"4 	c #282820",
"5 	c #ABAB89",
"6 	c #C7C79F",
"7 	c #A4A483",
"8 	c #333329",
"9 	c #D3D3A9",
"0 	c #FDFDCA",
"a 	c #989879",
"b 	c #D4D4A9",
"c 	c #EAEABB",
"d 	c #BEBE97",
"e 	c #ADAD8A",
"f 	c #E7E7B9",
"g 	c #2F2F25",
"h 	c #CECEA5",
"i 	c #C9C9A1",
"j 	c #37372B",
"k 	c #8D8D71",
"l 	c #E5E5B6",
"m 	c #8F8F71",
"n 	c #9F9F7E",
"o 	c #DCDCAF",
"p 	c #2A2A22",
"q 	c #D1D1A7",
"r 	c #A4A482",
"s 	c #F6F6C5",
"t 	c #EDEDBD",
"u 	c #5B5B48",
"v 	c #666651",
"w 	c #F3F3C3",
"x 	c #E3E3B5",
"y 	c #FCFCC9",
"z 	c #A9A987",
"A 	c #E4E4B6",
"B 	c #9E9E7E",
"C 	c #2D2D23",
"D 	c #CBCBA2",
"E 	c #FAFAC7",
"F 	c #808066",
"G 	c #434335",
"H 	c #D6D6AB",
"I 	c #C6C69D",
"J 	c #202019",
"K 	c #7C7C63",
"L 	c #E0E0B3",
"M 	c #303027",
"N 	c #D0D0A6",
"O 	c #292921",
"P 	c #A8A886",
"Q 	c #959577",
"R 	c #BDBD96",
"S 	c #61614E",
"T 	c #585846",
"U 	c #CACAA1",
"V 	c #74745D",
"W 	c #60604D",
"X 	c #D9D9AD",
"Y 	c #F3F3C2",
"Z 	c #B5B590",
"` 	c #26261E",
" .	c #89896D",
"..	c #F7F7C6",
"+.	c #F9F9C7",
"@.	c #DDDDB1",
"#.	c #575746",
"$.	c #24241D",
"%.	c #4E4E3E",
"&.	c #969678",
"*.	c #C3C39B",
"=.	c #9D9D7C",
"-.	c #1E1E18",
";.	c #F7F7C5",
">.	c #C6C69E",
",.	c #87876B",
"'.	c #6B6B55",
").	c #4A4A3B",
"!.	c #CCCCA3",
"~.	c #F0F0C0",
"{.	c #DBDBAF",
"].	c #8F8F72",
"^.	c #6D6D57",
"/.	c #2E2E24",
"(.	c #5F5F4C",
"_.	c #909073",
":.	c #424234",
"<.	c #070705",
"[.	c #1D1D17",
"              . . .             ",
"            .       . + @       ",
"            . . . # $ % & .     ",
"          . * = - ; > , ' .     ",
"    ) ! ~ { ] ^ / ( _ : > <     ",
"[ } | 1 2 3 4 5 6 7 8 9 0 a     ",
"! b > c d e ) 5 > f g h 2 i j   ",
"  k l m n o p ^ 2 q ) r s t u   ",
"  v w x 2 y p z A B C D 2 E F   ",
"  G H 3 H I J K L f M N 2 2 b O ",
"    P x Q R S T U V W X Y { Z ` ",
"     ...c +.@.#.$.%.&.*.=.4 -.  ",
"    . / 2 2 ;.>.,.'.).. .       ",
"    . !.~.{.].^./..             ",
"      (._.:.                    ",
"      <.[.                      "};
