/* XPM */
static char * attachment_xpm[] = {
"24 24 58 1",
" 	c None",
".	c #000000",
"+	c #CACAA1",
"@	c #9D9D7D",
"#	c #B8B893",
"$	c #E9E9BA",
"%	c #F4F4C3",
"&	c #FFFFCC",
"*	c #D1D1A6",
"=	c #7D7D64",
"-	c #DEDEB1",
";	c #C1C19A",
">	c #8C8C70",
",	c #E7E7B8",
"'	c #9F9F7E",
")	c #D4D4A9",
"!	c #72725B",
"~	c #87876B",
"{	c #A0A080",
"]	c #C9C9A0",
"^	c #CDCDA3",
"/	c #676752",
"(	c #A6A683",
"_	c #77775F",
":	c #979778",
"<	c #989878",
"[	c #76765D",
"}	c #7F7F65",
"|	c #DCDCAF",
"1	c #5E5E4A",
"2	c #C6C69D",
"3	c #D6D6AC",
"4	c #8F8F72",
"5	c #85856A",
"6	c #515140",
"7	c #A2A281",
"8	c #88886C",
"9	c #999979",
"0	c #B0B08D",
"a	c #787860",
"b	c #8F8F70",
"c	c #707059",
"d	c #9F9F7F",
"e	c #A3A382",
"f	c #9B9B7C",
"g	c #D3D3A8",
"h	c #666651",
"i	c #ABAB88",
"j	c #ADAD89",
"k	c #828267",
"l	c #63634F",
"m	c #828268",
"n	c #D1D1A7",
"o	c #89896C",
"p	c #99997A",
"q	c #838368",
"r	c #929274",
"s	c #A6A685",
"                        ",
"                        ",
"          ....          ",
"         .    . ..      ",
"         .   ...+@.     ",
"         ....#$%&*.     ",
"       ...=-&&&&&*.     ",
"    ...;-.>&&&.,&&'.    ",
"  ..#)&&&.>&!~.{&&].    ",
" .#-&&&&^./,&&.>&&,.    ",
" .#&&,(_:.>&&&.>&&&<.   ",
"  .&*[}*&.>&&|.12&&].   ",
"  .-&*&&&.>&34.5&&&,.   ",
"  .#&&&&,.67&&.8&&&&9.  ",
"   .&,0ab.c;&&.d&&&&].  ",
"   .-&8e&f.8g.hi&,*jk.  ",
"   .#&&&&&f..lmnjo...   ",
"    .&&&&&,fpqk...      ",
"    .-&&&,]<...         ",
"    .#,]r...            ",
"     .s..               ",
"     ..                 ",
"                        ",
"                        "};
