/* XPM */
static char * bell_xpm[] = {
"16 16 64 1",
" 	c None",
".	c #000000",
"+	c #E3BB43",
"@	c #E6C049",
"#	c #EED275",
"$	c #F4E193",
"%	c #F4DF8C",
"&	c #EAC95C",
"*	c #EFD57A",
"=	c #FAEFBB",
"-	c #FDF6D3",
";	c #FDF5C6",
">	c #F4E18F",
",	c #E4BD43",
"'	c #F6E295",
")	c #FEF9D8",
"!	c #FFFFFF",
"~	c #FFFADA",
"{	c #FCEEAA",
"]	c #EBCA5A",
"^	c #E9C550",
"/	c #FAEA9C",
"(	c #FEF7CB",
"_	c #FFF8CC",
":	c #FDF1A8",
"<	c #EED060",
"[	c #D39D12",
"}	c #F2D55D",
"|	c #FCEC91",
"1	c #FFF4AE",
"2	c #FFF5B6",
"3	c #FEEF97",
"4	c #F3D65E",
"5	c #D5A216",
"6	c #FAE05C",
"7	c #FFED7C",
"8	c #FFEF8C",
"9	c #FFF092",
"0	c #FDEB7A",
"a	c #F4D750",
"b	c #D8A717",
"c	c #EAC01D",
"d	c #F6D83E",
"e	c #FAE255",
"f	c #FAE362",
"g	c #F9E161",
"h	c #F6DE5B",
"i	c #F1D145",
"j	c #E6BE28",
"k	c #D09B09",
"l	c #B67E00",
"m	c #CE9100",
"n	c #D69F04",
"o	c #E0B011",
"p	c #E6BA1D",
"q	c #E3B721",
"r	c #E0B21E",
"s	c #DCAB16",
"t	c #D7A20D",
"u	c #CC9303",
"v	c #BE8400",
"w	c #AC7500",
"x	c #A06B00",
"y	c #FFDD00",
"                ",
"       ..       ",
"      .+@.      ",
"     .#$%&.     ",
"    .*=-;>,.    ",
"    .')!~{].    ",
"   .^/(~_:<[.   ",
"   .}|121345.   ",
"   .678980ab.   ",
"  .cdefghijkl.  ",
" .mnopqrstuvwx. ",
" .............. ",
"      .8y.      ",
"       ..       ",
"                ",
"                "};
