/* XPM */
static char * configure_16_calendar_xpm[] = {
"16 16 57 1",
" 	c None",
".	c #000000",
"+	c #FFFFFF",
"@	c #EFEFEF",
"#	c #A8A8A8",
"$	c #C3C3C3",
"%	c #D4D4D4",
"&	c #939393",
"*	c #F5F5F5",
"=	c #EAEAEA",
"-	c #E05232",
";	c #DF4623",
">	c #E78B76",
",	c #868686",
"'	c #4A4A4A",
")	c #DF502F",
"!	c #E87F68",
"~	c #FDF6F4",
"{	c #A7A7A7",
"]	c #747474",
"^	c #CFCFCF",
"/	c #DF4B29",
"(	c #F1B2A3",
"_	c #E05231",
":	c #F3BFB4",
"<	c #EEEEEE",
"[	c #FAE8E4",
"}	c #F9DDD6",
"|	c #E87B62",
"1	c #8D8D8D",
"2	c #7B7B7B",
"3	c #9C9C9C",
"4	c #989898",
"5	c #707070",
"6	c #E2E2E2",
"7	c #E8E8E8",
"8	c #B4B4B4",
"9	c #E1E1E1",
"0	c #B0B0B0",
"a	c #DEDEDE",
"b	c #E0E0E0",
"c	c #F4F4F4",
"d	c #9D9D9D",
"e	c #979797",
"f	c #BDBDBD",
"g	c #A0A0A0",
"h	c #C1C1C1",
"i	c #DADADA",
"j	c #D9D9D9",
"k	c #CECECE",
"l	c #7C7C7C",
"m	c #EDEDED",
"n	c #9F9F9F",
"o	c #ECECEC",
"p	c #E6E6E6",
"q	c #E7E7E7",
"r	c #808080",
" ..  ..         ",
".+....@........ ",
".+....@.++++++#.",
".+@@@@$.++++%&*.",
" .=@@$.++-+;>,*.",
"  .+$.'#++)!~{*.",
"  .+@.]^+/(_:+*.",
"  .+$.#<+[+}|+<.",
"  .+@.12$3$4$56.",
" .7@$$.8++++++9.",
".^@@@@$.^+++0ab.",
".+....@.{+++c#b.",
".+.de.@.f+++ghi.",
" ..jk..da+++++b.",
"  .lm^#n<op96qr.",
"   ............ "};
