/* XPM */
static char * 16_configure_folder_xpm[] = {
"16 16 66 1",
" 	c None",
".	c #000000",
"+	c #FFFFFF",
"@	c #EFEFEF",
"#	c #C3C3C3",
"$	c #E4E5DF",
"%	c #D5D6CB",
"&	c #D6D7CA",
"*	c #F5F6F0",
"=	c #ADB198",
"-	c #C2C6A9",
";	c #C0C3A7",
">	c #B4B89D",
",	c #EAECDB",
"'	c #F6F6F4",
")	c #EAECDA",
"!	c #AAAB9E",
"~	c #E5E8D4",
"{	c #E4E7D2",
"]	c #C7C9B6",
"^	c #F7F7F7",
"/	c #DADEBF",
"(	c #DADEBE",
"_	c #D8DCBC",
":	c #D6DBB9",
"<	c #797D66",
"[	c #CDD2AD",
"}	c #CBD1AA",
"|	c #95997C",
"1	c #F3F3EA",
"2	c #70745E",
"3	c #A3A889",
"4	c #F3F4EA",
"5	c #D5D9B7",
"6	c #7F8369",
"7	c #ABB08E",
"8	c #929778",
"9	c #F1F3E9",
"0	c #D3D7B4",
"a	c #7C7F65",
"b	c #8F9474",
"c	c #F0F1E7",
"d	c #D1D6B2",
"e	c #CFD4AF",
"f	c #7A7D61",
"g	c #8D9270",
"h	c #EFF1E5",
"i	c #86896D",
"j	c #909273",
"k	c #707459",
"l	c #EBECDE",
"m	c #CACFA8",
"n	c #C8CDA5",
"o	c #B8BD97",
"p	c #848769",
"q	c #BFC598",
"r	c #60634C",
"s	c #989E79",
"t	c #C9CCB9",
"u	c #919576",
"v	c #848869",
"w	c #686B52",
"x	c #838768",
"y	c #595C46",
"z	c #797D60",
"A	c #666951",
"      ..  ..    ",
"     .+.  .@.   ",
"     .+....@.   ",
"   ...+@@@@#.   ",
"  .$%&.+@@#.    ",
" .*=-;>.+#..... ",
" .,',,).+@.!~{].",
" .^/(_:.+#.<[}|.",
" .1/(_:.+@.23}|.",
" .4_:5.+@##.678.",
" .950.+@@@@#.ab.",
" .cde.+....@.fg.",
" .h[}.+.ij.@.kg.",
" .lmno..pq..rsg.",
" .t8ubvwwgxyzgA.",
"  ............. "};
