/* XPM */
static char * 16_configure_addressbook_xpm[] = {
"16 16 58 1",
" 	c None",
".	c #000000",
"+	c #FFFFFF",
"@	c #EFEFEF",
"#	c #C3C3C3",
"$	c #EAEAEA",
"%	c #BDBDBD",
"&	c #CFCFCF",
"*	c #898989",
"=	c #A8A8A8",
"-	c #A3A3A3",
";	c #F8F8F8",
">	c #C9B49B",
",	c #8E7151",
"'	c #876E51",
")	c #BAB1A5",
"!	c #9D9D9D",
"~	c #EAE8E3",
"{	c #F3F3F3",
"]	c #A88D6E",
"^	c #DFD0BF",
"/	c #5E432B",
"(	c #7E6C5B",
"_	c #A6A6A6",
":	c #EEEEEE",
"<	c #EEDFCC",
"[	c #F4EEE6",
"}	c #765E45",
"|	c #736251",
"1	c #C1C1C1",
"2	c #B4B4B4",
"3	c #FAFAFA",
"4	c #7590AE",
"5	c #C1665A",
"6	c #445B71",
"7	c #AEADAB",
"8	c #E8E8E8",
"9	c #4B6983",
"0	c #9DB8D2",
"a	c #486481",
"b	c #314E6C",
"c	c #BDBCB8",
"d	c #5F7C96",
"e	c #5D7A95",
"f	c #4D6B87",
"g	c #3B556D",
"h	c #999794",
"i	c #ADABA8",
"j	c #5D5D5D",
"k	c #9B9B9B",
"l	c #DEDEDE",
"m	c #C3C0BA",
"n	c #DAD8D3",
"o	c #B1AFAB",
"p	c #CBC9C5",
"q	c #A5A3A0",
"r	c #96948F",
"s	c #918E85",
"       ..  ..   ",
"      .+.  .@.  ",
"      .+....@.  ",
"      .+@@@@#.  ",
" .......$@@#... ",
".%+++++&.+#.*=-.",
".+;>,')+.+@.!&~.",
".+{]^/(+.+#._:~.",
".+{<[}|1.+@.2&~.",
".+34567.8@##.2~.",
".+90ab.&@@@@#.c.",
".+defg.+....@.h.",
".+++++.+.!2.@.i.",
".++j+j+..kl..!m.",
".-~~~~~noc~pqrs.",
" .............. "};
