/* XPM */
static char * connect_to_url_16_xpm[] = {
"16 16 104 2",
"  	c None",
". 	c #000000",
"+ 	c #070808",
"@ 	c #677B68",
"# 	c #BECFC5",
"$ 	c #B4C3C6",
"% 	c #8AA0B6",
"& 	c #95A1AC",
"* 	c #AFB8B8",
"= 	c #989D98",
"- 	c #373737",
"; 	c #AFC1B1",
"> 	c #E0E7DE",
", 	c #BACFC6",
"' 	c #96AFC0",
") 	c #728BA4",
"! 	c #889BA4",
"~ 	c #829176",
"{ 	c #879A81",
"] 	c #AAA89A",
"^ 	c #585A5B",
"/ 	c #1D1D1D",
"( 	c #748E79",
"_ 	c #DEEADF",
": 	c #B1D9B3",
"< 	c #AAD8B5",
"[ 	c #79B7A5",
"} 	c #7A9AB5",
"| 	c #839DA3",
"1 	c #74876C",
"2 	c #7E8471",
"3 	c #82755A",
"4 	c #8F7F66",
"5 	c #2D2E2D",
"6 	c #CAD7CB",
"7 	c #BCD9C2",
"8 	c #96C69D",
"9 	c #4D8550",
"0 	c #597FA7",
"a 	c #418093",
"b 	c #637E61",
"c 	c #73755B",
"d 	c #86765A",
"e 	c #949290",
"f 	c #CDDACD",
"g 	c #518355",
"h 	c #989389",
"i 	c #807D74",
"j 	c #3B7480",
"k 	c #449268",
"l 	c #819395",
"m 	c #797E67",
"n 	c #9D907D",
"o 	c #73816F",
"p 	c #43423C",
"q 	c #B7B3AA",
"r 	c #C4C2BD",
"s 	c #EAE8E3",
"t 	c #4D5C5E",
"u 	c #887664",
"v 	c #000001",
"w 	c #010101",
"x 	c #E2E1DD",
"y 	c #F0EFEC",
"z 	c #AAA7A0",
"A 	c #C5D2C8",
"B 	c #E9EEEA",
"C 	c #8B8572",
"D 	c #476346",
"E 	c #889079",
"F 	c #F2F0ED",
"G 	c #EBEAE6",
"H 	c #8A857B",
"I 	c #ECEBE8",
"J 	c #4D6C8B",
"K 	c #4B6963",
"L 	c #53885E",
"M 	c #6E7653",
"N 	c #747F6C",
"O 	c #0C0B0A",
"P 	c #78756B",
"Q 	c #BEBBB5",
"R 	c #B3B1AA",
"S 	c #7D786E",
"T 	c #E1DFDB",
"U 	c #46698F",
"V 	c #598860",
"W 	c #617853",
"X 	c #818667",
"Y 	c #030506",
"Z 	c #8C8981",
"` 	c #A6A29B",
" .	c #726D63",
"..	c #CECAC3",
"+.	c #3D5143",
"@.	c #020203",
"#.	c #0F0F0D",
"$.	c #F0F3F1",
"%.	c #272622",
"&.	c #8B877E",
"*.	c #706C62",
"=.	c #B1ADA4",
"-.	c #6C685E",
";.	c #646056",
"          . . . + . . . .       ",
"        . @ # $ % & * = - .     ",
"      . ; > , ' ) ! ~ { ] ^ /   ",
"    . ( _ : < [ } | 1 2 3 4 5 . ",
"    . 6 7 8 9 . . 0 a b c d e . ",
"    . f g . . h i . j k l m n . ",
"    . o p q r s i . . . . t u v ",
"    w . x y z s i . A A B . C v ",
". . . i x y z s i . . . . D E v ",
"s s s s F G H I i . J K L M N O ",
"i i P P Q R S T P . U V W X Y   ",
". . w P Z `  ...P . . . . +.@.  ",
"      #.Z `  ...P . A A $..     ",
"        %.&.*.=.-.. . . .       ",
"          #.#.h ;..             ",
"              #.#.              "};
