/* XPM */
static char * delete_message_xpm[] = {
"16 16 142 2",
"  	c None",
". 	c #0E0E0E",
"+ 	c #424242",
"@ 	c #4A4A4A",
"# 	c #3E3E3E",
"$ 	c #2C2C2C",
"% 	c #000000",
"& 	c #858371",
"* 	c #F0EDD8",
"= 	c #F2F1E9",
"- 	c #EEEDE4",
"; 	c #C7C6BA",
"> 	c #535246",
", 	c #101010",
"' 	c #C2C0A5",
") 	c #C1BFA5",
"! 	c #7A7967",
"~ 	c #484740",
"{ 	c #272725",
"] 	c #36352E",
"^ 	c #878572",
"/ 	c #A09E88",
"( 	c #A3A18A",
"_ 	c #A5A38C",
": 	c #2B2B2B",
"< 	c #D3D1BC",
"[ 	c #DCDAC4",
"} 	c #E2E0CF",
"| 	c #B9B7A2",
"1 	c #64625B",
"2 	c #393836",
"3 	c #3C3C33",
"4 	c #616053",
"5 	c #9A9883",
"6 	c #B7B59B",
"7 	c #B3B298",
"8 	c #A4A28B",
"9 	c #E7E3D0",
"0 	c #F1EDE2",
"a 	c #F2F1E4",
"b 	c #EAE9DA",
"c 	c #E5E2D2",
"d 	c #D5D2BE",
"e 	c #C3C1A7",
"f 	c #AFAD94",
"g 	c #C0BEA4",
"h 	c #C6C4AC",
"i 	c #B8B69C",
"j 	c #888673",
"k 	c #9C9A84",
"l 	c #EFEBCB",
"m 	c #FAF6E3",
"n 	c #F9F5ED",
"o 	c #F8F7EE",
"p 	c #F8F7EC",
"q 	c #F5F3E6",
"r 	c #ECEAD9",
"s 	c #DEDDCB",
"t 	c #B1AF9A",
"u 	c #706F5F",
"v 	c #5D5C4F",
"w 	c #828072",
"x 	c #B3B1A3",
"y 	c #E4E1C8",
"z 	c #E9E5CF",
"A 	c #E9E6C9",
"B 	c #D3D1B3",
"C 	c #92917C",
"D 	c #8F8D79",
"E 	c #868572",
"F 	c #636254",
"G 	c #4D4C41",
"H 	c #1F1F1B",
"I 	c #55554E",
"J 	c #8B8980",
"K 	c #8E8D86",
"L 	c #99988C",
"M 	c #8D8C83",
"N 	c #95937E",
"O 	c #81806D",
"P 	c #5F5F51",
"Q 	c #393833",
"R 	c #34332C",
"S 	c #1F1E19",
"T 	c #2A2A23",
"U 	c #666654",
"V 	c #575748",
"W 	c #58584E",
"X 	c #4F4F47",
"Y 	c #595951",
"Z 	c #272721",
"` 	c #262620",
" .	c #2F2F27",
"..	c #47473B",
"+.	c #3B3B31",
"@.	c #24241F",
"#.	c #2B2B24",
"$.	c #696856",
"%.	c #7E7D6E",
"&.	c #717067",
"*.	c #7E7E68",
"=.	c #747363",
"-.	c #404035",
";.	c #565647",
">.	c #39392F",
",.	c #4A4A3D",
"'.	c #3F3F34",
").	c #2C2C25",
"!.	c #6C6C5A",
"~.	c #9C9B8A",
"{.	c #8B8B7F",
"].	c #9E9D8B",
"^.	c #88887B",
"/.	c #58574F",
"(.	c #60604F",
"_.	c #5C5C4C",
":.	c #505042",
"<.	c #292922",
"[.	c #6D6C5A",
"}.	c #9E9E8B",
"|.	c #8F8E81",
"1.	c #B5B5A0",
"2.	c #ACAB99",
"3.	c #5D5D52",
"4.	c #747460",
"5.	c #4D4D40",
"6.	c #5D5D4D",
"7.	c #6C6C59",
"8.	c #999986",
"9.	c #8D8D80",
"0.	c #4F4F41",
"a.	c #282822",
"b.	c #656553",
"c.	c #0A0A0A",
"d.	c #212121",
"e.	c #5D5C54",
"f.	c #8C8C74",
"g.	c #949482",
"h.	c #4D4C43",
"i.	c #060606",
"j.	c #0F0F0F",
"k.	c #050505",
"          . + @ # $ %           ",
"      % % & * = - ; > % %       ",
"    , ' ) ! ~ { ] ^ / ( _ %     ",
"  : < [ } | 1 2 3 4 5 6 7 8 %   ",
"  % 9 0 a b c d e f g h i j %   ",
"  % k l m n o p q r s t u u %   ",
"  % v w x y z A B C D E F G %   ",
"    H I J K L M N O P Q R S     ",
"    T U V W X Y Z `  ...+.@.    ",
"    #.$.%.&.*.=.-.;.>.,.'.`     ",
"    ).!.~.{.].^./.(.,._.:.<.    ",
"    ).[.}.|.1.2.3.4.5.6.:.<.    ",
"    #.7.8.9.1.2.3.4.5.6.0.a.    ",
"    Z b.}.9.1.2.3.4.5.6.5.Z     ",
"      c.d.e.f.g.h.U -.% %       ",
"          i.% j.k.% %           "};
