/* XPM */
static char * delete_message_xpm[] = {
"16 16 60 1",
" 	c None",
".	c #000000",
"+	c #252525",
"@	c #A8BA9E",
"#	c #B4C1AB",
"$	c #909F86",
"%	c #484E43",
"&	c #A0AD94",
"*	c #9EAB91",
"=	c #94A08D",
"-	c #BFCCB7",
";	c #A7B69B",
">	c #BEC9B5",
",	c #353931",
"'	c #242622",
")	c #9BAA8F",
"!	c #9AA78E",
"~	c #7C8672",
"{	c #7C9674",
"]	c #B0C0AB",
"^	c #CED6C8",
"/	c #DAE1D6",
"(	c #98A58C",
"_	c #5B6B57",
":	c #637354",
"<	c #748C6B",
"[	c #94AA8D",
"}	c #8FA58A",
"|	c #6F8668",
"1	c #667961",
"2	c #5D6E58",
"3	c #4D5A4B",
"4	c #485245",
"5	c #738B6E",
"6	c #687B63",
"7	c #576452",
"8	c #495345",
"9	c #4F5B4B",
"0	c #3F453D",
"a	c #586953",
"b	c #C3CEBF",
"c	c #556550",
"d	c #879B83",
"e	c #424D40",
"f	c #84967F",
"g	c #414A3D",
"h	c #84957F",
"i	c #84957E",
"j	c #809A78",
"k	c #AEBDA9",
"l	c #879B81",
"m	c #83957E",
"n	c #4A5846",
"o	c #677A61",
"p	c #7D9775",
"q	c #7A9472",
"r	c #728A6B",
"s	c #5E7058",
"t	c #6D8267",
"u	c #697D64",
"                ",
"                ",
"     ......     ",
"   +.@#$%&*..   ",
"  .=-;>,'*)!~.  ",
"  .{]^/*)!({_.  ",
"  .:<[}{|1234.  ",
"   .+567890+.   ",
"   .a++++++6.   ",
"   .abcdefg6.   ",
"   .abcdehg6.   ",
"   .abcdeig6.   ",
"   .jkclemno.   ",
"    .pqrstu.    ",
"     ......     ",
"                "};
