/* XPM */
static char *magick[] = {
/* columns rows colors chars-per-pixel */
"16 16 142 2",
"   c black",
".  c gray2",
"X  c #0606060606060000",
"o  c gray4",
"O  c #0e0e0e0e0e0e0000",
"+  c gray6",
"@  c #1010101010100000",
"#  c #1f1f1e1e19190000",
"$  c #1f1f1f1f1b1b0000",
"%  c #242424241f1f0000",
"&  c gray13",
"*  c #2626262620200000",
"=  c #2727272721210000",
"-  c #2727272725250000",
";  c #2828282822220000",
":  c #2929292922220000",
">  c #2a2a2a2a23230000",
",  c #2b2b2b2b24240000",
"<  c #2c2c2c2c25250000",
"1  c #2f2f2f2f27270000",
"2  c gray17",
"3  c #2c2c2c2c2c2c0000",
"4  c #343433332c2c0000",
"5  c #363635352e2e0000",
"6  c #393939392f2f0000",
"7  c #3939383833330000",
"8  c #3b3b3b3b31310000",
"9  c #3939383836360000",
"0  c #3c3c3c3c33330000",
"q  c #3f3f3f3f34340000",
"w  c #3e3e3e3e3e3e0000",
"e  c #4040404035350000",
"r  c #474747473b3b0000",
"t  c #4a4a4a4a3d3d0000",
"y  c gray26",
"u  c #4848474740400000",
"i  c #4d4d4c4c41410000",
"p  c #4d4d4d4d40400000",
"a  c #4d4d4c4c43430000",
"s  c #4f4f4f4f41410000",
"d  c #4f4f4f4f47470000",
"f  c gray29",
"g  c #5050505042420000",
"h  c #5353525246460000",
"j  c #5656565647470000",
"k  c #5757575748480000",
"l  c #555555554e4e0000",
"z  c #585857574f4f0000",
"x  c #585858584e4e0000",
"c  c #5c5c5c5c4c4c0000",
"v  c #5d5d5d5d4d4d0000",
"b  c #5d5d5c5c4f4f0000",
"n  c #5959595951510000",
"m  c #5d5d5d5d52520000",
"M  c #5f5f5f5f51510000",
"N  c #5d5d5c5c54540000",
"B  c #606060604f4f0000",
"V  c #6161606053530000",
"C  c #6363626254540000",
"Z  c #6565656553530000",
"A  c #6666666654540000",
"S  c #646462625b5b0000",
"D  c #6969686856560000",
"F  c #6c6c6c6c59590000",
"G  c #6c6c6c6c5a5a0000",
"H  c #6d6d6c6c5a5a0000",
"J  c #70706f6f5f5f0000",
"K  c #7171707067670000",
"L  c #7474737363630000",
"P  c #7474747460600000",
"I  c #7a7a797967670000",
"U  c #7e7e7e7e68680000",
"Y  c #7e7e7d7d6e6e0000",
"T  c #818180806d6d0000",
"R  c #8282808072720000",
"E  c #8585838371710000",
"W  c #8686858572720000",
"Q  c #8787858572720000",
"!  c #8888868673730000",
"~  c #8c8c8c8c74740000",
"^  c #888888887b7b0000",
"/  c #8b8b8b8b7f7f0000",
"(  c #8f8f8d8d79790000",
")  c #929291917c7c0000",
"_  c #959593937e7e0000",
"`  c #8b8b898980800000",
"'  c #8d8d8d8d80800000",
"]  c #8d8d8c8c83830000",
"[  c #8f8f8e8e81810000",
"{  c #8e8e8d8d86860000",
"}  c #9494949482820000",
"|  c #9a9a989883830000",
" . c #9999999986860000",
".. c #9c9c9a9a84840000",
"X. c #999998988c8c0000",
"o. c #9c9c9b9b8a8a0000",
"O. c #9e9e9d9d8b8b0000",
"+. c #9e9e9e9e8b8b0000",
"@. c #a0a09e9e88880000",
"#. c #a3a3a1a18a8a0000",
"$. c #a4a4a2a28b8b0000",
"%. c #a5a5a3a38c8c0000",
"&. c #afafadad94940000",
"*. c #acacabab99990000",
"=. c #b1b1afaf9a9a0000",
"-. c #b3b3b2b298980000",
";. c #b7b7b5b59b9b0000",
":. c #b8b8b6b69c9c0000",
">. c #b3b3b1b1a3a30000",
",. c #b5b5b5b5a0a00000",
"<. c #b9b9b7b7a2a20000",
"1. c #c0c0bebea4a40000",
"2. c #c1c1bfbfa5a50000",
"3. c #c2c2c0c0a5a50000",
"4. c #c3c3c1c1a7a70000",
"5. c #c6c6c4c4acac0000",
"6. c #c7c7c6c6baba0000",
"7. c #d3d3d1d1b3b30000",
"8. c #d3d3d1d1bcbc0000",
"9. c #d5d5d2d2bebe0000",
"0. c #dcdcdadac4c40000",
"q. c #dededdddcbcb0000",
"w. c #e2e2e0e0cfcf0000",
"e. c #e4e4e1e1c8c80000",
"r. c #e9e9e6e6c9c90000",
"t. c #e9e9e5e5cfcf0000",
"y. c #efefebebcbcb0000",
"u. c #e5e5e2e2d2d20000",
"i. c #e7e7e3e3d0d00000",
"p. c #eaeae9e9dada0000",
"a. c #ececeaead9d90000",
"s. c #f0f0ededd8d80000",
"d. c #eeeeedede4e40000",
"f. c #f1f1edede2e20000",
"g. c #f2f2f1f1e4e40000",
"h. c #f5f5f3f3e6e60000",
"j. c #f2f2f1f1e9e90000",
"k. c #fafaf6f6e3e30000",
"l. c #f9f9f5f5eded0000",
"z. c #f8f8f7f7ecec0000",
"x. c #f8f8f7f7eeee0000",
"c. c None",
/* pixels */
"c.c.c.c.c.O y f w 3   c.c.c.c.c.",
"c.c.c.    E s.j.d.6.h     c.c.c.",
"c.c.@ 3.2.I u - 5 Q @.#.%.  c.c.",
"c.2 8.0.w.<.S 9 0 V | ;.-.$.  c.",
"c.  i.f.g.p.i.9.3.&.2.5.:.!   c.",
"c.  ..y.k.l.l.l.h.a.q.=.J J   c.",
"c.  b R >.e.t.r.7.) ( Q C i   c.",
"c.c.$ l ` { X.] _ T M 7 4 $ c.c.",
"c.c.: A k x d n = = 1 r 7 % c.c.",
"c.c., D Y K U L e j 6 t q = c.c.",
"c.c.1 H o./ +.^ z v t b g : c.c.",
"c.c.1 H +.] :.*.M P i b g : c.c.",
"c.c., H  .] :.*.M P i b i : c.c.",
"c.c.= Z +.] :.*.M P i b i = c.c.",
"c.c.c.o & N ~ } i A e     c.c.c.",
"c.c.c.c.c..   O .     c.c.c.c.c."
};
