/* XPM */
static char * 16_edit_xpm[] = {
"16 16 65 1",
" 	c None",
".	c #000000",
"+	c #FDFDFD",
"@	c #E2E2E2",
"#	c #BAA88F",
"$	c #836B4E",
"%	c #FEFEFE",
"&	c #FCFCFC",
"*	c #FBFBFB",
"=	c #E5E5E5",
"-	c #C5A985",
";	c #DC9E55",
">	c #9E6233",
",	c #FFFFFF",
"'	c #F2F2F2",
")	c #D9D9D9",
"!	c #E4E4E4",
"~	c #C3A783",
"{	c #DD9D53",
"]	c #A76631",
"^	c #EEEEEE",
"/	c #D4D4D4",
"(	c #FAFAFA",
"_	c #7B7B7B",
":	c #C5AA88",
"<	c #A86631",
"[	c #DCDCDC",
"}	c #F0F0F0",
"|	c #5E5E5E",
"1	c #C3A47A",
"2	c #DD9D52",
"3	c #A66430",
"4	c #D5D5D5",
"5	c #6A6A6A",
"6	c #C2A174",
"7	c #DC9B4E",
"8	c #A96630",
"9	c #6E6E6E",
"0	c #D8D8D8",
"a	c #D6D6D6",
"b	c #9F9F9F",
"c	c #BEA686",
"d	c #DD9D51",
"e	c #AA682F",
"f	c #F5F5F5",
"g	c #DDDDDD",
"h	c #F9F9F9",
"i	c #7A7A7A",
"j	c #BCAC9B",
"k	c #A86E3F",
"l	c #797979",
"m	c #F4F4F4",
"n	c #F3F3F3",
"o	c #DFDFDF",
"p	c #7C7C7C",
"q	c #4F4F4F",
"r	c #6C6C6C",
"s	c #EAEAEA",
"t	c #F8F8F8",
"u	c #F6F6F6",
"v	c #F7F7F7",
"w	c #EBEBEB",
"x	c #ECECEC",
"y	c #E0E0E0",
"z	c #E8E8E8",
"       ..    .. ",
"     ..+@.  .#$.",
"   ..%+&*=..-;>.",
" ..,%+')*!.~{]. ",
".,%%^/)*(_:{<.  ",
".%%)[**}|123.   ",
" .+'*}456789.   ",
" .&*0abcde.fg.  ",
"  .((hijklfmno. ",
"  .(hpq.rfmnsg. ",
"   .tilufm^oo.  ",
"   .vuufwoo..   ",
"    .uxyo..     ",
"    .zg..       ",
"     ..         ",
"                "};
