/* XPM */
static char * edit_16_xpm[] = {
"16 16 40 1",
" 	c None",
".	c #000000",
"+	c #FDFDFD",
"@	c #FBFBFB",
"#	c #FCFCFC",
"$	c #FEFEFE",
"%	c #9E9E9E",
"&	c #D2D2D2",
"*	c #FFFFFF",
"=	c #F0F0F0",
"-	c #D8D8D2",
";	c #D3CDA4",
">	c #B5ABA3",
",	c #ABC8D8",
"'	c #FBFAF8",
")	c #F6F6EF",
"!	c #E7E7E7",
"~	c #DFDFDF",
"{	c #F5F5F5",
"]	c #BAB8A9",
"^	c #C5BC91",
"/	c #685143",
"(	c #5B7CA2",
"_	c #DAD699",
":	c #E2E2DF",
"<	c #A5A5A3",
"[	c #777777",
"}	c #C3C3C3",
"|	c #727063",
"1	c #AFA27D",
"2	c #4A2E1D",
"3	c #20314B",
"4	c #9B9352",
"5	c #BFBFBF",
"6	c #8B8B8B",
"7	c #E0E0E0",
"8	c #FAFAFA",
"9	c #F9F9F9",
"0	c #DDDDDD",
"a	c #E8E8E8",
"       ..       ",
"      .++..     ",
"      .@#+$..   ",
" .........%&*.. ",
".=-;>,,,')..&!~.",
".{]^/(((_:<..[~.",
".}|1233344..5~. ",
" .........6&@~. ",
"   .+{77$$$8~.  ",
"  .+$$$$77$9~.  ",
"  .~~$$$$$$~.   ",
"   ..~~$$$$~.   ",
"     ..~7$+.    ",
"       ..0a.    ",
"         ..     ",
"                "};
