/* XPM */
static char * 16_encrypt_xpm[] = {
"16 16 61 1",
" 	c None",
".	c #000000",
"+	c #FDFDFD",
"@	c #808080",
"#	c #FEFEFE",
"$	c #8F8F8F",
"%	c #313131",
"&	c #CDB86D",
"*	c #EED680",
"=	c #FFFFFF",
"-	c #F2F2F2",
";	c #343434",
">	c #EEEEEE",
",	c #D4D4D4",
"'	c #D9D9D9",
")	c #3D3D3D",
"!	c #8D8D8D",
"~	c #DCDCDC",
"{	c #FBFBFB",
"]	c #B2B2B2",
"^	c #3A3A3A",
"/	c #A9A9A9",
"(	c #F0F0F0",
"_	c #444444",
":	c #E4E9F1",
"<	c #B3C5D7",
"[	c #AABDCE",
"}	c #A2B4C5",
"|	c #99ABBD",
"1	c #8FA3B4",
"2	c #3C5469",
"3	c #FCFCFC",
"4	c #D8D8D8",
"5	c #D6D6D6",
"6	c #6A6A6A",
"7	c #BDCEE0",
"8	c #8FAAC4",
"9	c #819DB7",
"0	c #7490AA",
"a	c #66839D",
"b	c #587690",
"c	c #314456",
"d	c #FAFAFA",
"e	c #F9F9F9",
"f	c #676767",
"g	c #DFDFDF",
"h	c #5F5F5F",
"i	c #F8F8F8",
"j	c #F7F7F7",
"k	c #696969",
"l	c #92A1B0",
"m	c #5E7081",
"n	c #556879",
"o	c #4C5F70",
"p	c #435668",
"q	c #394E5F",
"r	c #23313E",
"s	c #F6F6F6",
"t	c #7E7E7E",
"u	c #E8E8E8",
"v	c #DDDDDD",
"                ",
"        ..      ",
"      ..+@...   ",
"    ..#+$%&*&.  ",
"  ..=#+-;&@. &. ",
" .=##>,')*!. *. ",
" .##'~{]^&!/.&..",
"  .+-{(_:<[}|12.",
"  .3{4567890abc.",
"   .ddef7890abc.",
"   .degh7890abc.",
"    .ijklmnopqr.",
"    .jsghkkt....",
"     .sssg..    ",
"     .uv..      ",
"      ..        "};
