/* XPM */
static char * filters_xpm[] = {
"16 16 52 1",
" 	c None",
".	c #000000",
"+	c #D1BB70",
"@	c #DEC777",
"#	c #EBD37E",
"$	c #D7C173",
"%	c #E2CB79",
"&	c #EAD27D",
"*	c #DFC877",
"=	c #DBC575",
"-	c #E3CC7A",
";	c #E9D17D",
">	c #E0CA78",
",	c #CEB96E",
"'	c #D4BF72",
")	c #C4B169",
"!	c #ECD47E",
"~	c #D6C173",
"{	c #C7B36B",
"]	c #E1CB79",
"^	c #E5CE7B",
"/	c #E4CD7A",
"(	c #C4B069",
"_	c #EDD57F",
":	c #BDAA65",
"<	c #E9E9E9",
"[	c #F8F8F8",
"}	c #FEFEFE",
"|	c #CAB66C",
"1	c #B6A361",
"2	c #E2B3A7",
"3	c #EEBEB3",
"4	c #FFFFFF",
"5	c #FDFDFD",
"6	c #F6F6F6",
"7	c #E2C9C2",
"8	c #F3F3F3",
"9	c #F3C3B8",
"0	c #F1C1B6",
"a	c #F5F5F5",
"b	c #BCA965",
"c	c #E5E5E5",
"d	c #F1F1F1",
"e	c #F2CDC5",
"f	c #F4F4F4",
"g	c #EBEBEB",
"h	c #DDDDDD",
"i	c #FBFBFB",
"j	c #EDEDED",
"k	c #E2E2E2",
"l	c #EFEFEF",
"m	c #E6E6E6",
"                ",
"                ",
"           ...  ",
"          .+@#. ",
"         .$%#&*.",
"        .=-&;>,.",
"       .=-&&%').",
"      .@-&!-~{. ",
"     .]^#!/'(.  ",
"    .%^#_%+:.   ",
"   .<[}_-|1.    ",
"  .23456,1.     ",
" .7890a<b.      ",
" cd5efgh.       ",
"   i8jk.        ",
"    lm.         "};
