/* XPM */
static char * find_message_xpm[] = {
"24 24 103 2",
"  	c None",
". 	c #000000",
"+ 	c #E9E9E9",
"@ 	c #E2E2E2",
"# 	c #D7D7D7",
"$ 	c #FDFDFD",
"% 	c #FCFCFC",
"& 	c #FBFBFB",
"* 	c #D8D8D8",
"= 	c #FEFEFE",
"- 	c #E4E4E4",
"; 	c #BABABA",
"> 	c #E0E0E0",
", 	c #FAFAFA",
"' 	c #F9F9F9",
") 	c #EAEAEA",
"! 	c #F8F8F8",
"~ 	c #CECECE",
"{ 	c #BDBDBD",
"] 	c #E6E6E6",
"^ 	c #E7E7E7",
"/ 	c #FFFFFF",
"( 	c #C2C2C2",
"_ 	c #E5E5E5",
": 	c #47473F",
"< 	c #0A0A09",
"[ 	c #4B4B43",
"} 	c #8E8E8E",
"| 	c #AFAFAF",
"1 	c #34342E",
"2 	c #9D9D8D",
"3 	c #CFCFB9",
"4 	c #C4C4AF",
"5 	c #8D8D7F",
"6 	c #353530",
"7 	c #848484",
"8 	c #BFBFBF",
"9 	c #F7F7F7",
"0 	c #F5F5F5",
"a 	c #46463F",
"b 	c #9C9C8C",
"c 	c #E2E2D0",
"d 	c #EDEDE7",
"e 	c #C0C0AC",
"f 	c #B2B29F",
"g 	c #828274",
"h 	c #45453D",
"i 	c #A7A7A7",
"j 	c #D2D2D2",
"k 	c #D5D5D5",
"l 	c #090908",
"m 	c #D5D5BF",
"n 	c #FBFBFA",
"o 	c #C3C3AE",
"p 	c #B5B5A2",
"q 	c #A6A695",
"r 	c #959586",
"s 	c #080807",
"t 	c #979797",
"u 	c #F4F4F4",
"v 	c #090909",
"w 	c #CACAB5",
"x 	c #DDDDD0",
"y 	c #B7B7A4",
"z 	c #AAAA98",
"A 	c #9B9B8B",
"B 	c #8C8C7D",
"C 	c #929292",
"D 	c #CBCBCB",
"E 	c #D3D3D3",
"F 	c #474740",
"G 	c #929283",
"H 	c #BABAA7",
"I 	c #ADAD9B",
"J 	c #9F9F8E",
"K 	c #909081",
"L 	c #727266",
"M 	c #4C4C45",
"N 	c #A6A6A6",
"O 	c #DFDFDF",
"P 	c #34342F",
"Q 	c #878779",
"R 	c #A0A090",
"S 	c #737367",
"T 	c #010101",
"U 	c #919191",
"V 	c #C1C1C1",
"W 	c #D1D1D1",
"X 	c #414141",
"Y 	c #4B4B4B",
"Z 	c #131313",
"` 	c #646464",
" .	c #8B8B8B",
"..	c #AEAEAE",
"+.	c #5E5E5E",
"@.	c #6E6E6E",
"#.	c #575757",
"$.	c #595959",
"%.	c #585858",
"&.	c #C4C4C4",
"*.	c #DDDDDD",
"=.	c #797979",
"-.	c #2F2F2F",
"                                                ",
"                                                ",
"                      . .                       ",
"                  . . + @ .                     ",
"              . . # $ % & .                     ",
"          . . * = = = = & - .                   ",
"        . ; = = = = > > , ' .   . .             ",
"        . ) = = > > = = = ! . . + @ .           ",
"          . $ = = = = ~ . . # $ % & .           ",
"          . % & = { . . * = = = = & - .         ",
"        . . . , ] . * ^ ^ ^ = > > , ' .         ",
"      . / = . ( _ : < < [ } | ^ = = ! - .       ",
"      . # = = . 1 2 3 4 5 6 7 8 > > 9 0 .       ",
"        . $ = a b c d e f g h i j = = 0 - .     ",
"        . k & l m n o p q r s t j > > 0 u .     ",
"          . , v w x y z A B < C D = = = = - .   ",
"          . E F G H I J K L M N j = = = O O .   ",
"            . ! P Q R G S T T U V ^ O O . .     ",
"            . W = [ < < X Y Z `  .... .         ",
"              . = = > O +.@.#.T $.%.            ",
"              . &.*.. .     =.. T -.            ",
"                . .             T T T           ",
"                                  T T           ",
"                                                "};
