/* XPM */
static char * flag_for_followup_xpm[] = {
"16 16 59 1",
" 	c None",
".	c #000000",
"+	c #33282B",
"@	c #DFC0CA",
"#	c #A89199",
"$	c #7B686E",
"%	c #4B323A",
"&	c #47363B",
"*	c #D0ADB8",
"=	c #EAD9DF",
"-	c #E4C4CD",
";	c #976E7B",
">	c #6B4C56",
",	c #5B3F47",
"'	c #523F44",
")	c #CAA9B4",
"!	c #DEC6CD",
"~	c #EFE3E7",
"{	c #DFBFC9",
"]	c #9C737F",
"^	c #70515B",
"/	c #5E4149",
"(	c #6F565D",
"_	c #4E4145",
":	c #B796A1",
"<	c #955D6E",
"[	c #A0697B",
"}	c #D1B4BD",
"|	c #E8D7DD",
"1	c #E6CFD6",
"2	c #D19CAD",
"3	c #60444D",
"4	c #64454F",
"5	c #5B454C",
"6	c #392F33",
"7	c #BFB093",
"8	c #824A5C",
"9	c #8F5768",
"0	c #9A6375",
"a	c #CFB2BB",
"b	c #E4D2D7",
"c	c #ECDCE0",
"d	c #D0A3B1",
"e	c #AA969C",
"f	c #7F7476",
"g	c #807176",
"h	c #735F65",
"i	c #B29168",
"j	c #885062",
"k	c #CCAEB7",
"l	c #CEAFB8",
"m	c #EADBE0",
"n	c #A77D8A",
"o	c #D2BAC2",
"p	c #0D0D0D",
"q	c #E4D7DB",
"r	c #030303",
"s	c #A99DA1",
"t	c #120B0D",
"       .        ",
"    ...+.       ",
"   .@#$%&.      ",
"  .*=-;>,'..    ",
"  .)!~{]^/(_..  ",
" .:<[}|12;3456. ",
".7.890abcdefgh. ",
" .i.8j<klm....  ",
"  .i.88nop      ",
"   .i.88qr      ",
"    .i.8s.      ",
"     .i.t       ",
"      .i.       ",
"       .i.      ",
"        .i.     ",
"         ..     "};
