/* XPM */
static char * folder_xpm[] = {
"16 16 54 1",
" 	c None",
".	c #000000",
"+	c #E4E5DF",
"@	c #D5D6CB",
"#	c #D6D7CA",
"$	c #A3A39D",
"%	c #F5F6F0",
"&	c #ADB198",
"*	c #C2C6A9",
"=	c #C0C3A7",
"-	c #B4B89D",
";	c #6D705F",
">	c #EAECDB",
",	c #F6F6F4",
"'	c #EAECDA",
")	c #E8EAD8",
"!	c #E9EBDB",
"~	c #E7E9D6",
"{	c #E6E8D5",
"]	c #E5E8D4",
"^	c #E4E7D2",
"/	c #C7C9B6",
"(	c #F7F7F7",
"_	c #DADEBF",
":	c #DADEBE",
"<	c #D8DCBC",
"[	c #D6DBB9",
"}	c #D5D9B7",
"|	c #D3D7B4",
"1	c #D1D6B2",
"2	c #CFD4AF",
"3	c #CDD2AD",
"4	c #CBD1AA",
"5	c #95997C",
"6	c #F3F3EA",
"7	c #F3F4EA",
"8	c #CACFA8",
"9	c #C8CDA5",
"0	c #929778",
"a	c #F1F3E9",
"b	c #C6CCA3",
"c	c #C4CAA0",
"d	c #8F9474",
"e	c #F0F1E7",
"f	c #C2C89D",
"g	c #C1C79B",
"h	c #8D9270",
"i	c #EFF1E5",
"j	c #BFC598",
"k	c #EBECDE",
"l	c #C9CCB9",
"m	c #919576",
"n	c #8F9372",
"o	c #666951",
"                ",
"                ",
"   ....         ",
"  .+@#$.        ",
" .%&*=-;....... ",
" .>,>>')!~~{]^/.",
" .(_:<[}|112345.",
" .6_:<[}|112345.",
" .7<[}|12334890.",
" .a}|1234889bcd.",
" .e123489bbcfgh.",
" .i3489bcffgjjh.",
" .k89bcfgjjjjjh.",
" .l0mdnhhhhhhho.",
"  ............. ",
"                "};
