/* XPM */
static char * forget_passwords_xpm[] = {
"16 16 106 2",
"  	c None",
". 	c #010101",
"+ 	c #C0B09D",
"@ 	c #FEC6BC",
"# 	c #FFCDB4",
"$ 	c #C2A887",
"% 	c #DCB9A8",
"& 	c #AF843A",
"* 	c #755C5C",
"= 	c #655E37",
"- 	c #DBBCAE",
"; 	c #FFC4B8",
"> 	c #FFCDBC",
", 	c #DDBCA3",
"' 	c #DBBEB5",
") 	c #B9933A",
"! 	c #D3AF84",
"~ 	c #BE933A",
"{ 	c #CDA86F",
"] 	c #A3753F",
"^ 	c #554F2E",
"/ 	c #FFC5A3",
"( 	c #FFFFE3",
"_ 	c #D4B584",
": 	c #DCBEB5",
"< 	c #CDAE95",
"[ 	c #E6BAA8",
"} 	c #BDA897",
"| 	c #CCA871",
"1 	c #B9841D",
"2 	c #CCAF95",
"3 	c #A8753F",
"4 	c #C4B29C",
"5 	c #E3B89E",
"6 	c #E6BEA8",
"7 	c #C89E58",
"8 	c #DCB5A0",
"9 	c #B5841D",
"0 	c #E6B593",
"a 	c #BA9E58",
"b 	c #B4841D",
"c 	c #C79E58",
"d 	c #3B250B",
"e 	c #FFE5BE",
"f 	c #F2C7B2",
"g 	c #F3BE9E",
"h 	c #C7B5A9",
"i 	c #F3C8B9",
"j 	c #C29E58",
"k 	c #E6C2AE",
"l 	c #BBAAB1",
"m 	c #C7A887",
"n 	c #BE9E58",
"o 	c #6D572C",
"p 	c #CDB6AC",
"q 	c #E6BE9E",
"r 	c #C7AE95",
"s 	c #E6C3B5",
"t 	c #DCB593",
"u 	c #B9A073",
"v 	c #CAA49D",
"w 	c #AE841D",
"x 	c #A6781B",
"y 	c #BA8E51",
"z 	c #B1813F",
"A 	c #C6A871",
"B 	c #DCBEAF",
"C 	c #E6BEB5",
"D 	c #D4B0AE",
"E 	c #BDA058",
"F 	c #AC761B",
"G 	c #A77D3F",
"H 	c #A06422",
"I 	c #B59358",
"J 	c #BDA187",
"K 	c #D3B5A0",
"L 	c #BD933A",
"M 	c #B09960",
"N 	c #BD9D60",
"O 	c #AC8131",
"P 	c #935511",
"Q 	c #753F20",
"R 	c #753D1D",
"S 	c #D4AE84",
"T 	c #B09264",
"U 	c #BDA475",
"V 	c #B48431",
"W 	c #B08431",
"X 	c #A86813",
"Y 	c #975C16",
"Z 	c #A06413",
"` 	c #5C3D1D",
" .	c #A46A36",
"..	c #903801",
"+.	c #953D1D",
"@.	c #751801",
"#.	c #681601",
"$.	c #844116",
"%.	c #1D0101",
"&.	c #A0581D",
"*.	c #933A01",
"=.	c #A67531",
"-.	c #87581D",
";.	c #A86F1D",
">.	c #A1713A",
",.	c #B09358",
"                                ",
"          . . . . . .           ",
"      . . + @ # $ % & * .       ",
"    = - ; > , ' ) ! ~ { ] .     ",
"  ^ / ( _ : < [ } | 1 2 ) 3 .   ",
". 4 5 6 7 : 8 9 0 a 2 b c ~ d   ",
". e f g h i j k l m $ < n 1 o . ",
". p q r s t b u v 2 c w c x y . ",
"  . z A B 1 ) C D $ E j F G H . ",
"    . I ~ J K L M 2 ~ N O P Q . ",
"      . . R S T U V W X Y Z .   ",
"            `  ...+.@.#.$..     ",
"              . %.&.*.=.        ",
"                . -.;.>.        ",
"                  . ` ,..       ",
"                    . . .       "};
