/* XPM */
static char * forward_xpm[] = {
"16 16 32 1",
" 	c None",
".	c #010101",
"+	c #2F2F2F",
"@	c #A7A4A0",
"#	c #FCFCFC",
"$	c #64625F",
"%	c #FFFFFF",
"&	c #5D5B57",
"*	c #868580",
"=	c #E5E2DB",
"-	c #FBFBF8",
";	c #716E6B",
">	c #62605C",
",	c #F8F7F2",
"'	c #DDDAD4",
")	c #000000",
"!	c #FBFAF7",
"~	c #A5A29D",
"{	c #797873",
"]	c #BBC2CC",
"^	c #576E87",
"/	c #EFEFEF",
"(	c #CCCCCC",
"_	c #7D7A77",
":	c #F7F5F1",
"<	c #FAF9F6",
"[	c #314E6C",
"}	c #090808",
"|	c #D7D4CE",
"1	c #D8D5CF",
"2	c #181818",
"3	c #090909",
"                ",
"                ",
"                ",
"  .+.........   ",
" .@#########$.  ",
" .%&%%%%%%%*=.  ",
" .%-;%%%%%>,'.  ",
" .%--;%)))))))))",
" .%-!~;)%%%%%%%)",
" .%!{--)%]^///()",
" .%_-:<)%^[[/[()",
" .}|111)%/[[[[()",
"  .....)%//[[[()",
"       )%/[[[[()",
"       )%((((((2",
"       ))3))))))"};
