/* XPM */
static char * hand_16_xpm[] = {
"16 16 96 2",
"  	c None",
". 	c #010100",
"+ 	c #010000",
"@ 	c #090600",
"# 	c #030000",
"$ 	c #E8E6E1",
"% 	c #A3A09C",
"& 	c #080000",
"* 	c #D6D2CD",
"= 	c #8F8A84",
"- 	c #FFFAF7",
"; 	c #98938D",
"> 	c #F1EDE9",
", 	c #88827E",
"' 	c #181510",
") 	c #F8EEE4",
"! 	c #F8ECE0",
"~ 	c #F8ECDE",
"{ 	c #0D0600",
"] 	c #F8EBDE",
"^ 	c #F6E7D7",
"/ 	c #D5C5B6",
"( 	c #070000",
"_ 	c #F6E5D3",
": 	c #F7E9D9",
"< 	c #050200",
"[ 	c #080300",
"} 	c #312722",
"| 	c #EFE7E0",
"1 	c #F6F2EF",
"2 	c #F6F1EE",
"3 	c #EDE4DB",
"4 	c #F1E4D6",
"5 	c #9D9790",
"6 	c #12110D",
"7 	c #958E88",
"8 	c #DDCFC2",
"9 	c #F6E8D9",
"0 	c #F6F1EC",
"a 	c #F5F1EE",
"b 	c #E5D7CB",
"c 	c #F7E8D8",
"d 	c #EEDFD3",
"e 	c #CAC0B6",
"f 	c #645951",
"g 	c #E7D9CA",
"h 	c #F6E6D5",
"i 	c #F7EBDE",
"j 	c #E9DCD2",
"k 	c #040000",
"l 	c #F7EFE7",
"m 	c #EDDECF",
"n 	c #D6C8BA",
"o 	c #CBB9AC",
"p 	c #D2C8BC",
"q 	c #F8EEE3",
"r 	c #F5EEE8",
"s 	c #EFE3D7",
"t 	c #B8A99D",
"u 	c #060100",
"v 	c #D7CFC7",
"w 	c #F9F2E9",
"x 	c #F3E3D4",
"y 	c #F1DFCF",
"z 	c #E6D7C7",
"A 	c #F8F2ED",
"B 	c #EDE1D4",
"C 	c #0A0300",
"D 	c #D7CFC9",
"E 	c #FAF2EC",
"F 	c #F1E0D1",
"G 	c #F6EEE8",
"H 	c #000000",
"I 	c #171111",
"J 	c #A79D9D",
"K 	c #C8BDBC",
"L 	c #A59D9A",
"M 	c #ABA8A3",
"N 	c #BFB7B5",
"O 	c #060000",
"P 	c #0E0403",
"Q 	c #0A0000",
"R 	c #0A0200",
"S 	c #080401",
"T 	c #FCF4F2",
"U 	c #F9F1EF",
"V 	c #F8F0EE",
"W 	c #F2EDEA",
"X 	c #DDD9D6",
"Y 	c #E5E4E0",
"Z 	c #030400",
"` 	c #0B0505",
" .	c #050000",
"..	c #14100F",
"+.	c #090806",
"@.	c #000100",
"              . +               ",
"          @ # $ % + +           ",
"        & * = - ; > , '         ",
"        & ) ; ! ; ~ ; {         ",
"        & ] ; ^ ; ] ; / (       ",
"        & _ ; _ ; : ; / (       ",
"    < [ } | 1 2 3 4 5 / (       ",
"  6 _ 7 & 8 _ 9 0 a b / (       ",
"  + c d e f g h _ i j / (       ",
"    k l m n o p q r s t (       ",
"    u v w x y z A B _ t (       ",
"      C D E _ F G _ / H         ",
"        I J K _ _ L M &         ",
"        N O P Q R k S           ",
"        k T U V W X Y Z         ",
"        k `  ...# +.H @.        "};
