/* XPM */
static char * hide_deleted_messages_xpm[] = {
"16 16 20 1",
" 	c None",
".	c #828282",
"+	c #A0A0A0",
"@	c #AAAAAA",
"#	c #898989",
"$	c #9A9A9A",
"%	c #8F8F8F",
"&	c #A9A9A9",
"*	c #A5A5A5",
"=	c #959595",
"-	c #A8A8A8",
";	c #AEAEAE",
">	c #B1B1B1",
",	c #B3B3B3",
"'	c #9B9B9B",
")	c #DF421E",
"!	c #000000",
"~	c #B7B7B7",
"{	c #ADADAD",
"]	c #AFAFAF",
"                ",
"                ",
"                ",
" .. .+.@#$..    ",
" .. ..%&$*=$    ",
" .. .@.-;$#>    ",
"                ",
" .%.; .%, '.  ) ",
"!!!!!!!!!!!!! ))",
" .~$. ... ..  ) ",
"                ",
" .+ .+.'% .+    ",
" .{ .#%.] '&    ",
" .' .$;.% ..    ",
"                ",
"                "};
