/* XPM */
static char * hide_read_messages_xpm[] = {
"16 16 4 1",
" 	c None",
".	c #000000",
"+	c #DF421E",
"@	c #828282",
"                ",
"                ",
"                ",
"  .. .......    ",
"              + ",
"  @ @@@ @@ @  ++",
"              + ",
"  ... .. ...    ",
"                ",
"  ... . ....    ",
"              + ",
"  @@ @@@ @@@  ++",
"              + ",
"  . ... ....    ",
"                ",
"                "};
