/* XPM */
static char * 16_import_xpm[] = {
"16 16 40 1",
" 	c None",
".	c #000000",
"+	c #A50B05",
"@	c #A1A1A1",
"#	c #FFFFFF",
"$	c #A7A7A7",
"%	c #980000",
"&	c #DBDBDB",
"*	c #9B9B9B",
"=	c #9C9C9C",
"-	c #E4E4E4",
";	c #9F0502",
">	c #A90F07",
",	c #D23618",
"'	c #AEAEAE",
")	c #A3A3A3",
"!	c #D83C1B",
"~	c #E46243",
"{	c #E87E64",
"]	c #2C2C2C",
"^	c #9E8754",
"/	c #6B5B39",
"(	c #826E46",
"_	c #9E8655",
":	c #BFA367",
"<	c #DCCBA3",
"[	c #99804F",
"}	c #D8C7A2",
"|	c #F0DBAC",
"1	c #E4D3AF",
"2	c #76520D",
"3	c #865F10",
"4	c #E1BB65",
"5	c #D1940C",
"6	c #906612",
"7	c #7D5C14",
"8	c #CF920B",
"9	c #714F0C",
"0	c #E2BE6C",
"a	c #7B560E",
".......  +      ",
".@###$. %+      ",
".&*#=-.%;>,,    ",
".'-$-). ++ !    ",
".......  + ~    ",
"           {    ",
"                ",
"       ......]. ",
"      .^/(_:<[. ",
"     .}||||123. ",
"     .45555567. ",
"     .45555567. ",
"     .45555567. ",
"     .45585569. ",
"     .055555a.  ",
"     ........   "};
