/* XPM */
static char * listview_xpm[] = {
"24 24 7 1",
" 	c None",
".	c #000000",
"+	c #D8D8D4",
"@	c #919191",
"#	c #666666",
"$	c #FFFFFF",
"%	c #F2F1ED",
"....................... ",
".++++++++++++++++++++@. ",
".+@@@@@@@@@@@@@@@@@@@#. ",
".+@@@@@@@@@@@@@@@@@@@#. ",
".+@@@@@@@@@@@@@@@@@@@#. ",
".@####################. ",
".$%%%%%%%%%%%%%%%%%%%@. ",
".$%%%%%%%%%%%%%%%%%%%@. ",
".$%%%%%%%%%%%%%%%%%%%@. ",
".@@@@@@@@@@@@@@@@@@@@#. ",
".$%%%%%%%%%%%%%%%%%%%@. ",
".$%%%%%%%%%%%%%%%%%%%@. ",
".$%%%%%%%%%%%%%%%%%%%@. ",
".@@@@@@@@@@@@@@@@@@@@#. ",
".$%%%%%%%%%%%%%%%%%%%@. ",
".$%%%%%%%%%%%%%%%%%%%@. ",
".$%%%%%%%%%%%%%%%%%%%@. ",
".@@@@@@@@@@@@@@@@@@@@#. ",
".$%%%%%%%%%%%%%%%%%%%@. ",
".$%%%%%%%%%%%%%%%%%%%@. ",
".$%%%%%%%%%%%%%%%%%%%@. ",
".+@@@@@@@@@@@@@@@@@@@#. ",
"....................... ",
"                        "};
