/* XPM */
static char * mail_replied_xpm[] = {
"16 16 33 1",
" 	c None",
".	c #010101",
"+	c #2F2F2F",
"@	c #A7A4A0",
"#	c #FCFCFC",
"$	c #64625F",
"%	c #95938E",
"&	c #FBFBFB",
"*	c #F9F8F6",
"=	c #FBFAFA",
"-	c #F6F5F1",
";	c #7D7B78",
">	c #EAE8E3",
",	c #969491",
"'	c #000000",
")	c #928F8B",
"!	c #FFFFFF",
"~	c #F7F6F4",
"{	c #B5B2AC",
"]	c #003366",
"^	c #EFEFEF",
"/	c #CCCCCC",
"(	c #AEABA6",
"_	c #B0ADA7",
":	c #F5F3F0",
"<	c #83817E",
"[	c #E1DFDA",
"}	c #E2DFD9",
"|	c #002C59",
"1	c #002850",
"2	c #00254A",
"3	c #181818",
"4	c #090909",
"                ",
"                ",
"                ",
"                ",
"  .+.........   ",
" .@#########$.  ",
" .#%&*#*=*-;>.  ",
" .#*,=''''''''' ",
" .#**)'!!!!!!!' ",
" .#*~{'!]]]]^/' ",
" .#~(*'!]]]^^/' ",
" .#_*:'!]]]]^/' ",
" .<[}}'!]^]]|/' ",
"  ....'!^^^12/' ",
"      '!//////3 ",
"      ''4'''''' "};
