/* XPM */
static char * mail_need_reply_xpm[] = {
"16 16 82 1",
" 	c None",
".	c #2A2A2A",
"+	c #AAAAAA",
"@	c #A2A2A2",
"#	c #949494",
"$	c #E4E4E4",
"%	c #F6F6F6",
"&	c #F7F7F7",
"*	c #F8F8F8",
"=	c #E5E5E5",
"-	c #898989",
";	c #7A7A7A",
">	c #DADADA",
",	c #F5F5F5",
"'	c #818181",
")	c #B1B1B1",
"!	c #858585",
"~	c #EDEDED",
"{	c #8E8E8E",
"]	c #E1E1E1",
"^	c #E2E2E2",
"/	c #7F7F7F",
"(	c #B7B7B7",
"_	c #E0E0E0",
":	c #BEBEBE",
"<	c #737373",
"[	c #848484",
"}	c #E8E8E8",
"|	c #DBDBDB",
"1	c #363636",
"2	c #9C9C9C",
"3	c #C9C9C9",
"4	c #919191",
"5	c #B4B4B4",
"6	c #AFAFAF",
"7	c #C3C3C3",
"8	c #6F635C",
"9	c #372B24",
"0	c #EBEBEB",
"a	c #F1F1F1",
"b	c #D7D7D7",
"c	c #C7C7C7",
"d	c #E9E9E9",
"e	c #F3F3F3",
"f	c #BDBDBD",
"g	c #CDCDCD",
"h	c #372E28",
"i	c #F6B893",
"j	c #88634D",
"k	c #534339",
"l	c #2C211A",
"m	c #8F8F8F",
"n	c #A8A8A8",
"o	c #6F6F6F",
"p	c #473B34",
"q	c #DBA585",
"r	c #F4A677",
"s	c #F5AD82",
"t	c #F5B189",
"u	c #72503C",
"v	c #3F3F3F",
"w	c #1C1C1C",
"x	c #2B1E15",
"y	c #DC976F",
"z	c #DA8A5B",
"A	c #583725",
"B	c #984816",
"C	c #A75223",
"D	c #43210E",
"E	c #261102",
"F	c #853F12",
"G	c #A55123",
"H	c #9C4C20",
"I	c #984B20",
"J	c #42200E",
"K	c #853E12",
"L	c #4A240E",
"M	c #291408",
"N	c #160A04",
"O	c #200E01",
"P	c #180B01",
"Q	c #000000",
"                ",
"   .++++++++++. ",
"   @#$%&**%&=-; ",
"   +>#,,,,,,')! ",
"   +*~{],,^/(_! ",
"   +*,:<,,;[]}! ",
"   +|1234-567}! ",
"   +890abcdefg! ",
"   hijkklmbbbno ",
"  pqrsttu.vvvvw ",
" xyzzzzzA       ",
" xBCCCCCD       ",
"  EFGHIIJ       ",
"   EKLMMN       ",
"    OP          ",
"     Q          "};
