/* XPM */
static char * mail_need_reply_xpm[] = {
"16 16 52 1",
" 	c None",
".	c #010101",
"+	c #D9D6D0",
"@	c #C3C0B9",
"#	c #DDBFB9",
"$	c #E5908C",
"%	c #F49F9C",
"&	c #F8C1C1",
"*	c #FAFAFA",
"=	c #B6B4AE",
"-	c #737373",
";	c #C2BFB8",
">	c #D6817C",
",	c #FF0505",
"'	c #FF5858",
")	c #D2CFC9",
"!	c #707070",
"~	c #FFFFFF",
"{	c #5D5B57",
"]	c #FFABAB",
"^	c #FF7474",
"/	c #868580",
"(	c #E5E2DB",
"_	c #FBFBF8",
":	c #A04B49",
"<	c #FF2121",
"[	c #ED0F0E",
"}	c #F8F7F2",
"|	c #DDDAD4",
"1	c #FCA9A7",
"2	c #FBDFDD",
"3	c #F7F5F1",
"4	c #FCA8A6",
"5	c #FE2020",
"6	c #FC716F",
"7	c #F0EEE8",
"8	c #DDD9D2",
"9	c #FBFAF7",
"0	c #A5514E",
"a	c #E3E0D9",
"b	c #7D7A77",
"c	c #F8F6F2",
"d	c #FADDDA",
"e	c #B1413F",
"f	c #E2DFD8",
"g	c #090808",
"h	c #D7D4CE",
"i	c #D8D5CF",
"j	c #D6D3CD",
"k	c #DAD7D1",
"l	c #E0DCD5",
"m	c #222221",
"     .....      ",
"    .+++++.     ",
"   .++++++@.    ",
"  .+#$$$%&*=.   ",
" .-;>,,,,,')!.  ",
" .~{],,]^,,/(.  ",
" .~_:,,'<,[}|.  ",
" .~_1,,,,,23|.  ",
" .~_4,,25,678.  ",
" .~90,,_6,,a8.  ",
" .~b1,,cd,,ef.  ",
" .ghiiij++klm.  ",
"  ...........   ",
"                ",
"                ",
"                "};
