/* XPM */
static char * mail_new_xpm[] = {
"16 16 48 1",
" 	c None",
".	c #000000",
"+	c #202020",
"@	c #817968",
"#	c #F5F5F5",
"$	c #4D493C",
"%	c #736C5C",
"&	c #F5EEEE",
"*	c #FFEDC7",
"=	c #FAF3EC",
"-	c #FCE6B5",
";	c #60594D",
">	c #D3C29E",
",	c #746D5D",
"'	c #F5F1F1",
")	c #FDEECD",
"!	c #F8F4ED",
"~	c #FAE3B3",
"{	c #645F4F",
"]	c #C9BA98",
"^	c #71685A",
"/	c #FCF5EA",
"(	c #FFE8B7",
"_	c #F5DEB2",
":	c #FFEABD",
"<	c #90856F",
"[	c #7C7361",
"}	c #E4D1A9",
"|	c #C9B996",
"1	c #FFEBC2",
"2	c #887F6B",
"3	c #726B59",
"4	c #D1BF9C",
"5	c #8B816C",
"6	c #FFE9BA",
"7	c #F9E2B2",
"8	c #FFE8B8",
"9	c #F6DFB3",
"0	c #D4C19D",
"a	c #534D42",
"b	c #CFBF9C",
"c	c #645F51",
"d	c #C2B293",
"e	c #C4B393",
"f	c #C4B495",
"g	c #C5B596",
"h	c #CCBC99",
"i	c #4C483D",
"                ",
"                ",
"                ",
"                ",
"  .+.........   ",
" .@#########$.  ",
" .#%&*#*=*-;>.  ",
" .#*,')!*~{~].  ",
" .#**^/*({*_].  ",
" .#*:<{#{[-}|.  ",
" .#12**{((34|.  ",
" .#5*_67890ab.  ",
" .cdeeedffghi.  ",
"  ...........   ",
"                ",
"                "};
