/* XPM */
static char * mail_read_xpm[] = {
"16 16 51 1",
" 	c None",
".	c #010101",
"+	c #D9D6D0",
"@	c #C3C0B9",
"#	c #EFEDE8",
"$	c #F7F7F6",
"%	c #FAFAFA",
"&	c #B6B4AE",
"*	c #737373",
"=	c #C2BFB8",
"-	c #F5F4F2",
";	c #FAFAF9",
">	c #FFFFFF",
",	c #D2CFC9",
"'	c #707070",
")	c #5D5B57",
"!	c #868580",
"~	c #E5E2DB",
"{	c #FBFBF8",
"]	c #716E6B",
"^	c #62605C",
"/	c #F8F7F2",
"(	c #DDDAD4",
"_	c #929191",
":	c #969390",
"<	c #92908A",
"[	c #A1A0A0",
"}	c #F7F5F1",
"|	c #FBFAF7",
"1	c #A5A29D",
"2	c #908D87",
"3	c #F9F7F3",
"4	c #F0EEE8",
"5	c #DDD9D2",
"6	c #797873",
"7	c #F9F8F4",
"8	c #74726E",
"9	c #E3E0D9",
"0	c #7D7A77",
"a	c #FAF9F6",
"b	c #F8F6F2",
"c	c #FAF8F5",
"d	c #F7F5F2",
"e	c #E2DFD8",
"f	c #090808",
"g	c #D7D4CE",
"h	c #D8D5CF",
"i	c #D6D3CD",
"j	c #DAD7D1",
"k	c #E0DCD5",
"l	c #222221",
"                ",
"     .....      ",
"    .+++++.     ",
"   .++++++@.    ",
"  .+++++#$%&.   ",
" .*==-;>>>>,'.  ",
" .>)>>>>>>>!~.  ",
" .>{]>>>>>^/(.  ",
" .>{{_::<[{}(.  ",
" .>{|1{{{2345.  ",
" .>|6{{{77895.  ",
" .>0{}abcd~8e.  ",
" .fghhhi++jkl.  ",
"  ...........   ",
"                ",
"                "};
