/* XPM */
static char * marlboro_filters_xpm[] = {
"16 16 26 1",
" 	c None",
".	c #000000",
"+	c #7E7E7E",
"@	c #B9B9B9",
"#	c #CACACA",
"$	c #DF421E",
"%	c #A0A0A0",
"&	c #C8C8C8",
"*	c #E2E2E2",
"=	c #F2B8AB",
"-	c #8B2912",
";	c #6F6F6F",
">	c #C9C9C9",
",	c #FFFFFF",
"'	c #9E9E9E",
")	c #FDE6A1",
"!	c #999999",
"~	c #B03417",
"{	c #EDD57F",
"]	c #CBB76C",
"^	c #C5B268",
"/	c #FBE9E5",
"(	c #D09486",
"_	c #B1B1B1",
":	c #8A8A8A",
"<	c #CF9F94",
"    ........... ",
"    .+@#######$.",
"   .++%&*****=$-",
"   .;+>,,,,,,$$.",
"   ............ ",
"  .')+)+)+)+.   ",
" .!)+)+)+)+~.   ",
" .${]{]{]$~~.   ",
" .${^{]{]$~~.   ",
" .$$$$$$$$~~.   ",
" .$$$/$$$$~~.   ",
" .$$/,/$$$~~.   ",
" .$/&,,/$$~(.   ",
" ./&_&:&/$<+.   ",
" .,*****,,+.    ",
" ..........     "};
