/* XPM */
static char * meeting_xpm[] = {
"16 16 45 1",
" 	c None",
".	c #000000",
"+	c #161616",
"@	c #A7A7A7",
"#	c #8A8A8A",
"$	c #757575",
"%	c #686868",
"&	c #555555",
"*	c #434343",
"=	c #2F2F2F",
"-	c #2B2B2B",
";	c #FFFFFF",
">	c #CACACA",
",	c #C0C0C0",
"'	c #B6B6B6",
")	c #D8D5CD",
"!	c #CFCFCF",
"~	c #AEADA5",
"{	c #7F7D78",
"]	c #85847F",
"^	c #92908A",
"/	c #E0DFD7",
"(	c #A09E98",
"_	c #E6E5E0",
":	c #E5E3DF",
"<	c #A5A49D",
"[	c #9D9B95",
"}	c #D5D5D5",
"|	c #B4B1AB",
"1	c #83817C",
"2	c #D44D41",
"3	c #A7453E",
"4	c #919089",
"5	c #E2E1DB",
"6	c #9C9A94",
"7	c #DEDBD5",
"8	c #D9D6CE",
"9	c #E79E3C",
"0	c #934238",
"a	c #B4B1AA",
"b	c #807F79",
"c	c #82817C",
"d	c #7E7D78",
"e	c #ACA9A3",
"f	c #A3A09A",
"                ",
"                ",
"                ",
"                ",
" .............  ",
" +@#$%&&***=-.  ",
" .;;>;;,;;';).  ",
" .!~{~~]~~{~^.  ",
" .;/(_:<))[)~.  ",
" .}|1||2333|4.  ",
" .;56783990)~.  ",
" .}|1||3000|4.  ",
" .)ab~~c~~def.  ",
" .............  ",
"                ",
"                "};
