/* XPM */
static char * monthview_xpm[] = {
"24 24 7 1",
" 	c None",
".	c #000000",
"+	c #FFFFFF",
"@	c #666666",
"#	c #919191",
"$	c #F2F1ED",
"%	c #D8D8D4",
"....................... ",
".+++++++++++++++++++++. ",
".+@@@@@@@@@@@@@@@@@@@#. ",
".+@@@@@@@@@@@@@@@@@@@#. ",
".+$$$#$$$#$$$#$$$#$$$#. ",
".+$$$#$$$#$$$#$$$#$$$#. ",
".+$$$#$$$#$$$#$$$#$$$#. ",
".+####################. ",
".+$$$#$$$#$$$#$$$#$$$#. ",
".+$$$#$$$#$$$#$$$#$$$#. ",
".+$$$#$$$#$$$#$$$#$$$#. ",
".+$$$#$$$#$$$#$$$#$$$#. ",
".+####################. ",
".+$$$#$$$#$$$#$$$#$$$#. ",
".+$$$#$$$#$$$#$$$#$$$#. ",
".+$$$#$$$#$$$#$$$#$$$#. ",
".+$$$#$$$#$$$#$$$#$$$#. ",
".+####################. ",
".+$$$#$$$#$$$#$$$#$$$#. ",
".+$$$#$$$#$$$#$$$#$$$#. ",
".+$$$#$$$#$$$#$$$#$$$#. ",
".%###################@. ",
"....................... ",
"                        "};
