/* XPM */
static char * new_message_xpm[] = {
"16 16 19 1",
" 	c None",
".	c #000000",
"+	c #FDFDFD",
"@	c #E2E2E2",
"#	c #FEFEFE",
"$	c #FCFCFC",
"%	c #FBFBFB",
"&	c #FFFFFF",
"*	c #E4E4E4",
"=	c #E0E0E0",
"-	c #FAFAFA",
";	c #F9F9F9",
">	c #F8F8F8",
",	c #F7F7F7",
"'	c #F5F5F5",
")	c #F4F4F4",
"!	c #DFDFDF",
"~	c #E8E8E8",
"{	c #DDDDDD",
"                ",
"        ..      ",
"      ..+@.     ",
"    ..#+$%.     ",
"  ..&####%*.    ",
" .&####==-;.    ",
" .###==###>*.   ",
"  .+####==,'.   ",
"  .$%#==###'*.  ",
"   .--###==').  ",
"   .-;#==####*. ",
"    .>######!!. ",
"    .,####!!..  ",
"     .##=!..    ",
"     .~{..      ",
"      ..        "};
