/* XPM */
static char * new_appointment_xpm[] = {
"16 16 83 1",
" 	c None",
".	c #000000",
"+	c #FFFFFF",
"@	c #B5B5B5",
"#	c #535353",
"$	c #161616",
"%	c #F6F6F6",
"&	c #676767",
"*	c #BA8D31",
"=	c #EAB23D",
"-	c #403011",
";	c #E5E5E5",
">	c #B4B4B4",
",	c #EFB63E",
"'	c #F6D591",
")	c #F3B840",
"!	c #916D26",
"~	c #F8F8F8",
"{	c #F3F3F3",
"]	c #E7E7E7",
"^	c #DDDDDD",
"/	c #EEB53E",
"(	c #FAE7BC",
"_	c #FCD584",
":	c #FEC142",
"<	c #FFC243",
"[	c #CECECE",
"}	c #0B0B0B",
"|	c #B9B9B9",
"1	c #B88B30",
"2	c #F9E2B2",
"3	c #FDD789",
"4	c #D0D0D0",
"5	c #373737",
"6	c #898989",
"7	c #F1F1F1",
"8	c #ABABAB",
"9	c #E7AF3C",
"0	c #F9DDA4",
"a	c #FECA5E",
"b	c #D09E36",
"c	c #8B8B8B",
"d	c #FEFEFE",
"e	c #DADADA",
"f	c #3A2B0F",
"g	c #8F6C25",
"h	c #FDC042",
"i	c #2D220C",
"j	c #6F6F6F",
"k	c #8F8F8F",
"l	c #353535",
"m	c #DFDFDF",
"n	c #F0F0F0",
"o	c #FCFCFC",
"p	c #363636",
"q	c #AAAAAA",
"r	c #FDFDFD",
"s	c #C8C8C8",
"t	c #A9A9A9",
"u	c #E1E1E1",
"v	c #4A4A4A",
"w	c #FAFAFA",
"x	c #C4C4C4",
"y	c #A1A1A1",
"z	c #CCCCCC",
"A	c #D6D6D6",
"B	c #F4F4F4",
"C	c #FBFBFB",
"D	c #F7F7F7",
"E	c #BABABA",
"F	c #BFBFBF",
"G	c #C9C9C9",
"H	c #767676",
"I	c #CBCBCB",
"J	c #ACACAC",
"K	c #B3B3B3",
"L	c #A0A0A0",
"M	c #444444",
"N	c #A7A7A7",
"O	c #989898",
"P	c #D5D5D5",
"Q	c #EDEDED",
"R	c #CDCDCD",
"............... ",
".+++@#$.$#@++%. ",
".++&.*=-;>.&%;. ",
".+&.,')!~{].&^. ",
".@./(_:<+[}|.@. ",
".#123<<<45678#. ",
".$90a<<b5cd%e$. ",
"..fgh<<ij+dkl.. ",
".$mno++4pqrns$. ",
".#tu%dd+4vwxy#. ",
".@.zABwoCDzE.@. ",
".+&.FEGHIJK.&^. ",
".++&.LJMNO.&P^. ",
".QPP@#$.$#@^^R. ",
"............... ",
"                "};
