/* XPM */
static char * new_contact_xpm[] = {
"24 24 71 1",
" 	c None",
".	c #000000",
"+	c #BABABA",
"@	c #FDFDFD",
"#	c #FCFCFC",
"$	c #959595",
"%	c #FBFBFB",
"&	c #FAFAFA",
"*	c #F9F9F9",
"=	c #F8F8F8",
"-	c #F7F7F7",
";	c #E3E3E3",
">	c #BDBDBD",
",	c #9D9C9A",
"'	c #999896",
")	c #A4A4A3",
"!	c #391414",
"~	c #B1B1B1",
"{	c #D4D4D4",
"]	c #E2E2E2",
"^	c #DCD4C7",
"/	c #C1B8A6",
"(	c #878682",
"_	c #BFBFBF",
":	c #7C7C7C",
"<	c #909090",
"[	c #747474",
"}	c #818181",
"|	c #A8A8A8",
"1	c #B6B6B6",
"2	c #F6F6F6",
"3	c #7F742E",
"4	c #E1E1E1",
"5	c #959FA4",
"6	c #678690",
"7	c #9A9891",
"8	c #959490",
"9	c #F5F5F5",
"0	c #2B6776",
"a	c #294E70",
"b	c #294770",
"c	c #284D6F",
"d	c #232362",
"e	c #B1B3B4",
"f	c #979797",
"g	c #B0B0B0",
"h	c #AFAFAF",
"i	c #D3D3D3",
"j	c #E0E0E0",
"k	c #27276C",
"l	c #28286D",
"m	c #282A6F",
"n	c #2A5A73",
"o	c #DFDFDF",
"p	c #A2A2A2",
"q	c #B5B5B5",
"r	c #727272",
"s	c #BCBCBC",
"t	c #F4F4F4",
"u	c #DEDEDE",
"v	c #D5D5D5",
"w	c #DDDDDD",
"x	c #BEBEBE",
"y	c #D1D1D1",
"z	c #F3F3F3",
"A	c #DCDCDC",
"B	c #E7E7E7",
"C	c #E6E6E6",
"D	c #E5E5E5",
"E	c #E4E4E4",
"F	c #686868",
"                        ",
"                        ",
"                        ",
"                        ",
"  ..................... ",
" .+@@@@@@@@@@@@@@@@@@#$.",
" .@%%%%%&&&&*****===--;.",
" .@%>>,')>&*****==----;.",
" .@%>>!..,***~={=>----].",
" .@%>>^/.(**_:<[<}|1-2].",
" .@%>>^3.'**={=----2224.",
" .@&>567.8*===----22294.",
" .@&0abcde==1<f{ghi>99j.",
" .@&akklmn==----222999o.",
" .@*****===-pg|qiprs9tu.",
" .@*vvv=1>----222999ttw.",
" .@*vxf=p---gi2h$syytzw.",
" .@*===-----22999tttzzA.",
" .hBBCDDE;]]]44joouwwAF.",
"  ..................... ",
"                        ",
"                        ",
"                        ",
"                        "};
