/* XPM */
static char * new_appointment_xpm[] = {
"16 16 104 2",
"  	c None",
". 	c #000000",
"+ 	c #615F59",
"@ 	c #DEDAC1",
"# 	c #76705A",
"$ 	c #5E574A",
"% 	c #595244",
"& 	c #575143",
"* 	c #5E594B",
"= 	c #D1D0CF",
"- 	c #4B4126",
"; 	c #F6F2D6",
"> 	c #F2E363",
", 	c #746B4F",
"' 	c #787266",
") 	c #888379",
"! 	c #FCF9DA",
"~ 	c #D4BA38",
"{ 	c #F7EE93",
"] 	c #F9EF76",
"^ 	c #FAF2A2",
"/ 	c #FBF5B2",
"( 	c #FAF293",
"_ 	c #E8D247",
": 	c #C4BA88",
"< 	c #F1E259",
"[ 	c #DEC956",
"} 	c #E2D181",
"| 	c #E2D283",
"1 	c #DACA74",
"2 	c #E0D07F",
"3 	c #E1D288",
"4 	c #F4F1DD",
"5 	c #F9F2BA",
"6 	c #917421",
"7 	c #F7EE9C",
"8 	c #DEC952",
"9 	c #F5F1E0",
"0 	c #FCFCFC",
"a 	c #727270",
"b 	c #FAFAF9",
"c 	c #F9F9F8",
"d 	c #FCFCF9",
"e 	c #CEB538",
"f 	c #FAF4AC",
"g 	c #E0CF70",
"h 	c #262626",
"i 	c #FCFBF9",
"j 	c #E5D048",
"k 	c #FBF5B6",
"l 	c #DFCE70",
"m 	c #F7F6F6",
"n 	c #FBFBFB",
"o 	c #262625",
"p 	c #F1EFEE",
"q 	c #EDDB4F",
"r 	c #FBF5B8",
"s 	c #DFCE6F",
"t 	c #FBFAFA",
"u 	c #FBFBFA",
"v 	c #5F5F5E",
"w 	c #CBCBC9",
"x 	c #F6F5F4",
"y 	c #FBF5B3",
"z 	c #DECD6F",
"A 	c #FAF9F9",
"B 	c #615F5E",
"C 	c #D0CFCB",
"D 	c #FBFBF9",
"E 	c #E8D44B",
"F 	c #F7EFA4",
"G 	c #DDC851",
"H 	c #F0EBD6",
"I 	c #F8F8F6",
"J 	c #ECEBE9",
"K 	c #FCFBF7",
"L 	c #D7BF3C",
"M 	c #C4BA8C",
"N 	c #F2E35A",
"O 	c #F3ECC0",
"P 	c #FCFCFB",
"Q 	c #FCFCFA",
"R 	c #F9F4BD",
"S 	c #8E7021",
"T 	c #F7F1B9",
"U 	c #F4E559",
"V 	c #EFDD51",
"W 	c #F0DF57",
"X 	c #F8EE81",
"Y 	c #E3CB43",
"Z 	c #F6F2D7",
"` 	c #E4CE43",
" .	c #5E4B1E",
"..	c #51431D",
"+.	c #68572D",
"@.	c #F8F2C3",
"#.	c #D1B635",
"$.	c #3B2D0C",
"%.	c #907427",
"&.	c #59513C",
"*.	c #454134",
"=.	c #514B3B",
"-.	c #9D8C4E",
";.	c #31270C",
"        . . . . . . . . .       ",
"      . + @ # $ % & * = - .     ",
"      . ; > , ' ' ' ) ! ~ .     ",
"      . { ] ^ / / / / ( _ .     ",
"    . : < [ } | 1 2 3 4 5 6 .   ",
"    . 7 8 9 0 0 a b c b d e .   ",
"    . f g 0 0 0 h b c b i j . . ",
"    . k l m b n o b b p i q q . ",
"    . r s t t u v w x x i q q . ",
"    . y z A b A b B C x D E . . ",
"    . F G H I b J b b c K L .   ",
"    . M N O n P c n n Q R S .   ",
"      . T U V V V V W X Y .     ",
"      . Z `  .......+.@.#..     ",
"      . $.%.&.*.*.*.=.-.;..     ",
"        . . . . . . . . .       "};
