/* XPM */
static char * new_appointment_xpm[] = {
"16 16 107 2",
"  	c None",
". 	c #000000",
"+ 	c #FEFEFE",
"@ 	c #FDFDFD",
"# 	c #E0E0E0",
"$ 	c #C1C1C1",
"% 	c #F1F1F1",
"& 	c #C3C3C3",
"* 	c #FBFBFB",
"= 	c #A8A8A8",
"- 	c #525252",
"; 	c #141414",
"> 	c #111111",
", 	c #383838",
"' 	c #6E6E6E",
") 	c #ADADAD",
"! 	c #717171",
"~ 	c #5D5D5D",
"{ 	c #404040",
"] 	c #BA8D31",
"^ 	c #EAB23D",
"/ 	c #403011",
"( 	c #E5E5E5",
"_ 	c #B4B4B4",
": 	c #606060",
"< 	c #DADADA",
"[ 	c #777777",
"} 	c #4B4B49",
"| 	c #161616",
"1 	c #EFB63E",
"2 	c #F6D591",
"3 	c #F3B840",
"4 	c #916D26",
"5 	c #F8F8F8",
"6 	c #F3F3F3",
"7 	c #E7E7E7",
"8 	c #B5B5B5",
"9 	c #A1A1A1",
"0 	c #919191",
"a 	c #EEB53E",
"b 	c #FAE7BC",
"c 	c #FCD584",
"d 	c #FEC142",
"e 	c #FFC243",
"f 	c #FFFFFF",
"g 	c #CECECE",
"h 	c #0B0B0B",
"i 	c #B9B9B9",
"j 	c #E4E4E4",
"k 	c #B88B30",
"l 	c #F9E2B2",
"m 	c #FDD789",
"n 	c #D0D0D0",
"o 	c #373737",
"p 	c #898989",
"q 	c #ABABAB",
"r 	c #33332D",
"s 	c #CFCFB9",
"t 	c #E7AF3C",
"u 	c #F9DDA4",
"v 	c #FECA5E",
"w 	c #D09E36",
"x 	c #8B8B8B",
"y 	c #F6F6F6",
"z 	c #131313",
"A 	c #3A2B0F",
"B 	c #8F6C25",
"C 	c #FDC042",
"D 	c #2D220C",
"E 	c #6F6F6F",
"F 	c #8F8F8F",
"G 	c #353535",
"H 	c #C3C3AE",
"I 	c #DFDFDF",
"J 	c #F0F0F0",
"K 	c #FCFCFC",
"L 	c #363636",
"M 	c #AAAAAA",
"N 	c #C8C8C8",
"O 	c #A9A9A9",
"P 	c #E1E1E1",
"Q 	c #4A4A4A",
"R 	c #FAFAFA",
"S 	c #C4C4C4",
"T 	c #3C3C36",
"U 	c #ADAD9B",
"V 	c #CCCCCC",
"W 	c #D6D6D6",
"X 	c #F4F4F4",
"Y 	c #F7F7F7",
"Z 	c #BABABA",
"` 	c #BFBFBF",
" .	c #C9C9C9",
"..	c #767676",
"+.	c #CBCBCB",
"@.	c #ACACAC",
"#.	c #B3B3B3",
"$.	c #5C5C5C",
"%.	c #C5C5C5",
"&.	c #A0A0A0",
"*.	c #444444",
"=.	c #A7A7A7",
"-.	c #989898",
";.	c #4B4B4B",
">.	c #9C9C9C",
",.	c #A2A2A2",
"'.	c #BBBBBB",
"        . . . . . . . . .       ",
"      . + + + + + + @ # $ .     ",
"      . + % % % % % % & * = .   ",
"      . - ; . > , ' % ) ! ~ { . ",
"    . . ] ^ / ( _ . : < [ } | . ",
"  . . 1 2 3 4 5 6 7 . : 8 9 0 . ",
"  . a b c d e f g h i . 9 j 0 . ",
". k l m e e e n o p % q r s 0 . ",
". t u v e e w o x + y < z j 0 . ",
". A B C e e D E f + F G . H 0 . ",
". I J K f f n L M @ J N z j 0 . ",
". O P y + + f n Q R S 9 T U 0 . ",
"  . V W X R K * Y V Z . 9 j 0 . ",
"  . . ` Z  ...+.@.#.. $.%.j 0 . ",
"    . . &.@.*.=.-.. ;.>.,.'.&.. ",
"      . . . . . . . . . . . .   "};
