/* XPM */
static char * 24_new_contact_xpm[] = {
"24 24 110 2",
"  	c None",
". 	c #000000",
"+ 	c #030303",
"@ 	c #0F0F0F",
"# 	c #1B1B1B",
"$ 	c #272727",
"% 	c #333333",
"& 	c #404040",
"* 	c #4C4C4C",
"= 	c #585858",
"- 	c #646464",
"; 	c #707070",
"> 	c #7C7C7C",
", 	c #888888",
"' 	c #949494",
") 	c #BDBDBD",
"! 	c #FFFFFF",
"~ 	c #DBDBDB",
"{ 	c #A9A9A9",
"] 	c #F8F8F8",
"^ 	c #CFBDA7",
"/ 	c #A18A6F",
"( 	c #A18E77",
"_ 	c #CCC6BD",
": 	c #FDFDFD",
"< 	c #FCFCFC",
"[ 	c #F7F6F5",
"} 	c #B1B1B1",
"| 	c #050505",
"1 	c #F4F4F4",
"2 	c #B59F85",
"3 	c #E5D9CC",
"4 	c #877261",
"5 	c #A4988C",
"6 	c #828282",
"7 	c #A1A1A1",
"8 	c #FEFEFE",
"9 	c #F8F7F6",
"0 	c #BABABA",
"a 	c #0E0E0E",
"b 	c #F1E5D6",
"c 	c #F6F2EC",
"d 	c #9D8C7A",
"e 	c #A2968B",
"f 	c #F8F8F6",
"g 	c #C2C2C2",
"h 	c #161616",
"i 	c #FAFAFA",
"j 	c #94A9C0",
"k 	c #D29087",
"l 	c #808F9E",
"m 	c #E5E5E3",
"n 	c #D3D3D3",
"o 	c #DEDEDE",
"p 	c #CBCBCB",
"q 	c #1F1F1F",
"r 	c #71899D",
"s 	c #B6CADD",
"t 	c #8094A8",
"u 	c #7A8DA0",
"v 	c #A3AFBB",
"w 	c #EED886",
"x 	c #D4D4D4",
"y 	c #879CB0",
"z 	c #8DA1B4",
"A 	c #8A9EB0",
"B 	c #8797A6",
"C 	c #8D99A5",
"D 	c #CFCFCF",
"E 	c #D5D5D5",
"F 	c #EEDC96",
"G 	c #ECECEC",
"H 	c #F2E2A6",
"I 	c #DCDCDC",
"J 	c #EFDA8D",
"K 	c #303030",
"L 	c #F9F1D5",
"M 	c #E5E5E5",
"N 	c #393939",
"O 	c #989898",
"P 	c #A7A7A7",
"Q 	c #F0F0F0",
"R 	c #F8F1D4",
"S 	c #EEEEEE",
"T 	c #414141",
"U 	c #BEBEBE",
"V 	c #F1F0EC",
"W 	c #F2F1EE",
"X 	c #F3F2EF",
"Y 	c #F4F3F0",
"Z 	c #F5F4F2",
"` 	c #F6F5F3",
" .	c #F7F6F4",
"..	c #F9F8F7",
"+.	c #FAF9F8",
"@.	c #FBFAFA",
"#.	c #565656",
"$.	c #626262",
"%.	c #6E6E6E",
"&.	c #7A7A7A",
"*.	c #868686",
"=.	c #929292",
"-.	c #9E9E9E",
";.	c #AAAAAA",
">.	c #EED98A",
",.	c #F5E8B9",
"'.	c #EED682",
").	c #F0DC94",
"!.	c #EFDB90",
"~.	c #F0DE99",
"                                                ",
"                                                ",
"                                                ",
"                                                ",
"          . + @ # $ % & * = - ; > , '           ",
"        . ) ! ! ! ! ! ! ! ! ! ! ! ! ~ {         ",
"        . ! ] ^ / ( _ ! : ! < ! ! ! [ }         ",
"        | ! 1 2 3 4 5 ! 6 7 : } 8 ! 9 0         ",
"        a ! 1 b c d e ! ! ! ! ! ! ! f g         ",
"        h ! i j k l m ! n ! n o ! ! ! p         ",
"        q ! r s t u v ! ! ! ! ! ! ! w x         ",
"        $ ! y z A B C ! D E F G ! ! H I     J   ",
"        K ! ! ! ! ! ! ! ! ! ! ! ! ! L M         ",
"        N ! ! O ! P ! g ! ~ ! Q R ! ! S L       ",
"        T U V W X Y Z `  .9 ..+.@.! ! !         ",
"          #.$.%.&.*.=.-.;.>.,.L ! ! ! ! ! L H '.",
"                                  ! ! !         ",
"                                L   !   L       ",
"                                    L           ",
"                            ).      ,.      !.  ",
"                                    ~.          ",
"                                                ",
"                                                ",
"                                                "};
