/* XPM */
static char *magick[] = {
/* columns rows colors chars-per-pixel */
"16 16 83 1",
"  c black",
". c #0b0b0b0b0b0b0000",
"X c #1616161616160000",
"o c #2d2d22220c0c0000",
"O c #3a3a2b2b0f0f0000",
"+ c #3535353535350000",
"@ c gray21",
"# c #3737373737370000",
"$ c #4040303011110000",
"% c #4444444444440000",
"& c gray29",
"* c #5353535353530000",
"= c #6767676767670000",
"- c #6f6f6f6f6f6f0000",
"; c #7676767676760000",
": c #8f8f6c6c25250000",
"> c #91916d6d26260000",
", c #b8b88b8b30300000",
"< c #baba8d8d31310000",
"1 c #d0d09e9e36360000",
"2 c #e7e7afaf3c3c0000",
"3 c #eaeab2b23d3d0000",
"4 c #eeeeb5b53e3e0000",
"5 c #efefb6b63e3e0000",
"6 c #f3f3b8b840400000",
"7 c #fdfdc0c042420000",
"8 c #fefec1c142420000",
"9 c #ffffc2c243430000",
"0 c #fefecaca5e5e0000",
"q c #8989898989890000",
"w c #8b8b8b8b8b8b0000",
"e c gray56",
"r c #9898989898980000",
"t c #a0a0a0a0a0a00000",
"y c gray63",
"u c #a7a7a7a7a7a70000",
"i c darkgray",
"p c #aaaaaaaaaaaa0000",
"a c gray67",
"s c #acacacacacac0000",
"d c gray70",
"f c #b4b4b4b4b4b40000",
"g c gray71",
"h c #b9b9b9b9b9b90000",
"j c gray73",
"k c gray75",
"l c #fcfcd5d584840000",
"z c #fdfdd7d789890000",
"x c #f6f6d5d591910000",
"c c #f9f9dddda4a40000",
"v c #f9f9e2e2b2b20000",
"b c #fafae7e7bcbc0000",
"n c gray77",
"m c #c8c8c8c8c8c80000",
"M c gray79",
"N c #cbcbcbcbcbcb0000",
"B c gray80",
"V c #cdcdcdcdcdcd0000",
"C c #cececececece0000",
"Z c #d0d0d0d0d0d00000",
"A c #d5d5d5d5d5d50000",
"S c gray84",
"D c #dadadadadada0000",
"F c #dddddddddddd0000",
"G c #dfdfdfdfdfdf0000",
"H c #e1e1e1e1e1e10000",
"J c gray90",
"K c #e7e7e7e7e7e70000",
"L c gray93",
"P c gray94",
"I c #f1f1f1f1f1f10000",
"U c #f3f3f3f3f3f30000",
"Y c #f4f4f4f4f4f40000",
"T c #f6f6f6f6f6f60000",
"R c gray97",
"E c #f8f8f8f8f8f80000",
"W c gray98",
"Q c #fbfbfbfbfbfb0000",
"! c gray99",
"~ c #fdfdfdfdfdfd0000",
"^ c #fefefefefefe0000",
"/ c white",
"( c None",
/* pixels */
"               (",
" ///g*X X*g//T (",
" //= <3$Jg =TJ (",
" /= 4x6>EUJ =F (",
" g 4bl99/C.h g (",
" *,vz999Z+qUa* (",
" X2c0991+q/TDX (",
"  O:999o-//e+  (",
" XFU///Z+a/UNX (",
" *aHT///Z&Eny* (",
" g CATE/ETCh g (",
" /= khN;Nsd =F (",
" //= ys%ur =AF (",
" LAAg*X X*gFFC (",
"               (",
"(((((((((((((((("
};
