/* XPM */
static char * print_preview_xpm[] = {
"16 16 76 1",
" 	c None",
".	c #000000",
"+	c #9D9D8D",
"@	c #CFCFB9",
"#	c #C4C4AF",
"$	c #8D8D7F",
"%	c #353530",
"&	c #828282",
"*	c #B5B5B5",
"=	c #9C9C8C",
"-	c #E2E2D0",
";	c #EDEDE7",
">	c #C0C0AC",
",	c #B2B29F",
"'	c #828274",
")	c #4C4C44",
"!	c #C9C9C9",
"~	c #D9D9D9",
"{	c #E4E4E4",
"]	c #090908",
"^	c #D5D5BF",
"/	c #FBFBFA",
"(	c #C3C3AE",
"_	c #B5B5A2",
":	c #A6A695",
"<	c #959586",
"[	c #080807",
"}	c #ECECEC",
"|	c #FEFEFE",
"1	c #F1F1F1",
"2	c #E5E5E5",
"3	c #D7D7D7",
"4	c #090909",
"5	c #CACAB5",
"6	c #DDDDD0",
"7	c #B7B7A4",
"8	c #AAAA98",
"9	c #9B9B8B",
"0	c #8C8C7D",
"a	c #0A0A09",
"b	c #FFFFFF",
"c	c #E3E3E3",
"d	c #929283",
"e	c #BABAA7",
"f	c #ADAD9B",
"g	c #9F9F8E",
"h	c #909081",
"i	c #727266",
"j	c #4C4C45",
"k	c #FCFCFC",
"l	c #EBEBEB",
"m	c #34342F",
"n	c #878779",
"o	c #A0A090",
"p	c #737367",
"q	c #010101",
"r	c #717171",
"s	c #DADADA",
"t	c #E8E8E8",
"u	c #F0F0F0",
"v	c #D1D1D1",
"w	c #4B4B43",
"x	c #414141",
"y	c #DCDCDC",
"z	c #CACACA",
"A	c #8A8A8A",
"B	c #C0C0C0",
"C	c #E36548",
"D	c #DBDBDB",
"E	c #5B5B5B",
"F	c #B3B3B3",
"G	c #EED684",
"H	c #EED683",
"I	c #707070",
"J	c #A4A4A4",
"K	c #585858",
"   ....  .      ",
"  .+@#$%&*..    ",
" .=-;>,')!~{..  ",
" ]^/(_:<[}|123..",
" 4567890abbbb1c.",
" .defghijkbbbl. ",
"..mnodpqrstub.  ",
".vvwaax.qqy.zy..",
".vvvucyyqqqyAAA.",
".vBbCuuDyqqqAAE.",
".vvFbGHAvAqqqIE.",
"..vvBJAAvAEqqAE.",
"  ..vvvvvAEAEA..",
"    ..vvvAKA..  ",
"      ..vA..    ",
"        ..      "};
