/* XPM */
static char * 16_reply_xpm[] = {
"16 16 27 1",
" 	c None",
".	c #010101",
"+	c #2F2F2F",
"@	c #A7A4A0",
"#	c #FCFCFC",
"$	c #64625F",
"%	c #FFFFFF",
"&	c #5D5B57",
"*	c #868580",
"=	c #E5E2DB",
"-	c #FBFBF8",
";	c #716E6B",
">	c #000000",
",	c #FBFAF7",
"'	c #A5A29D",
")	c #990000",
"!	c #EFEFEF",
"~	c #CCCCCC",
"{	c #797873",
"]	c #7D7A77",
"^	c #F7F5F1",
"/	c #090808",
"(	c #D7D4CE",
"_	c #D8D5CF",
":	c #7F0000",
"<	c #181818",
"[	c #090909",
"                ",
"                ",
"                ",
"  .+.........   ",
" .@#########$.  ",
" .%&%%%%%%%*=.  ",
" .%-;%>>>>>>>>> ",
" .%--;>%%%%%%%> ",
" .%-,'>%))))!~> ",
" .%,{->%)))!!~> ",
" .%]-^>%))))!~> ",
" ./(__>%)!)):~> ",
"  ....>%!!!::~> ",
"      >%~~~~~~< ",
"      >>[>>>>>> ",
"                "};
