/* XPM */
static char * schedule_meeting_16_xpm[] = {
"16 16 159 2",
"  	c None",
". 	c #000000",
"+ 	c #8A8575",
"@ 	c #EEDEA6",
"# 	c #F0DD96",
"$ 	c #EFDB95",
"% 	c #AFA06B",
"& 	c #655C38",
"* 	c #0B0B0B",
"= 	c #A49D83",
"- 	c #F1DD97",
"; 	c #F2E5B3",
"> 	c #F3E9C1",
", 	c #EBDEB0",
"' 	c #B4A981",
") 	c #C6C6C6",
"! 	c #535353",
"~ 	c #131313",
"{ 	c #EFDE9F",
"] 	c #F1E1AA",
"^ 	c #F8F3D9",
"/ 	c #FBF3D5",
"( 	c #EAE1BE",
"_ 	c #948D73",
": 	c #161615",
"< 	c #4D4D4D",
"[ 	c #B7B7B7",
"} 	c #655D53",
"| 	c #56493A",
"1 	c #564838",
"2 	c #514433",
"3 	c #D9C993",
"4 	c #F8F1CF",
"5 	c #FDF7DB",
"6 	c #FAF3D3",
"7 	c #E6DCB9",
"8 	c #867F66",
"9 	c #2D2C2A",
"0 	c #978774",
"a 	c #D5B792",
"b 	c #D2B38D",
"c 	c #C7A882",
"d 	c #B39672",
"e 	c #2B2824",
"f 	c #EEE7CF",
"g 	c #F4EBC9",
"h 	c #FEF6D5",
"i 	c #FBF2CD",
"j 	c #E7DCB5",
"k 	c #857D63",
"l 	c #5A544D",
"m 	c #B89F80",
"n 	c #D8BA94",
"o 	c #CAAB84",
"p 	c #C2A27B",
"q 	c #54493C",
"r 	c #C5B887",
"s 	c #E9E0BF",
"t 	c #FAEFC8",
"u 	c #FAEDC0",
"v 	c #E5D8A9",
"w 	c #887F5F",
"x 	c #686158",
"y 	c #BFA482",
"z 	c #D2B38E",
"A 	c #CEAF89",
"B 	c #C7A781",
"C 	c #C2A17A",
"D 	c #726555",
"E 	c #B6A977",
"F 	c #CAC4AD",
"G 	c #B0A47F",
"H 	c #AEA277",
"I 	c #4B473C",
"J 	c #8F8A82",
"K 	c #BDA382",
"L 	c #CCAD87",
"M 	c #C9A983",
"N 	c #C4A47D",
"O 	c #BE9E77",
"P 	c #6E6A64",
"Q 	c #495946",
"R 	c #3D5146",
"S 	c #32483E",
"T 	c #0F0F05",
"U 	c #77736D",
"V 	c #988A79",
"W 	c #C9AA86",
"X 	c #B29573",
"Y 	c #856F55",
"Z 	c #69726C",
"` 	c #A4D3C5",
" .	c #8DCDBA",
"..	c #7BBDA9",
"+.	c #376052",
"@.	c #15241E",
"#.	c #443C31",
"$.	c #403528",
"%.	c #3C3329",
"&.	c #5A6A63",
"*.	c #85C9B7",
"=.	c #75C1AB",
"-.	c #6AB89F",
";.	c #5FAE93",
">.	c #468A73",
",.	c #173128",
"'.	c #303030",
").	c #9A9A9A",
"!.	c #C5D2DE",
"~.	c #B7C9DA",
"{.	c #667685",
"].	c #23292F",
"^.	c #7A998C",
"/.	c #72B7A2",
"(.	c #7EBBA7",
"_.	c #5DB093",
":.	c #53A688",
"<.	c #3A7D65",
"[.	c #2E2E2E",
"}.	c #959799",
"|.	c #B7C9DB",
"1.	c #90ABC5",
"2.	c #89A5BF",
"3.	c #809DB7",
"4.	c #758FA7",
"5.	c #171E24",
"6.	c #749786",
"7.	c #549F85",
"8.	c #85B5A4",
"9.	c #4DA584",
"0.	c #449B7A",
"a.	c #2F745A",
"b.	c #BFCFDD",
"c.	c #7F96AB",
"d.	c #85A0BA",
"e.	c #7B97B1",
"f.	c #728FA9",
"g.	c #69849D",
"h.	c #404E5C",
"i.	c #6B927E",
"j.	c #49967A",
"k.	c #7EB09D",
"l.	c #409A78",
"m.	c #38916F",
"n.	c #277153",
"o.	c #ACBFD0",
"p.	c #687F95",
"q.	c #92A9BD",
"r.	c #6F8BA5",
"s.	c #66839D",
"t.	c #577188",
"u.	c #596774",
"v.	c #A1B5C6",
"w.	c #4F6376",
"x.	c #8FA4B7",
"y.	c #607D97",
"z.	c #57758F",
"A.	c #49657D",
"B.	c #5A6773",
"    . . . . . .                 ",
"  . + @ # $ % & . * . . . .     ",
". = - ; > , ' . ) ! ~ . . . .   ",
". { ] ^ / ( _ : < [ } | 1 2 . . ",
". 3 4 5 6 7 8 . 9 0 a b c d e . ",
". f g h i j k . l m n b o p q . ",
". r s t u v w . x y z A B C D . ",
"  . E F G H I . J K L M N O P . ",
"    . Q R S T . U V W p X Y . . ",
"  . Z `  ...+.@.. . #.$.%..     ",
". &.*.=.-.;.>.,.'.).!.~.{.]..   ",
". ^./.(._.:.<.[.}.|.1.2.3.4.5.. ",
". 6.7.8.9.0.a.. b.c.d.e.f.g.h.. ",
". i.j.k.l.m.n.. o.p.q.r.s.t.u.. ",
". . . . . . . . v.w.x.y.z.A.B.. ",
"              . . . . . . . . . "};
