/* XPM */
static char * schedule_meeting_16_xpm[] = {
"16 16 87 1",
" 	c None",
".	c #000000",
"+	c #ADA99C",
"@	c #E6E1D0",
"#	c #F0EAD9",
"$	c #A9A598",
"%	c #121414",
"&	c #1B1B1C",
"*	c #080809",
"=	c #DBD6C7",
"-	c #5A5A5A",
";	c #676767",
">	c #807D76",
",	c #D49A3E",
"'	c #D2973B",
")	c #6D6B6B",
"!	c #7A7979",
"~	c #282724",
"{	c #DD9831",
"]	c #1A0E01",
"^	c #BC6D1B",
"/	c #BE6D13",
"(	c #BA6613",
"_	c #3E3C36",
":	c #D69029",
"<	c #D18D27",
"[	c #737067",
"}	c #120A01",
"|	c #CE791C",
"1	c #C47013",
"2	c #4A4136",
"3	c #A0731E",
"4	c #96691A",
"5	c #050B07",
"6	c #2B1804",
"7	c #8C4E0D",
"8	c #844A0D",
"9	c #1F2A0D",
"0	c #306220",
"a	c #4F7242",
"b	c #448D44",
"c	c #297E29",
"d	c #386E38",
"e	c #1C130B",
"f	c #AC600C",
"g	c #713F0A",
"h	c #693A0A",
"i	c #AA5F0A",
"j	c #192B10",
"k	c #275926",
"l	c #68A769",
"m	c #358A36",
"n	c #2D812D",
"o	c #6C7C8B",
"p	c #534C46",
"q	c #241609",
"r	c #23180E",
"s	c #484644",
"t	c #354A4D",
"u	c #4F7E4F",
"v	c #399239",
"w	c #728EA9",
"x	c #5B6A7A",
"y	c #C8CBCD",
"z	c #C3C7CD",
"A	c #8191A3",
"B	c #5B738B",
"C	c #4E6479",
"D	c #318731",
"E	c #277528",
"F	c #24282B",
"G	c #8A9EB4",
"H	c #6A86A1",
"I	c #DCE1E5",
"J	c #899BAB",
"K	c #687E96",
"L	c #546D87",
"M	c #0D131A",
"N	c #8096AB",
"O	c #5D7996",
"P	c #53687D",
"Q	c #CCD3DB",
"R	c #131619",
"S	c #4A5D6F",
"T	c #5A7087",
"U	c #496481",
"V	c #445D79",
"        ....    ",
"       .+@#$.   ",
"     %&*=###.   ",
"    .-;.>,'#.   ",
"   .)!..~{{#.   ",
"   ]^//(_:<#[.  ",
"   }|||1234##.5 ",
"   6(78190abcd. ",
"   efghijklmnn. ",
"  %opqrst5uvnn. ",
" %owxyzABC%DcE. ",
" FGHxIIJKLM.... ",
" FNOPQQJQBR     ",
" FKLSAATUVM     ",
" .RMMMMMMM.     ",
"                "};
