/* XPM */
static char * score_normal_xpm[] = {
"16 16 5 1",
" 	c None",
".	c #000000",
"+	c #17D1EA",
"@	c #FFFFFF",
"#	c #EF9815",
"                ",
"                ",
"    ...         ",
"   .+.+.        ",
"   .@#@.        ",
"   .@@@.        ",
"   ..@..        ",
"  ..@@@..       ",
" ..@@@@@..      ",
" ..@@@@@..      ",
" ..@@@@@..      ",
" ..@@@@@..      ",
"  .@@@@@.       ",
"   ##@##        ",
"   ## ##        ",
"                "};
