/* XPM */
static char * score_higher_xpm[] = {
"16 16 7 1",
" 	c None",
".	c #BCBCBC",
"+	c #00FF00",
"@	c #000000",
"#	c #17D1EA",
"$	c #FFFFFF",
"%	c #EF9815",
"                ",
"           .++  ",
"    @@@    .++++",
"   @#@#@   .++++",
"   @$%$@   .++++",
"   @$$$@   .  ++",
"   @@$@@   .    ",
"  @@$$$@@  .    ",
" @@$$$$$@@@@    ",
" @@$$$$$@@ .    ",
" @@$$$$$@  .    ",
" @@$$$$$@  .    ",
"  @$$$$$@  .    ",
"   %%$%%   .    ",
"   %% %%   .    ",
"                "};
