/* XPM */
static char * send_receive_xpm[] = {
"16 16 39 1",
" 	c None",
".	c #000000",
"+	c #F7EFD0",
"@	c #F7EFD1",
"#	c #EED680",
"$	c #C38909",
"%	c #F6ECC9",
"&	c #D1940C",
"*	c #B98208",
"=	c #A59458",
"-	c #D1BC70",
";	c #E9D17B",
">	c #B07C08",
",	c #916608",
"'	c #F3E3A8",
")	c #AE7B0A",
"!	c #F4E4AD",
"~	c #F5E9BC",
"{	c #D8E6D2",
"]	c #B9C9B1",
"^	c #6F9059",
"/	c #C6B26A",
"(	c #D7E5D0",
"_	c #AECCA1",
":	c #557C3B",
"<	c #D3E3CB",
"[	c #D0E1C9",
"}	c #DBE7D6",
"|	c #B9C3B5",
"1	c #BDCEB6",
"2	c #A9C79C",
"3	c #65894C",
"4	c #748C64",
"5	c #668154",
"6	c #669447",
"7	c #58833C",
"8	c #E1EBDC",
"9	c #5E8A41",
"0	c #E0EADB",
"    .           ",
"   .+.          ",
"  .@#$.         ",
" .%##&*.        ",
".%=-;>,,.       ",
"...'#)...       ",
"  .!#).  .....  ",
"  .~#).  .{]^.  ",
"  .#/).  .(_:.  ",
"  .....  .<_:.  ",
"       ...[_:...",
"       .}|12345.",
"        .}__67. ",
"         .8_9.  ",
"          .0.   ",
"           .    "};
