/* XPM */
static char * send_receive_xpm[] = {
"16 16 37 1",
" 	c None",
".	c #000000",
"+	c #F8D4CD",
"@	c #F8D6CF",
"#	c #ED9280",
"$	c #B33118",
"%	c #F7CEC6",
"&	c #C1351A",
"*	c #A92F16",
"=	c #DD3D1E",
"-	c #E86F57",
";	c #EC8A77",
">	c #A12D16",
",	c #852512",
"'	c #F3B3A6",
")	c #F3B8AC",
"!	c #F5C4BA",
"~	c #D2DCE5",
"{	c #ABBECE",
"]	c #547693",
"^	c #E66349",
"/	c #CFDAE4",
"(	c #A2B7C9",
"_	c #425D73",
":	c #CCD7E1",
"<	c #C9D5E0",
"[	c #D5DEE6",
"}	c #A9BDCE",
"|	c #B1C3D2",
"1	c #9BB2C6",
"2	c #4D6C86",
"3	c #577A98",
"4	c #4F6F8A",
"5	c #456178",
"6	c #DBE3EA",
"7	c #496780",
"8	c #DAE2E9",
"    .           ",
"   .+.          ",
"  .@#$.         ",
" .%##&*.        ",
".%=-;>,,.       ",
"...'#>...       ",
"  .)#>.  .....  ",
"  .!#>.  .~{].  ",
"  .#^>.  ./(_.  ",
"  .....  .:(_.  ",
"       ...<(_...",
"       .[}|1232.",
"        .[((45. ",
"         .6(7.  ",
"          .8.   ",
"           .    "};
