/* XPM */
static char * 16_send_receive_xpm[] = {
"16 16 24 1",
" 	c None",
".	c #000000",
"+	c #EEC7C1",
"@	c #8B625D",
"#	c #F2D1CB",
"$	c #CE3216",
"%	c #D25B46",
"&	c #CF8173",
"*	c #F4D8D3",
"=	c #B72C13",
"-	c #D29C94",
";	c #C99A93",
">	c #95220D",
",	c #7F8488",
"'	c #C5CED6",
")	c #CDD5DC",
"!	c #BAC6CF",
"~	c #506D89",
"{	c #9EADBB",
"]	c #95A6B7",
"^	c #4F575E",
"/	c #3A4148",
"(	c #42484E",
"_	c #3F3F3F",
"                ",
"                ",
"                ",
"   ..           ",
"  .+@..         ",
" .#$%&.         ",
".*$$$=.         ",
" .-$==.    ..   ",
"  .;>..  ..,'.  ",
"   ..    .)!~{. ",
"         .]~~~^.",
"         .]~~/. ",
"         ...(.  ",
"           ._   ",
"                ",
"                "};
