/* XPM */
static char * task_xpm[] = {
"16 16 8 1",
" 	c None",
".	c #000000",
"+	c #FFFFFF",
"@	c #F3F3F3",
"#	c #CCCCCC",
"$	c #B2B2B2",
"%	c #ECECEC",
"&	c #EEEEEE",
"   . . . . .    ",
"  ...........   ",
" .+.+.+.+.+.@.  ",
" .+.#.#.#.#.$.  ",
" .+%%%%%%%%%$.  ",
" .+#########$.  ",
" .+%%%%%%%%%$.  ",
" .+#########$.  ",
" .+%%%%%%%%%$.  ",
" .+#########$.  ",
" .+%%%%%%%%%$.  ",
" .+#########$.  ",
" .+%%%%%%%%%$.  ",
" .&$$$$$$$$$$.  ",
"  ...........   ",
"                "};
