/* XPM */
static char * timezone_16_xpm[] = {
"16 16 47 1",
" 	c None",
".	c #000000",
"+	c #F0F2F4",
"@	c #ADBECB",
"#	c #D1D4CA",
"$	c #E5E2CA",
"%	c #E2E0CA",
"&	c #67889D",
"*	c #DEDFD4",
"=	c #D5CC90",
"-	c #006594",
";	c #F4E490",
">	c #8E9E90",
",	c #BFBE90",
"'	c #D9D090",
")	c #BABA90",
"!	c #00006C",
"~	c #EFEAD4",
"{	c #769292",
"]	c #A2AA91",
"^	c #A1AA90",
"/	c #97A391",
"(	c #D7C667",
"_	c #F9F2D4",
":	c #A3AB90",
"<	c #CAC490",
"[	c #BECBD5",
"}	c #CDC790",
"|	c #B8AE67",
"1	c #C8C490",
"2	c #C8C491",
"3	c #D6CD90",
"4	c #1C7E98",
"5	c #167697",
"6	c #859990",
"7	c #94A290",
"8	c #E5D890",
"9	c #578794",
"0	c #076996",
"a	c #8B9D91",
"b	c #C3C090",
"c	c #D1CA90",
"d	c #8D9D91",
"e	c #448091",
"f	c #8399AA",
"g	c #B7AE67",
"h	c #ABA667",
"................",
".+@@@@@#@@$%@@&.",
".*=----;>,;')-!.",
".~{---];^/;,;;(.",
"._;]----],',';(.",
"._;;---:;;;;;'(.",
"._<---;;;{;;;;(.",
"._----;;-]-;{;(.",
".[;----}';;{-;|.",
".[-;)--12;;345!.",
".[;;;]-678;}90!.",
".[];;{---=;a--!.",
".[-;)----bc{--!.",
".[-;-----de---!.",
".f!gh!!!!!!!!!..",
"................"};
