/* XPM */
static char * timezone_16_xpm[] = {
"16 16 52 1",
" 	c None",
".	c #13202C",
"+	c #1A2A3A",
"@	c #1C2D3E",
"#	c #E7EAED",
"$	c #97A8B6",
"%	c #BDC1B5",
"&	c #D8D3B5",
"*	c #D4D1B5",
"=	c #6A7B8A",
"-	c #CED0C1",
";	c #C2B880",
">	c #4B6983",
",	c #EED680",
"'	c #7F8B80",
")	c #A9A880",
"!	c #C7BC80",
"~	c #A4A480",
"{	c #3E576C",
"]	c #E6DFC1",
"^	c #718282",
"/	c #8E9581",
"(	c #8D9580",
"_	c #858F81",
":	c #C5B16A",
"<	c #F5EAC1",
"[	c #8F9680",
"}	c #B5AF80",
"|	c #A8B6C2",
"1	c #B9B280",
"2	c #A2986A",
"3	c #B3AE80",
"4	c #B3AF81",
"5	c #C4B980",
"6	c #647C8B",
"7	c #5D7688",
"8	c #798780",
"9	c #838E80",
"0	c #D7C680",
"a	c #687C85",
"b	c #506C85",
"c	c #C3B880",
"d	c #7D8A81",
"e	c #ADAA80",
"f	c #BDB580",
"g	c #7E8A81",
"h	c #5F7681",
"i	c #788795",
"j	c #A1986A",
"k	c #96916A",
"l	c #2C3E4D",
"m	c #15222F",
".++++++++++++++@",
"+#$$$$$%$$&*$$=+",
"+-;>>>>,'),!~>{+",
"+]^>>>/,(_,),,:+",
"+<,/>>>>/)!)!,:+",
"+<,,>>>[,,,,,!:+",
"+<}>>>,,,^,,,,:+",
"+<>>>>,,>/>,^,:+",
"+|,>>>>1!,,^>,2+",
"+|>,~>>34,,567{+",
"+|,,,/>890,1ab{+",
"+|/,,^>>>c,d>>{+",
"+|>,~>>>>ef^>>{+",
"+|>,>>>>>gh>>>{+",
"+i{jk{{{{{{{{{l+",
"m++++++++++++++@"};
