/* XPM */
static char * timezone_16_xpm[] = {
"16 16 143 2",
"  	c None",
". 	c #000000",
"+ 	c #2A2B2B",
"@ 	c #020203",
"# 	c #050709",
"$ 	c #020202",
"% 	c #7490B2",
"& 	c #A6BDD4",
"* 	c #C0D3E5",
"= 	c #E6E7E6",
"- 	c #C7CCC5",
"; 	c #9BAC9F",
"> 	c #030304",
", 	c #010101",
"' 	c #82848E",
") 	c #80846B",
"! 	c #7FA59B",
"~ 	c #AECFE0",
"{ 	c #C0D8EF",
"] 	c #B4C4C2",
"^ 	c #6A8B6C",
"/ 	c #699678",
"( 	c #51826F",
"_ 	c #2D535E",
": 	c #1C492A",
"< 	c #5EA66A",
"[ 	c #7BC280",
"} 	c #67BA7A",
"| 	c #7AC7A7",
"1 	c #B1D1EC",
"2 	c #94ADAF",
"3 	c #719177",
"4 	c #609996",
"5 	c #5B9583",
"6 	c #537762",
"7 	c #6E9874",
"8 	c #64A970",
"9 	c #6DBD77",
"0 	c #5FB565",
"a 	c #5DAD6B",
"b 	c #89BFF1",
"c 	c #89BFF5",
"d 	c #4C9DAB",
"e 	c #459D82",
"f 	c #55A395",
"g 	c #557A5C",
"h 	c #1A304E",
"i 	c #74B678",
"j 	c #5EB666",
"k 	c #49A54F",
"l 	c #4CA34F",
"m 	c #90C4E4",
"n 	c #7BB8F8",
"o 	c #7FBCF8",
"p 	c #49A09A",
"q 	c #389B6F",
"r 	c #81ACBF",
"s 	c #617B65",
"t 	c #5B735E",
"u 	c #010202",
"v 	c #7AAD6E",
"w 	c #438C3D",
"x 	c #6AA8A1",
"y 	c #92C5F1",
"z 	c #77B8F6",
"A 	c #77B7F7",
"B 	c #7BB7F2",
"C 	c #5DA9BA",
"D 	c #56A4A1",
"E 	c #85B1D9",
"F 	c #637679",
"G 	c #586D86",
"H 	c #040506",
"I 	c #6B975F",
"J 	c #749486",
"K 	c #85BDD9",
"L 	c #8FBFEF",
"M 	c #82BBF4",
"N 	c #82BAF2",
"O 	c #84B9EE",
"P 	c #71AFEE",
"Q 	c #96ABBF",
"R 	c #8AB7D4",
"S 	c #668B77",
"T 	c #557E74",
"U 	c #040406",
"V 	c #649D69",
"W 	c #508B52",
"X 	c #508074",
"Y 	c #7EAEDD",
"Z 	c #81BBF4",
"` 	c #81B9F2",
" .	c #83B8EE",
"..	c #80ACD5",
"+.	c #908466",
"@.	c #64825C",
"#.	c #5C7F5A",
"$.	c #627F5C",
"%.	c #5C7677",
"&.	c #5C9D67",
"*.	c #5D9071",
"=.	c #617576",
"-.	c #7DB2E8",
";.	c #7EB4EA",
">.	c #7BB0E6",
",.	c #7698B8",
"'.	c #66855E",
").	c #53885E",
"!.	c #51845C",
"~.	c #61825D",
"{.	c #3D362D",
"].	c #0A1C14",
"^.	c #609D73",
"/.	c #68A879",
"(.	c #628E77",
"_.	c #7AAEE4",
":.	c #70A4DB",
"<.	c #72A7DD",
"[.	c #6997C6",
"}.	c #598860",
"|.	c #51835C",
"1.	c #638860",
"2.	c #07090A",
"3.	c #50716C",
"4.	c #6FA779",
"5.	c #5D8976",
"6.	c #7AA7D4",
"7.	c #73A5D7",
"8.	c #6495C7",
"9.	c #557FAB",
"0.	c #65855F",
"a.	c #5A875F",
"b.	c #558462",
"c.	c #778383",
"d.	c #7B98B4",
"e.	c #7CA0C3",
"f.	c #7397BD",
"g.	c #7D8FA0",
"h.	c #809980",
"i.	c #143325",
"j.	c #597658",
"k.	c #030505",
"l.	c #030404",
"                                ",
"          . . + @ @ #           ",
"      . $ % & * = - ; > ,       ",
"    . ' ) ! ~ { ] ^ / ( _ ,     ",
"    : < [ } | 1 2 3 4 5 6 $     ",
"  , 7 8 9 0 a b c d e f g h ,   ",
"  , i j k l m n o p q r s t u   ",
"  , v w x y z A B C D E F G H   ",
"  , I J K L M N O P Q R S T U   ",
"  , V W X Y Z `  ...+.@.#.$.H   ",
"  u %.&.*.=.-.;.>.,.'.).!.~.{.  ",
"    ].^./.(._.:.<.[.}.|.1.2.    ",
"    @ 3.4.5.6.7.8.9.0.a.b.>     ",
"      @ H c.d.e.f.g.h.i.j.      ",
"          u u k.> l.>           ",
"                                "};
