/* XPM */
static char * undelete_message_xpm[] = {
"16 16 58 1",
" 	c None",
".	c #314E6C",
"+	c #9DB8D2",
"@	c #4B6983",
"#	c #000000",
"$	c #586A52",
"%	c #64795D",
"&	c #6E8567",
"*	c #A4B29F",
"=	c #ABB5A8",
"-	c #96A790",
";	c #3B4039",
">	c #C2C9BF",
",	c #6C8265",
"'	c #6D8466",
")	c #799271",
"!	c #FFFFFF",
"~	c #C0CBBC",
"{	c #A3B19C",
"]	c #83957D",
"^	c #E7E9E5",
"/	c #BFCABE",
"(	c #718869",
"_	c #9DAB99",
":	c #333C30",
"<	c #626A5F",
"[	c #959B90",
"}	c #D5D6D5",
"|	c #C7CBC5",
"1	c #B4BCB3",
"2	c #7A8676",
"3	c #758271",
"4	c #455241",
"5	c #3A4436",
"6	c #879B81",
"7	c #9FA89C",
"8	c #556550",
"9	c #879B83",
"0	c #424D40",
"a	c #84967F",
"b	c #414A3D",
"c	c #465443",
"d	c #B0BAAD",
"e	c #84957F",
"f	c #687B63",
"g	c #5A6257",
"h	c #C3CEBF",
"i	c #84957E",
"j	c #AEBDA9",
"k	c #83957E",
"l	c #4A5846",
"m	c #465341",
"n	c #7A9472",
"o	c #728A6B",
"p	c #5E7058",
"q	c #6D8267",
"r	c #4D5C49",
"s	c #7B8678",
"       .        ",
"      +@.       ",
"     +@@@.      ",
"                ",
"     ######     ",
"    #$%&*=-#    ",
"   ;>,')!~{]#   ",
"   ;^/(!!!_:#   ",
"   <[}|12345#   ",
"   <67890abc#   ",
"   <6d890ebf#   ",
"   g6h890ibf#   ",
"   <6j860klm#   ",
"    <jnopqr#    ",
"     s#####     ",
"                "};
