/* XPM */
static char * vfolder_xpm[] = {
"16 16 63 1",
" 	c None",
".	c #000000",
"+	c #CFCFCF",
"@	c #FFFFFF",
"#	c #E6E6E6",
"$	c #E4E5DF",
"%	c #D5D6CB",
"&	c #D6D7CA",
"*	c #A3A39D",
"=	c #BABABA",
"-	c #F5F6F0",
";	c #ADB198",
">	c #C2C6A9",
",	c #C0C3A7",
"'	c #B4B89D",
")	c #6D705F",
"!	c #EAECDB",
"~	c #F6F6F4",
"{	c #F0F0EA",
"]	c #EFF0E7",
"^	c #EEF0E5",
"/	c #E8EAD8",
"(	c #E6E8D5",
"_	c #E5E8D4",
":	c #E4E7D2",
"<	c #C7C9B6",
"[	c #F7F7F7",
"}	c #DADEBF",
"|	c #DADEBE",
"1	c #D8DCBC",
"2	c #D2D6B4",
"3	c #CDD2AD",
"4	c #CBD1AA",
"5	c #95997C",
"6	c #A3A3A3",
"7	c #F0F1E7",
"8	c #CFD4AF",
"9	c #D1D5B2",
"0	c #CED2AF",
"a	c #C6CBA4",
"b	c #C3C99E",
"c	c #8D9270",
"d	c #929292",
"e	c #EFF1E5",
"f	c #CACFA8",
"g	c #C8CDA5",
"h	c #C3C89D",
"i	c #BFC598",
"j	c #9B9B9B",
"k	c #EBECDE",
"l	c #C6CCA3",
"m	c #C9CCB9",
"n	c #929778",
"o	c #919576",
"p	c #8F9474",
"q	c #8F9372",
"r	c #666951",
"s	c #969696",
"t	c #878787",
"u	c #7E7E7E",
"v	c #8B8B8B",
"w	c #919191",
"x	c #888888",
"   ...          ",
"  .+@+. ... ..  ",
" .+@@@#.+@+.#+. ",
" .@@....@@@#@@+.",
".+@.$%&*.@@@@@=.",
".@.-;>,')....+. ",
".+.!~{]^/(_:<.+.",
" ..[}|1233345.6.",
".#.78920aaabc.d.",
".#.e34fghhhic.j.",
" ..kfglhhhhic.. ",
" ..mnopqccccr.s.",
".+@..........t=.",
".##.suuuv..wx+=.",
" .. .#@+.  .... ",
"     ...        "};
