/* XPM */
static char * 16_work_offline_xpm[] = {
"16 16 14 1",
" 	c None",
".	c #424242",
"+	c #212121",
"@	c #737373",
"#	c #EFEFEF",
"$	c #DEDEDE",
"%	c #CECECE",
"&	c #101010",
"*	c #8C8C8C",
"=	c #636363",
"-	c #ADADAD",
";	c #9C9C9C",
">	c #000000",
",	c #BDBDBD",
"                ",
"                ",
"                ",
"     .+++..@    ",
"    . ###$$%&   ",
"   @#*=*-*=*%@  ",
"   .#;> %->;%+  ",
"   .$-> %->,%+  ",
"   .$;$#,;$ %+  ",
"   .$$ %+% #%&  ",
"   @%-$@>@%-%.  ",
"    .,;;;;-,.   ",
"     @++++&.    ",
"                ",
"                ",
"                "};
