/* XPM */
static char * yearview_xpm[] = {
"24 24 17 1",
" 	c None",
".	c #000000",
"+	c #FFFFFF",
"@	c #F2F1ED",
"#	c #AAA9A6",
"$	c #D7D6D2",
"%	c #92918E",
"&	c #B7B6B3",
"*	c #CBCAC6",
"=	c #919191",
"-	c #888785",
";	c #B6B6B2",
">	c #888884",
",	c #C1C1BD",
"'	c #A7A6A3",
")	c #D8D8D4",
"!	c #666666",
"....................... ",
".+++++++++++++++++++++. ",
".+@@@@@@@#$%&*@@@@@@@=. ",
".+@@@@@@@-;>,'@@@@@@@=. ",
".+====================. ",
".+@@@@@@@@@@@@@@@@@@@=. ",
".+===@===@===@===@====. ",
".+)=)@)=)@)=)@)=)@)=)=. ",
".+=)=@=)=@=)=@=)=@=)==. ",
".+@@@@@@@@@@@@@@@@@@@=. ",
".+===@===@===@===@====. ",
".+)=)@)=)@)=)@)=)@)=)=. ",
".+=)=@=)=@=)=@=)=@=)==. ",
".+@@@@@@@@@@@@@@@@@@@=. ",
".+===@===@===@===@====. ",
".+)=)@)=)@)=)@)=)@)=)=. ",
".+=)=@=)=@=)=@=)=@=)==. ",
".+@@@@@@@@@@@@@@@@@@@=. ",
".+===@===@===@===@====. ",
".+)=)@)=)@)=)@)=)@)=)=. ",
".+=)=@=)=@=)=@=)=@=)==. ",
".)===================!. ",
"....................... ",
"                        "};
