/* XPM */
static char * cursor_zoom_in_xpm[] = {
"32 32 2 1",
" 	c None",
".	c #000000",
"                                ",
"                                ",
"                                ",
"                                ",
"                                ",
"                                ",
"        ......                  ",
"       ..     ..                ",
"      ..       ..               ",
"      .         .               ",
"     .    ...    .              ",
"     .    ...    .              ",
"     .  .......  .              ",
"     .  .......  .              ",
"     .    ...    .              ",
"      .   ...   ..              ",
"      ..       . .              ",
"       ..     . . .             ",
"        ........ . .            ",
"         .....  . . .           ",
"                 . . .          ",
"                  . . .         ",
"                   . . .        ",
"                    . . .       ",
"                     .   .      ",
"                      .  .      ",
"                       ..       ",
"                                ",
"                                ",
"                                ",
"                                ",
"                                "};
