/* XPM */
static char * broken_image_24_xpm[] = {
"24 24 142 2",
"  	c None",
". 	c #000000",
"+ 	c #D3D3D3",
"@ 	c #F6F6F6",
"# 	c #FFFFFF",
"$ 	c #F9F9F9",
"% 	c #DADADA",
"& 	c #585858",
"* 	c #C7C7C7",
"= 	c #D1D1D1",
"- 	c #D6D6D6",
"; 	c #B2B2B2",
"> 	c #D9D9D9",
", 	c #D8D8D8",
"' 	c #DDDDDD",
") 	c #C0C0C0",
"! 	c #E1E1E1",
"~ 	c #F0F0F0",
"{ 	c #9B9B9B",
"] 	c #D4D4D4",
"^ 	c #FEFEFE",
"/ 	c #FDFDFD",
"( 	c #FCFCFB",
"_ 	c #FBFBFB",
": 	c #AFAFAE",
"< 	c #E9E9E9",
"[ 	c #DFDFDF",
"} 	c #8F8F8F",
"| 	c #FAFAF9",
"1 	c #F9F9F8",
"2 	c #A4A4A3",
"3 	c #F4F4F4",
"4 	c #CFCFCF",
"5 	c #A2A2A2",
"6 	c #D5D5D5",
"7 	c #F8F8F7",
"8 	c #F8F7F6",
"9 	c #9E9E9E",
"0 	c #F7F6F5",
"a 	c #F6F6F4",
"b 	c #F4F3F2",
"c 	c #DEDDDC",
"d 	c #D3D2D0",
"e 	c #B7B7B5",
"f 	c #9F9E9D",
"g 	c #706F6F",
"h 	c #65625A",
"i 	c #F5F4F3",
"j 	c #F2F2F0",
"k 	c #E4E4E2",
"l 	c #DAD9D7",
"m 	c #D8D8D6",
"n 	c #E3E3E1",
"o 	c #AFAEAC",
"p 	c #88847B",
"q 	c #D3D2D1",
"r 	c #DF421E",
"s 	c #F3F3F1",
"t 	c #EEEDEB",
"u 	c #EDECEA",
"v 	c #E9E8E6",
"w 	c #EEEEED",
"x 	c #C4C3C2",
"y 	c #8F8A81",
"z 	c #F6F5F4",
"A 	c #D0D0CE",
"B 	c #ECEBE9",
"C 	c #EAE9E7",
"D 	c #E5E4E2",
"E 	c #D2D1CE",
"F 	c #8D887E",
"G 	c #CECDCD",
"H 	c #F0F0EE",
"I 	c #EFEFED",
"J 	c #F1F0EE",
"K 	c #F0EFED",
"L 	c #EFEEEC",
"M 	c #E8E7E5",
"N 	c #E5E4E1",
"O 	c #E4E3E0",
"P 	c #E1DFDC",
"Q 	c #979288",
"R 	c #A49E93",
"S 	c #CBCBC9",
"T 	c #E7E6E3",
"U 	c #E3E2DF",
"V 	c #E2E0DD",
"W 	c #E0DFDB",
"X 	c #A19C90",
"Y 	c #EDEDEB",
"Z 	c #C9C8C7",
"` 	c #EBEAE8",
" .	c #E9E8E5",
"..	c #E6E4E1",
"+.	c #E3E2DE",
"@.	c #DFDEDA",
"#.	c #DDDCD8",
"$.	c #A19B90",
"%.	c #C6C5C3",
"&.	c #E8E7E4",
"*.	c #E7E5E2",
"=.	c #E4E3DF",
"-.	c #DEDDD9",
";.	c #DCDBD7",
">.	c #C3C2C0",
",.	c #E6E5E2",
"'.	c #E5E4E0",
").	c #E2E1DD",
"!.	c #EDECEB",
"~.	c #D9D7D3",
"{.	c #9F998D",
"].	c #C1C0BD",
"^.	c #E4E2DF",
"/.	c #E1E0DC",
"(.	c #DDDBD7",
"_.	c #DCDAD6",
":.	c #D8D6D2",
"<.	c #9E988D",
"[.	c #EDEDED",
"}.	c #E1E0DD",
"|.	c #D6D4D2",
"1.	c #EBEBE8",
"2.	c #EAE8E6",
"3.	c #E6E5E3",
"4.	c #F1F1EF",
"5.	c #D7D5D1",
"6.	c #9D978B",
"7.	c #E1DFDB",
"8.	c #E0DEDA",
"9.	c #DEDCD8",
"0.	c #D7D6D1",
"a.	c #D5D3CE",
"b.	c #9B958A",
"c.	c #999891",
"d.	c #A39E92",
"e.	c #A39D92",
"f.	c #A39D91",
"g.	c #A29C90",
"h.	c #A19B8F",
"i.	c #9D978C",
"j.	c #9B968A",
"k.	c #676359",
"                                                ",
"      . . . . . . . . . . . . .                 ",
"    . + @ # # # # # # # # $ % & .               ",
"    . @ # # # # # # # # # # * = - .             ",
"    . # # ; > > > > , > , ' ) ! ~ { .           ",
"    . # # ] # # ^ / ( / ( _ : < # [ } .         ",
"    . # # > ^ / ( _ | _ | 1 2 ~ # 3 4 5 .       ",
"    . # ^ 6 ( _ | 1 7 1 7 8 9 . . . . . . .     ",
"    . # ( 6 | 1 7 8 0 8 0 a b c d e f g h .     ",
"    . # | + 7 8 0 a i a i b j k l m n o p .     ",
"    . # 7 q 0 a i r r b s r r t u v w x y .     ",
"    . # z A b b s j r r r r t B C D i E F .     ",
"    . # b G j H I J K r r L B M N O I P Q .     ",
"    . # b G j H I J r r r r B M N O I P R .     ",
"    . # H S I L t r r u u r r T U V L W X .     ",
"    . # Y Z B B B `  .`  . .N ..+.@.Y #.$..     ",
"    . # ` %.v M &.&.T &.T *.=.+.W -.u ;.$..     ",
"    . # T >.,.,.N ..'...'.=.).W -.;.!.~.{..     ",
"    . $ O ].+.^.=.).+.).+././.-.(._.t :.<..     ",
"    . [.}.|.1.1.u 1.B 1.B ` ` 2. .3.4.5.6..     ",
"    . = 7.8.@.-.W -.8.-.8.9.9._._.:.0.a.b..     ",
"    . c.d.R e.f.e.X g.X g.h.$.{.{.i.i.j.k..     ",
"      . . . . . . . . . . . . . . . . . .       ",
"                                                "};
