/* XPM */
static char * cursor_hand_closed_xpm[] = {
"32 32 3 1",
" 	c None",
".	c #000000",
"+	c #FFFFFF",
"                                ",
"                                ",
"                                ",
"                                ",
"                                ",
"         ..                     ",
"       ..++...                  ",
"      .+++++++..                ",
"      .+++++++++.               ",
"    ...+++++++++.               ",
"   .++.+++++++++.               ",
"   .++++++++++++.               ",
"    .+++++++++++.               ",
"    .++++++++++.                ",
"     .+++++++++.                ",
"      .+++++++.                 ",
"       .++++++.                 ",
"       .++++++.                 ",
"                                ",
"                                ",
"                                ",
"                                ",
"                                ",
"                                ",
"                                ",
"                                ",
"                                ",
"                                ",
"                                ",
"                                ",
"                                ",
"                                "};
