<?xml version="1.0" encoding="UTF-8" standalone="no"?>
<!-- Created with Inkscape (http://www.inkscape.org/) -->

<svg
   version="1.1"
   id="svg11209"
   xml:space="preserve"
   width="24"
   height="24"
   viewBox="0 0 24 24"
   xmlns="http://www.w3.org/2000/svg"
   xmlns:svg="http://www.w3.org/2000/svg"><defs
     id="defs11213" /><path
     d="m 7.5679998,11.765333 h 3.1453332 v -0.478667 c 0,-1 2.313333,-1.5839996 2.313333,-4.1253328 0,-2.0826667 -1.542666,-3.2493333 -4.2719996,-3.2493333 -1.3333333,0 -2.6866666,0.2906667 -3.8333332,0.812 l 0.7093333,2.3546666 c 0.7493333,-0.3333333 1.5413333,-0.48 2.3333333,-0.48 1.1866666,0 1.8333333,0.3546667 1.8333333,1 0,1.2079999 -2.2293333,1.9999999 -2.2293333,3.6879995 z m 1.5413333,5 c 1.1039999,0 1.8959999,-0.792 1.8959999,-1.916 0,-1.166667 -0.770667,-1.98 -1.8959999,-1.98 -1.1453333,0 -1.9159999,0.813333 -1.9159999,1.98 0,1.124 0.7906666,1.916 1.9159999,1.916 z"
     style="fill:#e6e6e6;fill-opacity:1;fill-rule:nonzero;stroke:none;stroke-width:1.33333"
     id="path11219" /><g
     id="g11221"
     transform="matrix(1.3333333,1.23672,-1.23672,1.3333333,0,0)"
     style="stroke:#e6e6e6"><path
       d="M 12.671,-3.092 12.67,0.205"
       style="fill:none;stroke:#e6e6e6;stroke-width:0.549878;stroke-linecap:butt;stroke-linejoin:miter;stroke-miterlimit:4;stroke-dasharray:none;stroke-opacity:1"
       id="path11223" /></g><g
     id="g11225"
     transform="matrix(1.3333333,1.23672,-1.23672,1.3333333,0,0)"
     style="stroke:#e6e6e6"><path
       d="m 11.571,-1.444 1.1,-2.2 1.099,2.2"
       style="fill:none;stroke:#e6e6e6;stroke-width:0.549878;stroke-linecap:butt;stroke-linejoin:miter;stroke-miterlimit:4;stroke-dasharray:none;stroke-opacity:1"
       id="path11227" /></g><g
     id="g11229"
     transform="scale(1.3333333)"
     style="stroke:#e6e6e6"><path
       d="m 12.75,10.5 h -3 v 3 h 4.5 v -2.25"
       style="fill:none;stroke:#e6e6e6;stroke-width:0.75;stroke-linecap:butt;stroke-linejoin:miter;stroke-miterlimit:4;stroke-dasharray:none;stroke-opacity:1"
       id="path11231" /></g></svg>
