<?xml version="1.0" encoding="UTF-8" standalone="no"?>
<!-- Created with Inkscape (http://www.inkscape.org/) -->

<svg
   width="24"
   height="24"
   viewBox="0 0 6.3499999 6.3500002"
   version="1.1"
   id="svg1580"
   sodipodi:docname="hicolor_categories_24x24_preferences-certificates.svg"
   inkscape:version="1.1 (c68e22c387, 2021-05-23)"
   xmlns:inkscape="http://www.inkscape.org/namespaces/inkscape"
   xmlns:sodipodi="http://sodipodi.sourceforge.net/DTD/sodipodi-0.dtd"
   xmlns:xlink="http://www.w3.org/1999/xlink"
   xmlns="http://www.w3.org/2000/svg"
   xmlns:svg="http://www.w3.org/2000/svg">
  <sodipodi:namedview
     id="namedview77"
     pagecolor="#ffffff"
     bordercolor="#666666"
     borderopacity="1.0"
     inkscape:pageshadow="2"
     inkscape:pageopacity="0.0"
     inkscape:pagecheckerboard="0"
     showgrid="false"
     inkscape:zoom="11.96189"
     inkscape:cx="-2.0481713"
     inkscape:cy="17.095961"
     inkscape:window-width="1680"
     inkscape:window-height="989"
     inkscape:window-x="0"
     inkscape:window-y="30"
     inkscape:window-maximized="1"
     inkscape:current-layer="svg1580" />
  <defs
     id="defs1577">
    <radialGradient
       cx="11.092737"
       cy="18.597048"
       fx="11.092737"
       fy="18.597048"
       gradientTransform="matrix(1,0,0,0.2469636,0,14.004255)"
       gradientUnits="userSpaceOnUse"
       id="radialGradient11811"
       r="10.915961"
       xlink:href="#linearGradient7440" />
    <linearGradient
       id="linearGradient7440">
      <stop
         id="stop7442"
         offset="0"
         style="stop-color:#000000;stop-opacity:1;" />
      <stop
         id="stop7444"
         offset="1"
         style="stop-color:#000000;stop-opacity:0;" />
    </linearGradient>
    <linearGradient
       gradientTransform="translate(-30)"
       gradientUnits="userSpaceOnUse"
       id="linearGradient11813"
       x1="35.310661"
       x2="33.536613"
       xlink:href="#linearGradient6964"
       y1="16.222532"
       y2="4.7902908" />
    <linearGradient
       id="linearGradient6964">
      <stop
         id="stop6966"
         offset="0"
         style="stop-color:#d3d7cf;stop-opacity:1" />
      <stop
         id="stop6968"
         offset="1"
         style="stop-color:#ffffff;stop-opacity:1" />
    </linearGradient>
    <linearGradient
       gradientTransform="translate(-30,1)"
       gradientUnits="userSpaceOnUse"
       id="linearGradient11815"
       x1="40.28125"
       x2="40.28125"
       xlink:href="#linearGradient7440"
       y1="4.7506509"
       y2="1.75" />
    <linearGradient
       gradientTransform="translate(-30)"
       gradientUnits="userSpaceOnUse"
       id="linearGradient11817"
       x1="38"
       x2="38"
       xlink:href="#linearGradient8718"
       y1="9.7488794"
       y2="11.492249" />
    <linearGradient
       id="linearGradient8718">
      <stop
         id="stop8720"
         offset="0"
         style="stop-color:#eeeeec;stop-opacity:1" />
      <stop
         id="stop8722"
         offset="1"
         style="stop-color:#ffffff;stop-opacity:0;" />
    </linearGradient>
    <linearGradient
       gradientTransform="translate(-30)"
       gradientUnits="userSpaceOnUse"
       id="linearGradient11819"
       x1="41.96875"
       x2="41.96875"
       xlink:href="#linearGradient6934"
       y1="6.7255816"
       y2="12.34375" />
    <linearGradient
       id="linearGradient6934">
      <stop
         id="stop6936"
         offset="0"
         style="stop-color:#babdb6;stop-opacity:1" />
      <stop
         id="stop6938"
         offset="1"
         style="stop-color:#babdb6;stop-opacity:0" />
    </linearGradient>
    <linearGradient
       gradientUnits="userSpaceOnUse"
       id="linearGradient11821"
       x1="36.21875"
       x2="36.96875"
       xlink:href="#linearGradient7013"
       y1="9.71875"
       y2="11.688599" />
    <linearGradient
       id="linearGradient7013">
      <stop
         id="stop7015"
         offset="0"
         style="stop-color:#ffffff;stop-opacity:1;" />
      <stop
         id="stop7017"
         offset="1"
         style="stop-color:#ffffff;stop-opacity:0;" />
    </linearGradient>
    <linearGradient
       gradientTransform="translate(-30)"
       gradientUnits="userSpaceOnUse"
       id="linearGradient11823"
       x1="42.8125"
       x2="41"
       xlink:href="#linearGradient6981"
       y1="6"
       y2="-0.12500003" />
    <linearGradient
       id="linearGradient6981">
      <stop
         id="stop6983"
         offset="0"
         style="stop-color:#eeeeec;stop-opacity:1;" />
      <stop
         id="stop6985"
         offset="1"
         style="stop-color:#ffffff;stop-opacity:1" />
    </linearGradient>
    <linearGradient
       gradientTransform="translate(-30)"
       gradientUnits="userSpaceOnUse"
       id="linearGradient11825"
       x1="40.28125"
       x2="40.28125"
       xlink:href="#linearGradient6926"
       y1="4.75"
       y2="1.4357522" />
    <linearGradient
       id="linearGradient6926">
      <stop
         id="stop6928"
         offset="0"
         style="stop-color:#a3a5a1;stop-opacity:1;" />
      <stop
         id="stop6930"
         offset="1"
         style="stop-color:#555753;stop-opacity:0" />
    </linearGradient>
    <linearGradient
       gradientUnits="userSpaceOnUse"
       id="linearGradient11827"
       x1="37.21875"
       x2="37.21875"
       xlink:href="#linearGradient7013"
       y1="4.65625"
       y2="0.96384674" />
    <linearGradient
       gradientUnits="userSpaceOnUse"
       id="linearGradient11829"
       x1="49.5"
       x2="49.5"
       xlink:href="#linearGradient7013"
       y1="6.0625"
       y2="0.18749996" />
    <linearGradient
       id="linearGradient7134">
      <stop
         id="stop7136"
         offset="0"
         style="stop-color:#f0f0ee;stop-opacity:1" />
      <stop
         id="stop7138"
         offset="1"
         style="stop-color:#a1a196;stop-opacity:1" />
    </linearGradient>
    <clipPath
       clipPathUnits="userSpaceOnUse"
       id="clipPath5046">
      <path
         sodipodi:type="inkscape:offset"
         inkscape:radius="0.46707526"
         inkscape:original="M 716.96875 181.4375 C 714.46819 181.4375 712.43749 183.48912 712.4375 186 C 712.4375 187.41668 713.11279 188.66556 714.125 189.5 C 711.94045 190.29751 710.40625 191.96761 710.40625 193.90625 C 710.40624 194.88 710.78135 195.79899 711.4375 196.5625 L 722.53125 196.5625 C 723.18737 195.79899 723.5625 194.88 723.5625 193.90625 C 723.5625 191.96761 722.0283 190.29751 719.84375 189.5 C 720.85066 188.66548 721.5 187.41238 721.5 186 C 721.5 183.48911 719.46934 181.4375 716.96875 181.4375 z "
         style="display:inline;overflow:visible;visibility:visible;fill:#999999;fill-opacity:1;fill-rule:evenodd;stroke:none;stroke-width:0.902582;marker:none;enable-background:accumulate"
         id="path5048"
         transform="translate(-6,-3)" />
    </clipPath>
    <linearGradient
       gradientTransform="matrix(0.09125781,0,0,0.09374382,69.688,218.6482)"
       gradientUnits="userSpaceOnUse"
       id="linearGradient1356"
       inkscape:collect="always"
       x1="-543.28723"
       x2="-500.66992"
       xlink:href="#linearGradient9590"
       y1="-2279.0508"
       y2="-1917.6714" />
    <linearGradient
       id="linearGradient9590">
      <stop
         id="stop9592"
         offset="0"
         style="stop-color:#bfbfbf;stop-opacity:1;" />
      <stop
         id="stop9594"
         offset="1"
         style="stop-color:#f8f8f8;stop-opacity:1;" />
    </linearGradient>
    <linearGradient
       gradientUnits="userSpaceOnUse"
       id="linearGradient5590"
       inkscape:collect="always"
       x1="25.980804"
       x2="26.085234"
       xlink:href="#linearGradient7013"
       y1="2.4864533"
       y2="42.614761" />
    <linearGradient
       gradientUnits="userSpaceOnUse"
       id="linearGradient5641"
       inkscape:collect="always"
       x1="22.5"
       x2="20.75"
       xlink:href="#linearGradient5635"
       y1="23"
       y2="3.5" />
    <linearGradient
       id="linearGradient5635">
      <stop
         id="stop5637"
         offset="0"
         style="stop-color:#ffffff;stop-opacity:1;" />
      <stop
         id="stop5639"
         offset="1"
         style="stop-color:#ededed;stop-opacity:1;" />
    </linearGradient>
    <linearGradient
       gradientUnits="userSpaceOnUse"
       id="linearGradient5721"
       inkscape:collect="always"
       x1="-2093.4902"
       x2="-2047.13"
       xlink:href="#linearGradient5715"
       y1="-1592.3221"
       y2="-1400.3396" />
    <linearGradient
       id="linearGradient5715"
       inkscape:collect="always">
      <stop
         id="stop5717"
         offset="0"
         style="stop-color:#fdcd12;stop-opacity:1;" />
      <stop
         id="stop5719"
         offset="1"
         style="stop-color:#bd9600;stop-opacity:1" />
    </linearGradient>
  </defs>
  <g
     id="g22"
     style="display:inline;enable-background:new"
     transform="matrix(0.26458334,0,0,0.26458334,0.10193648,0.45853301)">
    <g
       id="g124"
       inkscape:r_cx="true"
       inkscape:r_cy="true"
       style="opacity:0.714286"
       transform="matrix(0.482224,0,0,0.2568323,-76.223594,40.835252)">
      <path
         d="m 162.36286,-88.911137 c -2.24456,0 -4.05156,2.200132 -4.05156,4.933031 0,2.732899 1.807,4.933031 4.05156,4.933031 h 37.27432 c 2.24456,0 4.05155,-2.200132 4.05155,-4.933031 0,-2.732899 -1.80699,-4.933031 -4.05155,-4.933031 z"
         id="path126"
         inkscape:r_cx="true"
         inkscape:r_cy="true"
         style="opacity:0.0478723;fill-rule:evenodd;stroke-width:3pt" />
      <path
         d="m 162.36286,-88.582269 c -2.09492,0 -3.78145,2.053457 -3.78145,4.604163 0,2.550706 1.68653,4.604162 3.78145,4.604162 h 37.27432 c 2.09492,0 3.78145,-2.053456 3.78145,-4.604162 0,-2.550706 -1.68653,-4.604163 -3.78145,-4.604163 z"
         id="path128"
         inkscape:r_cx="true"
         inkscape:r_cy="true"
         style="opacity:0.0478723;fill-rule:evenodd;stroke-width:3pt" />
      <path
         d="m 162.36286,-88.2534 c -1.94529,0 -3.51135,1.906781 -3.51135,4.275294 0,2.368513 1.56606,4.275294 3.51135,4.275294 h 37.27432 c 1.94528,0 3.51135,-1.906781 3.51135,-4.275294 0,-2.368513 -1.56607,-4.275294 -3.51135,-4.275294 z"
         id="path130"
         inkscape:r_cx="true"
         inkscape:r_cy="true"
         style="opacity:0.0478723;fill-rule:evenodd;stroke-width:3pt" />
      <path
         d="m 162.36286,-87.924531 c -1.79565,0 -3.24124,1.760105 -3.24124,3.946425 0,2.186319 1.44559,3.946425 3.24124,3.946425 h 37.27432 c 1.79565,0 3.24124,-1.760106 3.24124,-3.946425 0,-2.18632 -1.44559,-3.946425 -3.24124,-3.946425 z"
         id="path132"
         inkscape:r_cx="true"
         inkscape:r_cy="true"
         style="opacity:0.0478723;fill-rule:evenodd;stroke-width:3pt" />
      <path
         d="m 162.36309,-87.595662 c -1.64601,0 -2.97114,1.61343 -2.97114,3.617556 0,2.004126 1.32513,3.617556 2.97114,3.617556 h 37.27398 c 1.64601,0 2.97114,-1.61343 2.97114,-3.617556 0,-2.004126 -1.32513,-3.617556 -2.97114,-3.617556 z"
         id="path134"
         inkscape:r_cx="true"
         inkscape:r_cy="true"
         style="opacity:0.0478723;fill-rule:evenodd;stroke-width:3pt" />
      <path
         d="m 162.36286,-87.266794 c -1.49637,0 -2.70104,1.466755 -2.70104,3.288688 0,1.821933 1.20467,3.288687 2.70104,3.288687 h 37.27432 c 1.49637,0 2.70103,-1.466754 2.70103,-3.288687 0,-1.821933 -1.20466,-3.288688 -2.70103,-3.288688 z"
         id="path136"
         inkscape:r_cx="true"
         inkscape:r_cy="true"
         style="opacity:0.0478723;fill-rule:evenodd;stroke-width:3pt" />
      <path
         d="m 162.36286,-86.937925 c -1.34674,0 -2.43093,1.320079 -2.43093,2.959819 0,1.639739 1.08419,2.959819 2.43093,2.959819 h 37.27432 c 1.34673,0 2.43093,-1.32008 2.43093,-2.959819 0,-1.63974 -1.0842,-2.959819 -2.43093,-2.959819 z"
         id="path138"
         inkscape:r_cx="true"
         inkscape:r_cy="true"
         style="opacity:0.0478723;fill-rule:evenodd;stroke-width:3pt" />
      <path
         d="m 162.36286,-86.609056 c -1.1971,0 -2.16083,1.173404 -2.16083,2.63095 0,1.457546 0.96373,2.63095 2.16083,2.63095 h 37.27432 c 1.1971,0 2.16083,-1.173404 2.16083,-2.63095 0,-1.457546 -0.96373,-2.63095 -2.16083,-2.63095 z"
         id="path140"
         inkscape:r_cx="true"
         inkscape:r_cy="true"
         style="opacity:0.0478723;fill-rule:evenodd;stroke-width:3pt" />
    </g>
    <rect
       height="18"
       id="rect142"
       rx="0.34312677"
       ry="0.39917094"
       style="color:#000000;display:inline;overflow:visible;visibility:visible;fill:url(#linearGradient1356);fill-opacity:1;fill-rule:nonzero;stroke:#888a85;stroke-width:1;stroke-linecap:square;stroke-linejoin:miter;stroke-miterlimit:4;stroke-dasharray:none;stroke-dashoffset:0;stroke-opacity:1;marker:none;marker-start:none;marker-mid:none;marker-end:none"
       width="19"
       x="1.4999999"
       y="0.49999982" />
    <rect
       height="16"
       id="rect144"
       rx="0"
       ry="0"
       style="color:#000000;display:inline;overflow:visible;visibility:visible;opacity:0.697143;fill:none;fill-opacity:1;fill-rule:nonzero;stroke:url(#linearGradient5590);stroke-width:1;stroke-linecap:butt;stroke-linejoin:miter;stroke-miterlimit:4;stroke-dasharray:none;stroke-dashoffset:0;stroke-opacity:1;marker:none;marker-start:none;marker-mid:none;marker-end:none"
       width="17"
       x="2.5"
       y="1.5000002" />
    <path
       d="M 3.9859594,2 C 3.4403598,2 3,2.5183715 3,3.1606267 3,3.5403204 3.1608045,3.8746017 3.3993759,4.0861899 3.1550132,4.3004983 3,4.6404224 3,5.026445 3,5.4124665 3.1550132,5.7523907 3.3993759,5.966699 3.1550132,6.1810074 3,6.5209324 3,6.9069541 3,7.2929756 3.1550132,7.6328998 3.3993759,7.847209 3.1550132,8.0615166 3,8.4014415 3,8.7874631 3,9.1734848 3.1550132,9.5134088 3.3993759,9.7277173 3.1550132,9.9420264 3,10.281951 3,10.667972 3,11.053993 3.1550132,11.393918 3.3993759,11.608227 3.1550132,11.822535 3,12.16246 3,12.548481 3,12.934503 3.1550132,13.274427 3.3993759,13.488735 3.1550132,13.703045 3,14.042969 3,14.428991 3,14.691744 3.0757672,14.938384 3.199688,15.134182 3.0719811,15.329841 3,15.572863 3,15.839372 3,16.481628 3.44036,17 3.9859594,17 4.3051575,17 4.5914852,16.821236 4.7722309,16.544564 4.9531815,16.817101 5.2296186,17 5.5460218,17 5.8624251,17 6.1388623,16.817101 6.3198128,16.544564 6.5005584,16.821237 6.7868862,17 7.1060846,17 7.4252825,17 7.7116099,16.821236 7.8923559,16.544564 8.0733059,16.817101 8.3497439,17 8.6661465,17 8.9844126,17 9.2591185,16.819857 9.4399372,16.544564 9.6206832,16.821237 9.9070101,17 10.226209,17 10.544475,17 10.819182,16.819857 11,16.544564 11.180818,16.819857 11.455525,17 11.77379,17 12.092989,17 12.379317,16.821236 12.560062,16.544564 12.74088,16.819857 13.015586,17 13.333853,17 13.653051,17 13.939378,16.821236 14.120124,16.544564 14.300943,16.819857 14.57565,17 14.893915,17 15.213114,17 15.499441,16.821236 15.680187,16.544564 15.861137,16.817101 16.137573,17 16.453978,17 c 0.316403,0 0.59284,-0.182899 0.77379,-0.455436 C 17.408514,16.821237 17.694842,17 18.01404,17 18.559639,17 19,16.481627 19,15.839372 c 0,-0.273747 -0.07812,-0.521692 -0.212168,-0.719881 0.117503,-0.192761 0.187207,-0.435315 0.187207,-0.6905 0,-0.386022 -0.155014,-0.725946 -0.399377,-0.940256 0.244363,-0.214308 0.399377,-0.554232 0.399377,-0.940254 0,-0.386021 -0.155014,-0.725946 -0.399377,-0.940254 0.244363,-0.214309 0.399377,-0.554234 0.399377,-0.940255 0,-0.386021 -0.155014,-0.7259456 -0.399377,-0.9402547 0.244363,-0.2143085 0.399377,-0.5542325 0.399377,-0.9402542 0,-0.3860216 -0.155014,-0.7259465 -0.399377,-0.9402541 0.244363,-0.2143092 0.399377,-0.5542334 0.399377,-0.9402549 0,-0.3860217 -0.155014,-0.7259467 -0.399377,-0.9402551 0.244363,-0.2143083 0.399377,-0.5542325 0.399377,-0.940254 0,-0.3784534 -0.150658,-0.7105509 -0.386897,-0.9255634 C 18.834527,3.8901399 19,3.5475589 19,3.1606267 19,2.5183716 18.559639,2 18.01404,2 17.694842,2 17.408514,2.1787626 17.227768,2.4554359 17.046818,2.1828972 16.770381,2 16.453978,2 16.137574,2 15.861137,2.1828972 15.680187,2.4554359 15.499441,2.1787626 15.213114,2 14.893915,2 14.57565,2 14.300943,2.1801428 14.120124,2.4554359 13.939379,2.1787626 13.653051,2 13.333853,2 13.015586,2 12.74088,2.1801428 12.560062,2.4554359 12.379317,2.1787626 12.092989,2 11.77379,2 11.455525,2 11.180818,2.1801428 11,2.4554359 10.819182,2.1801428 10.544475,2 10.226209,2 9.9070101,2 9.6206832,2.1787626 9.4399372,2.4554359 9.2591185,2.1801428 8.9844126,2 8.6661465,2 8.3497439,2 8.0733059,2.1828972 7.8923559,2.4554359 7.7116099,2.1787626 7.4252825,2 7.1060846,2 6.7868862,2 6.5005584,2.1787626 6.3198128,2.4554359 6.1388623,2.1828972 5.8624248,2 5.5460218,2 5.2296186,2 4.9531815,2.1828972 4.7722309,2.4554359 4.5914852,2.1787626 4.3051576,2 3.9859594,2 Z m 0.7862715,1.8658174 c 0.1809506,0.2725392 0.4573877,0.4554358 0.7737909,0.4554358 0.3164033,0 0.5928405,-0.1828966 0.773791,-0.4554358 0.1807456,0.2766733 0.4670734,0.4554358 0.7862718,0.4554358 0.3191979,0 0.6055253,-0.1787625 0.7862713,-0.4554358 0.18095,0.2725392 0.457388,0.4554358 0.7737906,0.4554358 0.3182661,0 0.592972,-0.1801424 0.7737907,-0.4554358 0.180746,0.2766733 0.4670729,0.4554358 0.7862718,0.4554358 0.318266,0 0.592973,-0.1801424 0.773791,-0.4554358 0.180818,0.2752934 0.455525,0.4554358 0.77379,0.4554358 0.319199,0 0.605527,-0.1787625 0.786272,-0.4554358 0.180818,0.2752934 0.455524,0.4554358 0.773791,0.4554358 0.319198,0 0.605525,-0.1787625 0.786271,-0.4554358 0.180819,0.2752934 0.455526,0.4554358 0.773791,0.4554358 0.319199,0 0.605526,-0.1787625 0.786272,-0.4554358 0.18095,0.2725392 0.457386,0.4554358 0.773791,0.4554358 0.316403,0 0.59284,-0.1828966 0.77379,-0.4554358 0.05075,0.077682 0.108943,0.1452258 0.174728,0.2056808 -0.257286,0.21267 -0.424338,0.55703 -0.424338,0.9549468 0,0.3860215 0.155014,0.7259457 0.399377,0.940254 -0.244363,0.2143084 -0.399377,0.5542334 -0.399377,0.9402551 0,0.3860215 0.155014,0.7259457 0.399377,0.9402549 -0.244363,0.2143076 -0.399377,0.5542325 -0.399377,0.9402541 0,0.3860217 0.155014,0.7259457 0.399377,0.9402542 -0.244363,0.2143091 -0.399377,0.5542337 -0.399377,0.9402547 0,0.386021 0.155014,0.725946 0.399377,0.940255 -0.244363,0.214308 -0.399377,0.554233 -0.399377,0.940254 0,0.386022 0.155014,0.725946 0.399377,0.940254 -0.244363,0.21431 -0.399377,0.554234 -0.399377,0.940256 0,0.18465 0.0353,0.358675 0.09984,0.514202 -0.168918,-0.166418 -0.386722,-0.264446 -0.624024,-0.264446 -0.316404,1e-6 -0.592841,0.182895 -0.773791,0.455435 -0.180746,-0.276673 -0.467073,-0.455435 -0.786272,-0.455435 -0.318265,1e-6 -0.592972,0.180142 -0.773791,0.455435 -0.180745,-0.276673 -0.467073,-0.455435 -0.786271,-0.455435 -0.318267,1e-6 -0.592973,0.180142 -0.773791,0.455435 -0.180745,-0.276673 -0.467073,-0.455435 -0.786272,-0.455435 -0.318265,1e-6 -0.592972,0.180142 -0.77379,0.455435 -0.180818,-0.275293 -0.455525,-0.455435 -0.773791,-0.455435 -0.3191989,1e-6 -0.6055258,0.178761 -0.7862718,0.455435 -0.1808187,-0.275293 -0.4555246,-0.455435 -0.7737907,-0.455435 -0.3164026,1e-6 -0.5928406,0.182895 -0.7737906,0.455435 -0.180746,-0.276673 -0.4670734,-0.455435 -0.7862713,-0.455435 -0.3191984,1e-6 -0.6055262,0.178761 -0.7862718,0.455435 -0.1809505,-0.272539 -0.457388,-0.455435 -0.773791,-0.455435 -0.2784955,1e-6 -0.5201994,0.147484 -0.6989078,0.367286 0.093425,-0.178835 0.149766,-0.391843 0.149766,-0.617042 0,-0.386022 -0.1550134,-0.725946 -0.3993761,-0.940256 C 4.8418666,13.274427 4.99688,12.934503 4.99688,12.548481 4.99688,12.16246 4.8418666,11.822535 4.5975039,11.608227 4.8418666,11.393918 4.99688,11.053993 4.99688,10.667972 4.99688,10.281951 4.8418666,9.9420264 4.5975039,9.7277173 4.8418666,9.5134088 4.99688,9.1734848 4.99688,8.7874631 4.99688,8.4014415 4.8418666,8.0615166 4.5975039,7.847209 4.8418666,7.6328998 4.99688,7.2929756 4.99688,6.9069541 4.99688,6.5209324 4.8418666,6.1810074 4.5975039,5.966699 4.8418666,5.7523907 4.99688,5.4124665 4.99688,5.026445 4.99688,4.6360983 4.8340635,4.2999791 4.5850234,4.0861899 4.6562885,4.0229949 4.718007,3.94882 4.7722309,3.8658174 Z"
       id="path146"
       style="color:#000000;display:inline;overflow:visible;visibility:visible;opacity:0.302857;fill:#555753;fill-opacity:1;fill-rule:evenodd;stroke:none;stroke-width:1;stroke-linecap:round;stroke-linejoin:round;stroke-miterlimit:10;stroke-dasharray:none;stroke-dashoffset:0;stroke-opacity:1;marker:none;marker-start:none;marker-mid:none;marker-end:none;enable-background:accumulate" />
    <rect
       height="13"
       id="rect148"
       rx="0.30188766"
       ry="0.36041716"
       style="color:#000000;display:inline;overflow:visible;visibility:visible;opacity:1;fill:url(#linearGradient5641);fill-opacity:1;fill-rule:evenodd;stroke:none;stroke-width:0.2;stroke-linecap:round;stroke-linejoin:round;stroke-miterlimit:4;stroke-dasharray:none;stroke-dashoffset:0;stroke-opacity:1;marker:none;marker-start:none;marker-mid:none;marker-end:none;enable-background:accumulate"
       width="14"
       x="4"
       y="3" />
    <g
       id="g150"
       style="stroke:#204a87;stroke-width:1.93898;stroke-miterlimit:4;stroke-dasharray:none"
       transform="matrix(0.3148196,0.03099511,-0.00574837,0.2106514,-142.78444,-19.643739)">
      <path
         d="m 474.25,81.922 c 0.03,0.361 0.084,0.953 0.084,0.953 0,0 0.069,-1.077 -0.411,-1.157 -1.043,-0.165 -1.589,1.34 -1.943,2.433 -0.494,1.509 -0.092,3.159 1.379,3.388 1.754,0.278 4.473,-2.38 4.473,-2.38 0,0 -0.343,0.278 -0.402,0.501 -0.093,0.287 -0.283,0.709 -0.259,0.758 0.022,0.037 0.281,0.04 0.456,0.071 0.495,0.076 1.06,-0.265 1.22,-0.775 0.138,-0.417 0.343,-1.033 0.343,-1.033 0,0 -0.214,0.299 -0.275,0.486 -0.136,0.409 0.29,0.626 0.687,0.69 0.671,0.109 1.602,-1.021 1.653,-1.017 0.069,0.007 0.283,0.569 0.633,0.623 0.511,0.085 1.144,-0.575 1.356,-0.562 0.062,0.004 0.122,0.273 0.29,0.303 0.579,0.092 1.486,-0.657 1.538,-0.619 0.16,0.125 0.261,1.476 0.244,2.532"
         knockout="Off"
         id="path152"
         stroke-miterlimit="3.8637"
         style="fill:none;stroke:#204a87;stroke-width:1.93898;stroke-linecap:round;stroke-linejoin:round;stroke-miterlimit:4;stroke-dasharray:none" />
      <path
         d="m 487.965,80.738 c -0.349,1.288 -0.304,2.057 -0.594,3.349"
         knockout="Off"
         id="path154"
         stroke-miterlimit="3.8637"
         style="fill:none;stroke:#204a87;stroke-width:1.93898;stroke-linecap:round;stroke-linejoin:round;stroke-miterlimit:4;stroke-dasharray:none" />
      <path
         d="m 487.707,81.308 c -0.151,0.207 -0.235,0.312 -0.396,0.518 1.09,-0.39 2.721,-1.042 2.782,-0.983 0.006,0.014 0.084,0.209 0.037,0.357 -0.273,0.838 -1.143,2.021 -1.143,2.021 0.068,0.083 3.062,-0.987 3.329,-0.765 0.054,0.047 0.1,0.429 0.017,0.697 -0.153,0.472 -0.396,0.69 -0.694,1.103 0.107,-0.023 0.16,-0.024 0.268,-0.044"
         knockout="Off"
         id="path156"
         stroke-miterlimit="3.8637"
         style="fill:none;stroke:#204a87;stroke-width:1.93898;stroke-linecap:round;stroke-linejoin:round;stroke-miterlimit:4;stroke-dasharray:none" />
    </g>
    <path
       d="m 16.640455,14.525368 c 0.04467,1.407166 0.486579,2.7164 1.135382,3.974632 l 0.510922,-2.071288 2.100456,0.447845 C 19.63749,16.414371 18.116973,15.021123 17.491991,14.021542 Z"
       id="path158"
       sodipodi:nodetypes="cccccc"
       style="fill:#3465a4;fill-rule:evenodd;stroke:#204a87;stroke-width:1;stroke-linecap:butt;stroke-linejoin:miter;stroke-miterlimit:10;stroke-dasharray:none;stroke-opacity:1" />
    <g
       id="g160"
       transform="matrix(0.0529096,0,0,0.05246853,63.839799,119.03548)">
      <path
         id="path162"
         inkscape:flatsided="false"
         inkscape:randomized="0"
         inkscape:rounded="0.38"
         sodipodi:arg1="0.84055688"
         sodipodi:arg2="1.1896227"
         sodipodi:cx="-2073.0457"
         sodipodi:cy="-1596.6304"
         sodipodi:r1="209.7282"
         sodipodi:r2="180.36626"
         sodipodi:sides="9"
         sodipodi:type="star"
         style="color:#000000;display:inline;overflow:visible;visibility:visible;fill:#f7f999;fill-opacity:1;fill-rule:nonzero;stroke:url(#linearGradient5721);stroke-width:80.1097;stroke-linecap:square;stroke-linejoin:miter;stroke-miterlimit:4;stroke-dasharray:none;stroke-dashoffset:0;stroke-opacity:1;marker:none;marker-start:none;marker-mid:none;marker-end:none"
         transform="matrix(0.236918,0,0,0.236918,-411.8839,-1633.833)"
         d="m -1933.1469,-1440.3798 c -20.8515,18.6694 -46.8214,0.7587 -72.8007,11.1706 -25.9793,10.4118 -32.3917,41.3004 -60.3653,42.1989 -27.9736,0.8985 -36.355,-29.515 -62.9489,-38.2382 -26.5939,-8.7233 -51.3609,10.817 -73.3675,-6.4758 -22.0065,-17.2929 -8.8776,-45.9784 -23.6425,-69.755 -14.7649,-23.7766 -46.2978,-24.7279 -52.0402,-52.1205 -5.7424,-27.3926 22.7536,-40.9279 26.7264,-68.6325 3.9727,-27.7047 -19.5715,-48.7023 -6.3628,-73.3774 13.2087,-24.6751 43.7383,-16.7268 64.5898,-35.3962 20.8515,-18.6693 16.3126,-49.8884 42.2919,-60.3002 25.9793,-10.4118 44.2573,15.3009 72.2309,14.4024 27.9736,-0.8984 44.5638,-27.7311 71.1577,-19.0079 26.5939,8.7233 24.0678,40.1692 46.0744,57.462 22.0065,17.2928 51.9631,7.4018 66.728,31.1785 14.7649,23.7766 -7.3833,46.2418 -1.6409,73.6344 5.7424,27.3926 35.0483,39.0714 31.0756,66.776 -3.9728,27.7047 -35.3796,30.6774 -48.5883,55.3525 -13.2087,24.6751 1.7339,52.459 -19.1176,71.1284 z" />
      <g
         id="g164"
         transform="matrix(0.89577,0,0,0.89577,-95.73024,-211.15)">
        <ellipse
           id="path166"
           style="color:#000000;display:inline;overflow:visible;visibility:visible;fill:#fdce15;fill-opacity:1;fill-rule:nonzero;stroke:none;stroke-width:6.25;stroke-linecap:round;stroke-linejoin:round;stroke-miterlimit:4;stroke-dasharray:none;stroke-dashoffset:0;stroke-opacity:1;marker:none;marker-start:none;marker-mid:none;marker-end:none"
           transform="matrix(1.162924,0,0,1.162924,226.5602,-739.689)"
           cx="-971.1156"
           cy="-1093.3582"
           rx="29.97831"
           ry="29.069878" />
        <path
           d="m -888.9211,-2029.5723 c -1.1619,-0.7545 -2.4266,-1.383 -3.7884,-1.8738 -3.4899,-1.5806 -7.3246,-2.3383 -11.1408,-2.2199 -0.0915,0 -0.1731,0.016 -0.2648,0.02 -15.7146,-0.3477 -28.0678,19.7245 -19.2266,33.2595 0.8594,1.5032 1.8991,2.8586 3.0755,4.0735"
           id="path168"
           sodipodi:nodetypes="cccccc"
           style="color:#000000;display:inline;overflow:visible;visibility:visible;fill:none;fill-opacity:1;fill-rule:nonzero;stroke:#ffffff;stroke-width:11.8211;stroke-linecap:round;stroke-linejoin:round;stroke-miterlimit:4;stroke-dasharray:none;stroke-dashoffset:0;stroke-opacity:1;marker:none;marker-start:none;marker-mid:none;marker-end:none" />
      </g>
    </g>
    <path
       d="M 5.6323272,5 H 16.140577"
       id="path170"
       style="fill:none;fill-opacity:0.75;fill-rule:evenodd;stroke:#888a85;stroke-width:2;stroke-linecap:round;stroke-linejoin:miter;stroke-miterlimit:4;stroke-dasharray:none;stroke-opacity:1" />
    <path
       d="M 6.5000002,8.4999998 H 14.176492"
       id="path172"
       style="fill:none;fill-opacity:0.75;fill-rule:evenodd;stroke:#888a85;stroke-width:1px;stroke-linecap:round;stroke-linejoin:miter;stroke-opacity:1" />
    <path
       d="m 6.5,10.5 h 5.246552"
       id="path174"
       style="fill:none;fill-opacity:0.75;fill-rule:evenodd;stroke:#888a85;stroke-width:1px;stroke-linecap:round;stroke-linejoin:miter;stroke-opacity:1" />
    <path
       d="M 5.6935543,14.5 H 11.5"
       id="path176"
       style="fill:#888a85;fill-rule:evenodd;stroke:#babdb6;stroke-width:1px;stroke-linecap:square;stroke-linejoin:miter;stroke-opacity:1" />
  </g>
</svg>
