<?xml version="1.0" encoding="UTF-8" standalone="no"?>
<svg
   width="16"
   height="16"
   version="1.1"
   id="svg122"
   sodipodi:docname="hicolor_apps_scalable_evolution-memos-symbolic.svg"
   inkscape:version="1.2 (dc2aedaf03, 2022-05-15)"
   xmlns:inkscape="http://www.inkscape.org/namespaces/inkscape"
   xmlns:sodipodi="http://sodipodi.sourceforge.net/DTD/sodipodi-0.dtd"
   xmlns="http://www.w3.org/2000/svg"
   xmlns:svg="http://www.w3.org/2000/svg">
  <defs
     id="defs126" />
  <sodipodi:namedview
     id="namedview124"
     pagecolor="#505050"
     bordercolor="#eeeeee"
     borderopacity="1"
     inkscape:showpageshadow="0"
     inkscape:pageopacity="0"
     inkscape:pagecheckerboard="0"
     inkscape:deskcolor="#505050"
     showgrid="false"
     inkscape:zoom="11.313709"
     inkscape:cx="-28.814601"
     inkscape:cy="10.915961"
     inkscape:window-width="1920"
     inkscape:window-height="1043"
     inkscape:window-x="0"
     inkscape:window-y="0"
     inkscape:window-maximized="1"
     inkscape:current-layer="g120" />
  <g
     fill="#474747"
     id="g120">
    <path
       d="M 1.094,16 C 0.525,16 0,15.497 0,14.937 V 1.063 C 0,0.502 0.525,0 1.094,0 H 11.906 C 12.464,0 12.98,0.485 13,1.031 l -0.0021,12.09014 -2,-2 L 11,2 H 2 V 14 H 7 L 8.6875011,13.112995 10.186717,14.532464 8.344,15.656 C 8.0478967,15.784862 7.8585297,15.992896 7.563,16 Z"
       style="line-height:normal;-inkscape-font-specification:Sans;text-indent:0;text-align:start;text-decoration-line:none;text-transform:none;marker:none"
       color="#000000"
       font-weight="400"
       font-family="Sans"
       overflow="visible"
       id="path116"
       sodipodi:nodetypes="ssssscccccccccccs" />
    <path
       style="fill:#2e3335;fill-opacity:1;fill-rule:nonzero;stroke:none;stroke-width:1.27909"
       d="m 3.0746864,3.626774 h 6.5443115 v 1 H 3.0746864 Z m 0,0"
       id="path372" />
    <path
       style="fill:#2e3335;fill-opacity:1;fill-rule:nonzero;stroke:none;stroke-width:1.19209"
       d="m 3.0746864,5.2555582 h 5.684338 v 1 h -5.684338 z m 0,0"
       id="path372-3" />
    <path
       style="fill:#2e3335;fill-opacity:1;fill-rule:nonzero;stroke:none;stroke-width:1.31412"
       d="m 3.0746864,6.8512613 h 6.907705 v 1 h -6.907705 z m 0,0"
       id="path372-6" />
    <path
       style="fill:#2e3335;fill-opacity:1;fill-rule:nonzero;stroke:none;stroke-width:1.16559"
       d="m 3.0746864,8.493107 h 5.4344508 v 1 H 3.0746864 Z m 0,0"
       id="path372-7" />
    <path
       style="fill:#2e3335;fill-opacity:1;fill-rule:nonzero;stroke:none;stroke-width:1.27909"
       d="m 3.0746864,10.024845 h 6.5443115 v 1 H 3.0746864 Z m 0,0"
       id="path372-5"
       inkscape:transform-center-x="0.15100098"
       inkscape:transform-center-y="-2.4645996" />
  </g>
</svg>
