<?xml version="1.0" encoding="UTF-8" standalone="no"?>
<svg
   height="16px"
   viewBox="0 0 16 16"
   width="16px"
   version="1.1"
   id="svg4"
   sodipodi:docname="mail-read-symbolic.svg"
   inkscape:version="1.2 (dc2aedaf03, 2022-05-15)"
   xmlns:inkscape="http://www.inkscape.org/namespaces/inkscape"
   xmlns:sodipodi="http://sodipodi.sourceforge.net/DTD/sodipodi-0.dtd"
   xmlns="http://www.w3.org/2000/svg"
   xmlns:svg="http://www.w3.org/2000/svg">
  <defs
     id="defs8" />
  <sodipodi:namedview
     id="namedview6"
     pagecolor="#505050"
     bordercolor="#eeeeee"
     borderopacity="1"
     inkscape:showpageshadow="0"
     inkscape:pageopacity="0"
     inkscape:pagecheckerboard="0"
     inkscape:deskcolor="#505050"
     showgrid="false"
     inkscape:zoom="47.4375"
     inkscape:cx="7.9894598"
     inkscape:cy="8.0210804"
     inkscape:window-width="1920"
     inkscape:window-height="1011"
     inkscape:window-x="0"
     inkscape:window-y="0"
     inkscape:window-maximized="1"
     inkscape:current-layer="svg4" />
  <path
     d="m 8 0.980469 c -0.480469 0 -0.960938 0.132812 -1.386719 0.390625 l -5.285156 3.253906 c -0.824219 0.507812 -1.328125 1.40625 -1.328125 2.375 v 6 c 0 1.644531 1.355469 3 3 3 h 10 c 1.644531 0 3 -1.355469 3 -3 v -6 c 0 -0.96875 -0.503906 -1.867188 -1.328125 -2.375 l -5.289063 -3.253906 c -0.421874 -0.257813 -0.902343 -0.390625 -1.382812 -0.390625 z m 0 2 c 0.117188 0 0.234375 0.035156 0.335938 0.097656 l 5.289062 3.25 c 0.085938 0.054687 0.164062 0.121094 0.222656 0.203125 c -0.042968 0.011719 -0.085937 0.03125 -0.125 0.050781 l -5.167968 3.445313 c -0.335938 0.226562 -0.773438 0.226562 -1.109376 0 l -5.167968 -3.445313 c -0.039063 -0.019531 -0.082032 -0.039062 -0.125 -0.050781 c 0.058594 -0.078125 0.132812 -0.148438 0.222656 -0.203125 l 5.285156 -3.25 c 0.105469 -0.066406 0.222656 -0.097656 0.339844 -0.097656 z m -6 4.621093 l 4.890625 3.257813 c 0.671875 0.449219 1.546875 0.449219 2.21875 0 l 4.890625 -3.257813 v 5.398438 c 0 0.5625 -0.4375 1 -1 1 h -10 c -0.5625 0 -1 -0.4375 -1 -1 z m 0 0"
     fill="#2e3436"
     fill-opacity="0.501961"
     id="path2" />
  <path
     style="fill:#000000;stroke-width:0.0210804"
     d="M 2.6034256,15.965479 C 2.2662404,15.922133 1.8569569,15.783491 1.5493692,15.608425 0.76009339,15.159204 0.22042361,14.401657 0.04875301,13.501976 0.01287203,13.313933 0.01054018,13.100395 0.01054018,10.002635 c 0,-3.1086534 0.0022173,-3.3099845 0.03841455,-3.4880362 C 0.1632953,5.9521657 0.39903243,5.4860728 0.76482258,5.0992057 1.052922,4.7945056 0.76591812,4.9787141 5.263571,2.2117634 6.0425931,1.7325099 6.7445694,1.3079809 6.8235183,1.2683655 7.1943429,1.0822912 7.5644513,0.99688697 8,0.99688697 c 0.4346502,0 0.8057421,0.0854528 1.1744137,0.27043703 0.1570804,0.078817 5.2410393,3.1986774 5.5650873,3.4151139 0.64876,0.4333167 1.061337,1.0613698 1.212048,1.8450663 0.03549,0.1845264 0.03791,0.4067687 0.03791,3.4751308 0,3.65733 0.0078,3.450543 -0.147108,3.913399 -0.345296,1.031901 -1.162527,1.765793 -2.245514,2.016521 l -0.200264,0.04636 -5.3227927,0.0028 c -3.0487475,0.0016 -5.3858361,-0.0053 -5.4703557,-0.0162 z M 13.198612,13.986388 c 0.349244,-0.06623 0.643514,-0.327922 0.764036,-0.679444 0.04513,-0.131641 0.04516,-0.133241 0.05122,-2.901986 0.0033,-1.52365 -0.0017,-2.7779844 -0.01108,-2.7874099 -0.0094,-0.00943 -1.136242,0.7288624 -2.504036,1.6406398 C 10.127954,10.17197 8.9361724,10.952169 8.8432148,10.996635 8.5518777,11.135996 8.3873726,11.169775 8,11.169775 c -0.3862725,0 -0.5392708,-0.03139 -0.8386568,-0.172062 C 7.0567317,10.948559 6.0033033,10.259761 4.501244,9.2583707 3.1334497,8.3464928 2.0066337,7.6081225 1.9972082,7.6175481 c -0.00943,0.00943 -0.01441,1.2637599 -0.011076,2.7874099 0.00606,2.768745 0.00609,2.770345 0.05122,2.901986 0.1175186,0.342762 0.4153079,0.612914 0.74754,0.678161 0.1365369,0.02681 10.2725098,0.02806 10.4137198,0.0013 z M 8.1563761,10.189501 c 0.076312,-0.01317 0.1861799,-0.0448 0.2441509,-0.0703 0.057971,-0.0255 1.2866941,-0.8339716 2.730496,-1.7966082 1.443802,-0.9626363 2.646173,-1.756938 2.671936,-1.7651151 0.02576,-0.00818 0.04684,-0.021789 0.04684,-0.030249 0,-0.055176 -0.294648,-0.2518056 -1.338603,-0.8932985 C 11.861924,5.2349645 10.661924,4.497428 9.8445323,3.9949635 9.027141,3.492499 8.3079498,3.0582483 8.2463296,3.0299618 8.1514477,2.9864067 8.1094868,2.9796955 7.9722848,2.9861312 7.7863382,2.9948533 7.7640519,3.0045461 7.3675889,3.2491263 7.0516924,3.4440044 4.0827116,5.2703051 3.6890646,5.5118864 2.5163984,6.2315516 2.2987706,6.3693196 2.229249,6.4360137 c -0.043478,0.04171 -0.079051,0.08247 -0.079051,0.090576 0,0.00811 0.026968,0.024141 0.059928,0.035631 0.03296,0.01149 1.2443143,0.8105204 2.6918978,1.7756231 1.4475832,0.9651025 2.665675,1.7693092 2.7068705,1.7871262 0.073621,0.03184 0.2889172,0.08235 0.3682991,0.0864 0.022239,0.0011 0.102871,-0.0087 0.1791832,-0.02187 z"
     id="path237" />
</svg>
