<?xml version="1.0" encoding="UTF-8" standalone="no"?>
<svg
   height="16px"
   viewBox="0 0 16 16"
   width="16px"
   version="1.1"
   id="svg448"
   sodipodi:docname="hicolor_actions_scalable_insert-task-symbolic.svg"
   inkscape:version="1.2 (dc2aedaf03, 2022-05-15)"
   xmlns:inkscape="http://www.inkscape.org/namespaces/inkscape"
   xmlns:sodipodi="http://sodipodi.sourceforge.net/DTD/sodipodi-0.dtd"
   xmlns="http://www.w3.org/2000/svg"
   xmlns:svg="http://www.w3.org/2000/svg">
  <defs
     id="defs452" />
  <sodipodi:namedview
     id="namedview450"
     pagecolor="#505050"
     bordercolor="#eeeeee"
     borderopacity="1"
     inkscape:showpageshadow="0"
     inkscape:pageopacity="0"
     inkscape:pagecheckerboard="0"
     inkscape:deskcolor="#505050"
     showgrid="false"
     inkscape:zoom="47.5625"
     inkscape:cx="7.9894875"
     inkscape:cy="8.021025"
     inkscape:window-width="1920"
     inkscape:window-height="1043"
     inkscape:window-x="0"
     inkscape:window-y="0"
     inkscape:window-maximized="1"
     inkscape:current-layer="svg448" />
  <path
     d="m 7 0 c -0.554688 0 -1 0.445312 -1 1 h -2 c -1.644531 0 -3 1.355469 -3 3 v 9 c 0 1.644531 1.355469 3 3 3 h 2 c 0.550781 0 1 -0.449219 1 -1 s -0.449219 -1 -1 -1 h -2 c -0.570312 0 -1 -0.429688 -1 -1 v -9 c 0 -0.570312 0.429688 -1 1 -1 h 1 v 1 c 0 0.554688 0.445312 1 1 1 h 4 c 0.554688 0 1 -0.445312 1 -1 v -1 h 1 c 0.570312 0 1 0.429688 1 1 v 2 c 0 0.550781 0.449219 1 1 1 s 1 -0.449219 1 -1 v -2 c 0 -1.644531 -1.355469 -3 -3 -3 h -2 c 0 -0.554688 -0.445312 -1 -1 -1 z m 0 0"
     fill="#2e3436"
     id="path444" />
  <path
     d="M 10.899854,8.8897829 V 11.242586 H 8.432942 v 1.568537 h 2.466912 v 2.352806 h 1.64461 v -2.352806 h 2.466911 V 11.242586 H 12.544464 V 8.8897829 Z"
     style="fill:#2e3434;stroke-width:0.803061"
     id="path464" />
</svg>
