<?xml version="1.0" encoding="UTF-8" standalone="no"?>
<svg
   height="16"
   width="16"
   version="1.1"
   id="svg180"
   xmlns="http://www.w3.org/2000/svg"
   xmlns:svg="http://www.w3.org/2000/svg">
  <defs
     id="defs184" />
  <g
     transform="translate(-163.136,-195.003)"
     style="fill:#222222;fill-opacity:1"
     id="g144">
    <path
       style="fill:#222222;fill-opacity:1"
       d="m 168.136,195.003 c -1.294,0 -2.406,0.841 -2.822,2 h -1.178 v 2 h 1 v 1 h -1 v 2 h 1 v 1 h -1 v 2 h 1 v 1 h -1 v 2 h 1.178 c 0.416,1.16 1.528,2 2.822,2 h 7 c 1.645,0 3,-1.355 3,-3 v -9 c 0,-1.645 -1.355,-3 -3,-3 z m 0,2 h 7 c 0.571,0 0.888,0.44 1,1 v 9 c 0,0.571 -0.429,1 -1,1 h -7 c -0.554,0 -1,-0.446 -1,-1 v -9 c 0,-0.554 0.446,-1 1,-1 z m 3.525,2 a 3.71,3.71 0 0 0 -0.883,0.114 3.506,3.506 0 0 0 -2.615,3.832 3.506,3.506 0 0 0 3.486,3.06 c 0.85,0 1.645,-0.275 1.645,-0.275 l -0.316,-0.95 c 0,0 -0.705,0.225 -1.33,0.225 h -0.002 a 2.494,2.494 0 0 1 -2.49,-2.185 2.495,2.495 0 0 1 1.866,-2.739 2.797,2.797 0 0 1 1.81,0.164 c 0.525,0.242 0.889,0.63 1.003,1.06 0.123,0.463 0.087,0.97 -0.084,1.274 -0.099,0.177 -0.403,0.354 -0.615,0.426 v -0.5 c 0,-0.822 -0.678,-1.5 -1.5,-1.5 -0.823,0 -1.5,0.678 -1.5,1.5 0,0.823 0.677,1.5 1.5,1.5 0.175,0 0.342,-0.037 0.5,-0.093 v 0.044 l 0.449,0.047 c 0.942,0.096 1.693,-0.316 2.039,-0.935 0.346,-0.619 0.355,-1.358 0.178,-2.022 -0.209,-0.783 -0.82,-1.371 -1.555,-1.709 a 3.745,3.745 0 0 0 -1.586,-0.338 z m -0.025,3.006 c 0.282,0 0.5,0.218 0.5,0.5 0,0.282 -0.218,0.5 -0.5,0.5 a 0.493,0.493 0 0 1 -0.5,-0.5 c 0,-0.282 0.218,-0.5 0.5,-0.5 z"
       id="path142" />
  </g>
</svg>
