<?xml version="1.0" encoding="UTF-8" standalone="no"?>
<svg
   height="16"
   width="16"
   version="1.1"
   id="svg180"
   xmlns="http://www.w3.org/2000/svg"
   xmlns:svg="http://www.w3.org/2000/svg">
  <defs
     id="defs184" />
  <g
     transform="translate(-875.9,-220)"
     id="g26">
    <path
       style="fill:#222222"
       d="m 881.904,220.176 a 1,1 0 0 0 -0.404,1.064 c 0,0 0.376,1.522 0.656,3.22 0.14,0.848 0.254,1.736 0.287,2.47 -0.204,-0.194 -0.357,-0.226 -0.537,-0.457 -0.514,-0.662 -0.857,-1.293 -0.857,-1.293 a 1,1 0 0 0 -1.805,0.1 c 0,0 -0.538,1.317 -0.91,2.907 -0.372,1.591 -0.755,3.49 0.232,5 1.757,2.687 5.267,3.515 8.12,2.19 2.71,-1.26 3.655,-4.128 3.248,-6.91 -0.326,-2.224 -2.113,-4.148 -3.729,-5.678 -1.616,-1.53 -3.162,-2.61 -3.162,-2.61 a 1,1 0 0 0 -1.139,-0.003 z m 2.11,3.39 c 0.377,0.318 0.4,0.28 0.816,0.674 1.494,1.415 2.945,3.297 3.123,4.516 0.325,2.217 -0.246,3.942 -2.111,4.808 -2,0.93 -4.413,0.348 -5.602,-1.47 -0.29,-0.444 -0.29,-2.038 0.041,-3.451 0.094,-0.4 0.127,-0.396 0.23,-0.739 0.605,0.76 1.354,1.59 2.522,1.834 a 1,1 0 0 0 1.102,-0.535 c 0.367,-0.744 0.345,-1.49 0.306,-2.355 -0.039,-0.866 -0.164,-1.817 -0.312,-2.713 -0.05,-0.302 -0.063,-0.285 -0.115,-0.569 z"
       id="path24" />
  </g>
</svg>
