<?xml version="1.0" encoding="UTF-8" standalone="no"?>
<svg
   height="16px"
   viewBox="0 0 16 16"
   width="16px"
   version="1.1"
   id="svg174"
   xmlns:xlink="http://www.w3.org/1999/xlink"
   xmlns="http://www.w3.org/2000/svg"
   xmlns:svg="http://www.w3.org/2000/svg">
  <defs
     id="defs178">
    <linearGradient
       id="linearGradient919">
      <stop
         style="stop-color:#9b1818;stop-opacity:1;"
         offset="0"
         id="stop915" />
      <stop
         style="stop-color:#d60000;stop-opacity:1;"
         offset="1"
         id="stop917" />
    </linearGradient>
    <radialGradient
       xlink:href="#linearGradient919"
       id="radialGradient921"
       cx="8"
       cy="8"
       fx="8"
       fy="8"
       r="5"
       gradientTransform="matrix(1,0,0,1.6,0,-4.8)"
       gradientUnits="userSpaceOnUse" />
  </defs>
  <path
     d="m 5 0 c -0.550781 0 -1 0.449219 -1 1 s 0.449219 1 1 1 h 0.140625 l 0.515625 3.59375 c -1.632812 0.867188 -2.652344 2.558594 -2.65625 4.40625 h 10 c -0.003906 -1.847656 -1.023438 -3.539062 -2.65625 -4.40625 l 0.511719 -3.59375 h 0.144531 c 0.550781 0 1 -0.449219 1 -1 c 0 -0.265625 -0.105469 -0.519531 -0.292969 -0.707031 s -0.441406 -0.292969 -0.707031 -0.292969 z m 2 11 v 4 l 1 1 l 1 -1 v -4 z m 0 0"
     fill="#2e3436"
     id="path172"
     style="fill-opacity:1;fill:url(#radialGradient921)" />
</svg>
