<?xml version="1.0" encoding="UTF-8" standalone="no"?>
<!-- Created with Inkscape (http://www.inkscape.org/) -->

<svg
   version="1.1"
   id="svg51326"
   xml:space="preserve"
   width="20"
   height="20"
   viewBox="0 0 20 20"
   xmlns="http://www.w3.org/2000/svg"
   xmlns:svg="http://www.w3.org/2000/svg"><defs
     id="defs51330" /><g
     id="g51332"
     transform="matrix(1.204387,0.5328918,-0.47851255,1.3412562,3.876939,-6.445074)"><g
       id="g54244"
       transform="rotate(38.936484,7.400522,4.6312859)"><path
         style="fill:none;fill-rule:evenodd;stroke:#1a1a1a;stroke-width:0.75px;stroke-linecap:butt;stroke-linejoin:miter;stroke-opacity:1"
         d="m 8.226042,6.6881392 c -0.250375,-1 -0.250375,-2.5 -3.7e-4,-3.5003801 0.2500051,-1.00038 0.749995,-1.50037 1.2503751,-1.75037 0.50038,-0.25 1.0003699,-0.25 1.5003749,3.8e-4 0.500005,0.25038 0.999995,0.75037 1.24962,1.7503851 0.249625,1.000015 0.249625,2.499985 -3.8e-4,3.4996149 -0.250005,0.99963 -0.749995,1.4996199 -1.237528,1.7496199 -0.487533,0.25 -1.0117169,0.25 -1.5117219,3.7e-4 C 8.976407,8.1881291 8.476417,7.6881391 8.226042,6.6881392 Z"
         id="path53269" /><g
         id="g53872"><path
           style="fill:none;fill-rule:evenodd;stroke:#1a1a1a;stroke-width:0.75px;stroke-linecap:butt;stroke-linejoin:miter;stroke-opacity:1"
           d="m 9.5279035,9.4814178 c 0.031913,0.432314 0.063768,0.8638272 0.1454647,1.2909192 0.081697,0.427092 0.2183089,0.866695 0.4123258,1.219544 0.194017,0.35285 0.455937,0.636559 0.735758,0.83268 0.279821,0.19612 0.581495,0.309578 0.900979,0.327199 0.319483,0.01762 0.645557,-0.05746 0.932875,-0.233203 0.287317,-0.175739 0.530677,-0.450964 0.727124,-0.786131 0.196448,-0.335166 0.346086,-0.730613 0.436312,-1.189182 0.09023,-0.458568 0.120921,-0.980524 0.125016,-1.4233537 0.0041,-0.4428297 -0.0185,-0.806597 -0.05852,-1.1349214 -0.04003,-0.3283244 -0.09759,-0.6212587 -0.21279,-0.914902 C 13.55725,7.1764236 13.384075,6.8820681 13.210376,6.586821"
           id="path53746" /><path
           style="fill:none;fill-rule:evenodd;stroke:#1a1a1a;stroke-width:0.75px;stroke-linecap:butt;stroke-linejoin:miter;stroke-opacity:1"
           d="m 9.7374115,7.5753467 c 0.077527,-0.2420881 0.1552029,-0.4846389 0.2831265,-0.6976481 0.127924,-0.2130092 0.316247,-0.406603 0.524908,-0.5641978 0.208661,-0.1575949 0.442518,-0.2843205 0.610091,-0.3612449 0.167572,-0.076924 0.277147,-0.1063432 0.381942,-0.134479"
           id="path53750" /></g></g></g></svg>
