<?xml version="1.0" encoding="UTF-8" standalone="no"?>
<svg
   height="16"
   width="16"
   version="1.1"
   id="svg180"
   xmlns="http://www.w3.org/2000/svg"
   xmlns:svg="http://www.w3.org/2000/svg">
  <defs
     id="defs184" />
  <g
     transform="translate(-452,12)"
     id="g56">
    <path
       d="m 455.969,-11.995 c -1.645,0 -3,1.355 -3,3 v 6 c 0,1.645 1.355,3 3,3 h 2.984 l 0.016,2 h -5.5 c -0.277,0 -0.5,0.223 -0.5,0.5 v 1 c 0,0.277 0.223,0.5 0.5,0.5 h 13 c 0.277,0 0.5,-0.223 0.5,-0.5 v -1 c 0,-0.277 -0.223,-0.5 -0.5,-0.5 h -5.5 v -2 h 3 c 1.645,0 3,-1.355 3,-3 v -4 c 0,-1.645 -1.355,-3 -3,-3 h -2.586 l -1.707,-1.707 a 1,1 0 0 0 -0.707,-0.293 z m 0,2 h 2.586 l 1,1 h -4.586 c 0,-0.564 0.436,-1 1,-1 z m -1,2 h 9 c 0.564,0 1,0.436 1,1 v 4 c 0,0.564 -0.436,1 -1,1 h -8 c -0.564,0 -1,-0.436 -1,-1 z"
       style="fill:#222222;fill-opacity:1"
       id="path54" />
  </g>
</svg>
