<?xml version="1.0" encoding="UTF-8" standalone="no"?>
<svg
   height="16"
   width="16"
   version="1.1"
   id="svg180"
   xmlns="http://www.w3.org/2000/svg"
   xmlns:svg="http://www.w3.org/2000/svg">
  <defs
     id="defs184" />
  <g
     style="fill:none"
     transform="translate(-48.059,-398.003)"
     id="g44">
    <path
       d="m 53.056,408 6.998,-7 2,2 -7,7 h -2 z"
       fill-rule="evenodd"
       style="fill:#222222"
       id="path38" />
    <path
       d="m 62.213,399.105 a 0.513,0.513 0 0 0 -0.364,0.152 l -1.162,1.16 2.004,2.005 1.163,-1.162 a 0.514,0.514 0 0 0 0,-0.728 l -1.277,-1.275 a 0.514,0.514 0 0 0 -0.364,-0.152 z"
       style="fill:#222222"
       color="#000000"
       overflow="visible"
       fill-rule="evenodd"
       id="path40" />
    <path
       style="color:#000000;fill:#222222;fill-opacity:1;stroke-linecap:round;stroke-linejoin:round"
       d="m 51.059,398.003 c -1.645,0 -3,1.355 -3,3 v 9.809 c 0,1.75 1.44,3.191 3.19,3.191 h 6.81 c 1.645,0 3,-1.355 3,-3 v -5.01 l -2,2 v 3.01 c 0,0.564 -0.436,1 -1,1 h -6.81 c -0.67,0 -1.19,-0.522 -1.19,-1.191 v -9.809 c 0,-0.564 0.436,-1 1,-1 h 4.586 l 1.703,1.703 1.414,-1.414 -1.996,-1.996 a 1,1 0 0 0 -0.707,-0.293 z"
       id="path42" />
  </g>
</svg>
