<?xml version="1.0" encoding="UTF-8" standalone="no"?>
<!-- Created with Inkscape (http://www.inkscape.org/) -->

<svg
   version="1.1"
   id="svg33406"
   xml:space="preserve"
   width="20"
   height="20"
   viewBox="0 0 20 20"
   xmlns="http://www.w3.org/2000/svg"
   xmlns:svg="http://www.w3.org/2000/svg"><defs
     id="defs33410" /><path
     style="fill:none;fill-rule:evenodd;stroke:#1a1a1a;stroke-width:1.2;stroke-linecap:butt;stroke-linejoin:miter;stroke-miterlimit:4;stroke-dasharray:none;stroke-opacity:1"
     d="m 1.9005051,10.0005 c -6.75e-4,-4.050675 4.049325,-8.100675 8.1000409,-8.0999595 4.050715,7.155e-4 8.100634,4.0506345 8.099919,8.1000005 -7.16e-4,4.049365 -4.050635,8.099284 -8.1,8.099919 -4.0493659,6.34e-4 -8.0992849,-4.049285 -8.0999599,-8.09996 z"
     id="path11753" /><path
     style="fill:#1a1a1a;fill-rule:evenodd;stroke:none;stroke-width:0.5;stroke-linecap:butt;stroke-linejoin:miter;stroke-opacity:1;stroke-miterlimit:4;stroke-dasharray:none"
     d="m 7.0712862,5.7713633 c 1.0005,5e-4 2.0004999,1.0005001 1.9999899,2.00001 -5.1e-4,0.9995099 -1.00049,1.9994899 -1.9999999,1.9999799 -0.9995099,4.9e-4 -1.9994899,-0.99949 -1.99998,-1.9999999 -4.9e-4,-1.00051 0.99949,-2.00049 1.99999,-1.99999 z"
     id="path12190" /><path
     style="fill:#1a1a1a;fill-rule:evenodd;stroke:none;stroke-width:0.5;stroke-linecap:butt;stroke-linejoin:miter;stroke-opacity:1;stroke-miterlimit:4;stroke-dasharray:none"
     d="m 12.96911,5.728406 c 1.0005,5e-4 2.0005,1.0005 1.99999,2.00001 -5.1e-4,0.99951 -1.00049,1.99949 -2,1.99998 -0.99951,4.899e-4 -1.99949,-0.9994902 -1.99998,-2 -4.9e-4,-1.0005098 0.99949,-2.0004899 1.99999,-1.99999 z"
     id="path12190-3" /><path
     style="fill:#1a1a1a;fill-rule:evenodd;stroke:#1a1a1a;stroke-width:1;stroke-linecap:butt;stroke-linejoin:miter;stroke-miterlimit:4;stroke-dasharray:none;stroke-opacity:1"
     d="m 5.1486969,12.08349 5.0469071,2.521786 4.953093,-2.521786 -5,1 z"
     id="path12608" /></svg>
