<?xml version="1.0" encoding="UTF-8" standalone="no"?>
<svg
   height="16"
   width="16"
   version="1.1"
   id="svg180"
   xmlns="http://www.w3.org/2000/svg"
   xmlns:svg="http://www.w3.org/2000/svg">
  <defs
     id="defs184" />
  <path
     style="fill:#212121;fill-opacity:1;fill-rule:nonzero;stroke:none"
     d="m 13,12 h 1 v 1 H 13 Z M 3,12 h 1 v 1 H 3 Z m -2,0 h 1 v 1 H 1 Z m 14,0 h 1 v 1 h -1 z m 0,0"
     id="path162" />
  <path
     style="fill:#212121;fill-opacity:1;fill-rule:nonzero;stroke:none"
     d="M 11.32,1.121 C 10.315,1.106 9.355,1.494 8.613,2.137 A 4.453,4.453 0 0 0 8.391,2.347 2.768,2.768 0 0 1 9.737,3.831 C 9.797,3.765 9.86,3.702 9.926,3.645 c 0.437,-0.38 1.05,-0.579 1.57,-0.512 0.418,0.055 0.84,0.289 1.106,0.613 0.27,0.324 0.421,0.781 0.398,1.2 l 1.996,0.109 A 3.72,3.72 0 0 0 14.141,2.465 3.718,3.718 0 0 0 11.321,1.121 Z M 9.174,7.066 A 2.828,2.828 0 0 1 9.121,7.121 L 7.625,8.617 c 0.053,0.102 0.107,0.2 0.168,0.32 C 7.753,8.961 7.707,8.965 7.664,8.988 6.941,9.402 6.23,9.973 5.73,10.77 5.223,11.582 4.969,12.605 5.234,13.629 a 3.134,3.134 0 0 0 1.891,2.133 c 0.469,0.183 0.977,0.25 1.477,0.187 A 2.975,2.975 0 0 0 10,15.391 c 0.746,-0.547 1.145,-1.371 1.27,-2.196 0.12,-0.808 -0.02,-1.582 -0.254,-2.261 -0.121,-0.348 -0.27,-0.54 -0.422,-0.844 0.441,-0.07 0.883,-0.13 1.324,-0.094 L 11.957,10 H 15 V 8 H 12 A 7.699,7.699 0 0 0 9.66,8.215 C 9.57,8.043 9.438,7.801 9.367,7.629 A 5.138,5.138 0 0 1 9.174,7.066 Z m -0.49,3.645 c 0.14,0.27 0.351,0.621 0.441,0.875 0.16,0.465 0.227,0.922 0.168,1.312 -0.055,0.372 -0.25,0.715 -0.48,0.883 A 0.96,0.96 0 0 1 8.355,13.965 1.067,1.067 0 0 1 7.852,13.898 1.21,1.21 0 0 1 7.172,13.121 C 7.074,12.746 7.168,12.242 7.426,11.832 7.691,11.406 8.133,11.023 8.66,10.722 8.668,10.719 8.68,10.715 8.684,10.711 Z"
     id="path164" />
  <path
     style="color:#000000;fill:#212121;fill-opacity:1;stroke-linecap:round;stroke-linejoin:round;-inkscape-stroke:none"
     d="M 7,4 A 1,1 0 0 0 6.293,4.293 l -3.3,3.3 -1.321,-1.29 A 1,1 0 0 0 0.258,6.318 1,1 0 0 0 0.273,7.732 L 2.301,9.715 A 1,1 0 0 0 3.707,9.707 l 4,-4 a 1,1 0 0 0 0,-1.414 A 1,1 0 0 0 7,4 Z"
     id="path166" />
</svg>
