<?xml version="1.0" encoding="UTF-8" standalone="no"?>
<svg
   height="16"
   width="16"
   version="1.1"
   id="svg180"
   xmlns="http://www.w3.org/2000/svg"
   xmlns:svg="http://www.w3.org/2000/svg">
  <defs
     id="defs184" />
  <g
     transform="translate(-855.894,-220.002)"
     id="g36">
    <path
       style="fill:#222222"
       d="m 870.73,220.045 a 0.999,0.999 0 0 0 -0.338,0.12 l -13.977,7.966 a 1,1 0 0 0 0.136,1.803 l 4.36,1.675 V 235 c 0,0.89 1.077,1.337 1.707,0.707 l 2.484,-2.484 4.45,1.71 a 1,1 0 0 0 1.355,-0.857 l 0.977,-12.966 a 1,1 0 0 0 -1.154,-1.065 z m -0.982,2.793 -0.73,9.746 -4.441,-1.707 3.333,-4.877 -5.057,4.213 -3.617,-1.39 z"
       id="path34" />
  </g>
</svg>
