<?xml version="1.0" encoding="UTF-8" standalone="no"?>
<svg
   height="16"
   width="16"
   version="1.1"
   id="svg180"
   xmlns="http://www.w3.org/2000/svg"
   xmlns:svg="http://www.w3.org/2000/svg">
  <defs
     id="defs184" />
  <g
     transform="rotate(90,187.07,23.934)"
     style="fill:#222222;fill-opacity:1"
     id="g148">
    <path
       style="fill:#222222;fill-opacity:1"
       d="m 124,649 v 1 c -1.645,0 -3,1.355 -3,3 v 7 c 0,1.645 1.355,3 3,3 h 8 c 1.645,0 3,-1.355 3,-3 v -7 c 0,-1.645 -1.355,-3 -3,-3 v -1 h -2 v 1 h -4 v -1 z m 0,5 h 8 c 0.554,0 1,0.446 1,1 v 5 c 0,0.571 -0.44,0.888 -1,1 h -8 c -0.571,0 -1,-0.429 -1,-1 v -5 c 0,-0.554 0.446,-1 1,-1 z m 3,1 v 1 h 2 v -1 z m 3,0 v 1 h 2 v -1 z m -6,2 v 1 h 2 v -1 z m 3,0 v 1 h 2 v -1 z m 3,0 v 1 h 2 v -1 z m -6,2 v 1 h 2 v -1 z m 3,0 v 1 h 2 v -1 z m 3,0 v 1 h 2 v -1 z"
       transform="rotate(-90,-76.93,407.934)"
       id="path146" />
  </g>
</svg>
