<?xml version="1.0" encoding="UTF-8" standalone="no"?>
<svg
   height="16"
   width="16"
   version="1.1"
   id="svg180"
   xmlns="http://www.w3.org/2000/svg"
   xmlns:svg="http://www.w3.org/2000/svg">
  <defs
     id="defs184" />
  <g
     style="fill:#222222"
     transform="translate(-11.952,-667.993)"
     id="g160">
    <path
       style="fill:#212121;fill-opacity:1;fill-rule:nonzero;stroke:none"
       d="m 13,12 h 1 v 1 H 13 Z M 3,12 h 1 v 1 H 3 Z m -2,0 h 1 v 1 H 1 Z m 14,0 h 1 v 1 H 15 Z M 1,4 H 2.375 L 3.5,5.094 4.594,4 H 6 V 5.469 L 4.906,6.53 6,7.594 V 9 H 4.562 L 3.5,7.937 2.437,9 H 1 V 7.594 L 2.063,6.53 1,5.47 Z m 0,0"
       transform="translate(11.943,667.993)"
       id="path156" />
    <path
       style="fill:#212121;fill-opacity:1;fill-rule:nonzero;stroke:none"
       d="M 11.754,1.152 C 10.594,1 9.461,1.402 8.614,2.137 7.781,2.867 7.274,3.863 7.086,4.902 6.867,6.117 7.078,7.328 7.52,8.398 7.613,8.618 7.691,8.738 7.793,8.938 7.753,8.961 7.707,8.965 7.664,8.988 6.941,9.402 6.23,9.973 5.73,10.77 5.223,11.582 4.969,12.605 5.234,13.629 a 3.134,3.134 0 0 0 1.891,2.133 c 0.469,0.183 0.977,0.25 1.477,0.187 A 2.976,2.976 0 0 0 10,15.391 c 0.746,-0.547 1.145,-1.371 1.27,-2.196 0.12,-0.808 -0.02,-1.582 -0.254,-2.261 -0.121,-0.348 -0.27,-0.54 -0.422,-0.844 0.441,-0.07 0.883,-0.13 1.324,-0.094 L 11.957,10 H 15 V 8 h -3 l 0.082,0.004 A 7.658,7.658 0 0 0 9.66,8.214 C 9.57,8.043 9.437,7.801 9.367,7.629 9.047,6.852 8.918,6.012 9.051,5.258 9.168,4.628 9.484,4.031 9.926,3.645 c 0.437,-0.38 1.05,-0.579 1.57,-0.512 0.418,0.054 0.84,0.289 1.106,0.613 0.27,0.324 0.421,0.781 0.398,1.2 l 1.996,0.109 A 3.72,3.72 0 0 0 14.141,2.465 3.719,3.719 0 0 0 11.754,1.152 Z m -3.07,9.559 c 0.14,0.27 0.351,0.621 0.441,0.875 0.16,0.465 0.227,0.922 0.168,1.312 -0.055,0.372 -0.25,0.715 -0.48,0.883 A 0.96,0.96 0 0 1 8.355,13.965 1.067,1.067 0 0 1 7.852,13.898 1.21,1.21 0 0 1 7.172,13.121 C 7.074,12.746 7.168,12.242 7.426,11.832 7.691,11.406 8.133,11.023 8.66,10.722 8.668,10.719 8.68,10.715 8.684,10.711 Z m 0,0"
       transform="translate(11.943,667.993)"
       id="path158" />
  </g>
</svg>
