<?xml version="1.0" encoding="UTF-8" standalone="no"?>
<!-- Created with Inkscape (http://www.inkscape.org/) -->

<svg
   version="1.1"
   id="svg11209"
   xml:space="preserve"
   width="20"
   height="20"
   viewBox="0 0 20 20"
   xmlns="http://www.w3.org/2000/svg"
   xmlns:svg="http://www.w3.org/2000/svg"><defs
     id="defs11213" /><g
     id="g11215"
     transform="matrix(1.3903546,0,0,1.4647658,-4.131799,-2.2976229)"><g
       id="g11217"><path
         d="M 5.676,8.824 H 8.035 V 8.465 c 0,-0.75 1.735,-1.188 1.735,-3.094 0,-1.562 -1.157,-2.437 -3.204,-2.437 -1,0 -2.015,0.218 -2.875,0.609 l 0.532,1.766 c 0.562,-0.25 1.156,-0.36 1.75,-0.36 0.89,0 1.375,0.266 1.375,0.75 0,0.906 -1.672,1.5 -1.672,2.766 z m 1.156,3.75 c 0.828,0 1.422,-0.594 1.422,-1.437 0,-0.875 -0.578,-1.485 -1.422,-1.485 -0.859,0 -1.437,0.61 -1.437,1.485 0,0.843 0.593,1.437 1.437,1.437 z"
         style="fill:#e6e6e6;fill-opacity:1;fill-rule:nonzero;stroke:none"
         id="path11219" /><g
         id="g11221"
         transform="matrix(1,0.92754,-0.92754,1,0,0)"><path
           d="M 12.671,-3.092 12.67,0.205"
           style="fill:none;stroke:#e6e6e6;stroke-width:0.549878;stroke-linecap:butt;stroke-linejoin:miter;stroke-miterlimit:4;stroke-dasharray:none;stroke-opacity:1"
           id="path11223" /></g><g
         id="g11225"
         transform="matrix(1,0.92754,-0.92754,1,0,0)"><path
           d="m 11.571,-1.444 1.1,-2.2 1.099,2.2"
           style="fill:none;stroke:#e6e6e6;stroke-width:0.549878;stroke-linecap:butt;stroke-linejoin:miter;stroke-miterlimit:4;stroke-dasharray:none;stroke-opacity:1"
           id="path11227" /></g><g
         id="g11229"><path
           d="m 12.75,10.5 h -3 v 3 h 4.5 v -2.25"
           style="fill:none;stroke:#e6e6e6;stroke-width:0.75;stroke-linecap:butt;stroke-linejoin:miter;stroke-miterlimit:4;stroke-dasharray:none;stroke-opacity:1"
           id="path11231" /></g></g></g></svg>
