<?xml version="1.0" encoding="UTF-8" standalone="no"?>
<svg
   height="16"
   width="16"
   version="1.1"
   id="svg180"
   xmlns="http://www.w3.org/2000/svg"
   xmlns:svg="http://www.w3.org/2000/svg">
  <defs
     id="defs184" />
  <g
     transform="translate(-741,367)"
     style="fill:#222222"
     id="g94">
    <path
       style="fill:#222222;fill-opacity:1"
       d="M 663.045,301 A 2.04,2.04 0 0 0 661,303.045 v 9.873 a 2.04,2.04 0 0 0 2.045,2.045 h 9.91 A 2.04,2.04 0 0 0 675,312.918 v -9.873 A 2.04,2.04 0 0 0 672.955,301 Z M 663,305.963 h 10 v 7 h -10 z m 1,1.037 v 2 h 2 v -2 z m 3,0 v 2 h 2 v -2 z m 3,0 v 2 h 2 v -2 z m -6,3 v 2 h 2 v -2 z m 3,0 v 2 h 2 v -2 z"
       transform="translate(81,-667)"
       id="path92" />
  </g>
</svg>
