<?xml version="1.0" encoding="UTF-8" standalone="no"?>
<svg
   height="16"
   width="16"
   version="1.1"
   id="svg180"
   xmlns="http://www.w3.org/2000/svg"
   xmlns:svg="http://www.w3.org/2000/svg">
  <defs
     id="defs184" />
  <g
     transform="matrix(-1,0,0,1,244,-996)"
     style="fill:#222222;fill-opacity:1"
     id="g140">
    <path
       style="fill:#222222;fill-opacity:1;fill-rule:nonzero;stroke:none;stroke-width:2;stroke-linecap:round;stroke-linejoin:miter;stroke-dasharray:none;stroke-opacity:1"
       d="m 243,999 h -14 a 1,1 0 1 0 0,2 h 14 a 1,1 0 1 0 0,-2 z"
       id="path134" />
    <path
       style="fill:#222222;fill-opacity:1;fill-rule:nonzero;stroke:none;stroke-width:2;stroke-linecap:butt;stroke-linejoin:miter;stroke-dasharray:none;stroke-opacity:1"
       d="m 240,1000 v -1.5 c 0,-1.386 -1.114,-2.5 -2.5,-2.5 h -2.98 a 2.494,2.494 0 0 0 -2.5,2.5 v 1.5 h 2 v -1.5 c 0,-0.271 0.23,-0.5 0.5,-0.5 h 2.98 c 0.27,0 0.5,0.229 0.5,0.5 v 1.5 z m 0,0 v 9 c 0,0.547 -0.453,1 -1,1 h -6 c -0.547,0 -1,-0.453 -1,-1 v -9 h -2 v 9 c 0,1.662 1.338,3 3,3 h 6 c 1.662,0 3,-1.338 3,-3 v -9 z"
       id="path136" />
    <path
       style="fill:#222222;fill-opacity:1;fill-rule:nonzero;stroke:none;stroke-width:1px;stroke-linecap:round;stroke-linejoin:miter;stroke-opacity:1"
       d="m 237,1003 v 5 a 0.5,0.5 0 1 0 1,0 v -5 a 0.5,0.5 0 1 0 -1,0 z m -3,0 v 5 a 0.5,0.5 0 1 0 1,0 v -5 a 0.5,0.5 0 1 0 -1,0 z"
       id="path138" />
  </g>
</svg>
