<?xml version="1.0" encoding="UTF-8" standalone="no"?>
<!-- Created with Inkscape (http://www.inkscape.org/) -->

<svg
   version="1.1"
   id="svg824"
   xml:space="preserve"
   width="24"
   height="24"
   viewBox="0 0 24 24"
   xmlns="http://www.w3.org/2000/svg"
   xmlns:svg="http://www.w3.org/2000/svg"><defs
     id="defs828" /><g
     id="g834"
     transform="matrix(1.3333333,0,0,1.3333333,-0.56799981,-0.08799955)"
     style="stroke:#e6e6e6;stroke-width:1.5;stroke-miterlimit:4;stroke-dasharray:none"><path
       d="m 5.676,4.566 h 10.5"
       style="fill:none;stroke:#e6e6e6;stroke-width:1.5;stroke-linecap:butt;stroke-linejoin:miter;stroke-miterlimit:4;stroke-dasharray:none;stroke-opacity:1"
       id="path836" /></g><g
     id="g838"
     transform="matrix(1.3333333,0,0,1.3333333,-0.56799981,-0.08799955)"
     style="stroke:#e6e6e6;stroke-width:1.5;stroke-miterlimit:4;stroke-dasharray:none"><path
       d="m 5.676,9.066 h 10.5"
       style="fill:none;stroke:#e6e6e6;stroke-width:1.5;stroke-linecap:butt;stroke-linejoin:miter;stroke-miterlimit:4;stroke-dasharray:none;stroke-opacity:1"
       id="path840" /></g><g
     id="g842"
     transform="matrix(1.3333333,0,0,1.3333333,-0.56799981,-0.08799955)"
     style="stroke:#e6e6e6;stroke-width:1.5;stroke-miterlimit:4;stroke-dasharray:none"><path
       d="m 5.676,13.566 h 10.5"
       style="fill:none;stroke:#e6e6e6;stroke-width:1.5;stroke-linecap:butt;stroke-linejoin:miter;stroke-miterlimit:4;stroke-dasharray:none;stroke-opacity:1"
       id="path844" /></g><path
     d="M 4.4932328,7.9143159 H 5.1385661 V 4.4356494 H 4.7438995 l -1.3133333,0.6866666 0.2506666,0.4386667 0.812,-0.3546667 z"
     style="fill:#e6e6e6;fill-opacity:1;fill-rule:nonzero;stroke:none;stroke-width:1.33333"
     id="path846" /><path
     d="m 3.5726414,13.833474 h 2.3333333 v -0.562666 h -1.396 c 0.896,-0.792 1.2706666,-1.354666 1.2706666,-1.937333 0,-0.625333 -0.4586666,-1.021333 -1.1666666,-1.021333 -0.4373333,0 -0.8333333,0.146666 -1.1453333,0.396 l 0.1866666,0.48 c 0.272,-0.209334 0.5626667,-0.313334 0.8333334,-0.313334 0.3959999,0 0.6253333,0.229334 0.6253333,0.562667 0,0.478667 -0.4786667,1 -1.5413333,1.958666 z"
     style="fill:#e6e6e6;fill-opacity:1;fill-rule:nonzero;stroke:none;stroke-width:1.33333"
     id="path848" /><path
     d="m 4.7419027,20.015858 c 0.8533333,0 1.4159999,-0.396 1.4159999,-1 0,-0.437333 -0.2919999,-0.770666 -0.7706666,-0.854666 0.3546667,-0.104 0.5826667,-0.396 0.5826667,-0.790667 0,-0.562667 -0.4573334,-0.917333 -1.1453334,-0.917333 -0.3959999,0 -0.8119999,0.104 -1.1453333,0.292 l 0.1453334,0.478666 c 0.312,-0.125333 0.604,-0.208 0.8546666,-0.208 0.396,0 0.6453333,0.166667 0.6453333,0.437334 0,0.312 -0.312,0.521333 -0.7506666,0.521333 H 4.3245694 v 0.5 h 0.292 c 0.5413333,0 0.8746666,0.208 0.8746666,0.541333 0,0.292 -0.2706667,0.458667 -0.7293333,0.458667 -0.292,0 -0.6666667,-0.084 -0.9786667,-0.209333 l -0.1466666,0.5 c 0.3546666,0.166666 0.7293333,0.250666 1.1053333,0.250666 z"
     style="fill:#e6e6e6;fill-opacity:1;fill-rule:nonzero;stroke:none;stroke-width:1.33333"
     id="path850" /></svg>
