<?xml version="1.0" encoding="UTF-8" standalone="no"?>
<svg
   height="16"
   width="16"
   version="1.1"
   id="svg180"
   xmlns="http://www.w3.org/2000/svg"
   xmlns:svg="http://www.w3.org/2000/svg">
  <defs
     id="defs184" />
  <g
     transform="matrix(0,-1,-1,0,312,36)"
     style="fill:#222222"
     id="g52">
    <path
       style="fill:#222222"
       d="m 30.007,308 v -1 c 0,-0.257 0.13,-0.529 0.313,-0.719 L 31.6,305 h -6.594 v -2 H 31.6 l -1.281,-1.281 c -0.183,-0.19 -0.313,-0.409 -0.313,-0.72 v -1 h 1 c 0.31,0 0.553,0.091 0.75,0.282 l 3.658,3.719 -3.657,3.719 c -0.197,0.19 -0.44,0.28 -0.75,0.28 z"
       id="path46" />
    <path
       style="fill:#222222"
       d="M 684.033,601.014 A 3.049,3.049 0 0 0 681,604.047 v 7.918 a 3.047,3.047 0 0 0 3.033,3.031 h 1.975 v -2 h -1.975 c -0.59,0 -1.033,-0.442 -1.033,-1.031 v -7.918 c 0,-0.59 0.444,-1.033 1.033,-1.033 h 1.975 v -2 z"
       transform="matrix(1,0,0,-1,-660,912.008)"
       id="path48" />
    <path
       style="fill:#222222"
       d="M 724.04,690.967 A 3.049,3.049 0 0 0 721.006,694 v 1.975 h 2 V 694 c 0,-0.59 0.444,-1.033 1.033,-1.033 H 725 v -2 z m 6.96,0 v 2 h 0.957 c 0.59,0 1.031,0.443 1.031,1.033 v 1.975 h 2 V 694 a 3.047,3.047 0 0 0 -3.031,-3.033 z"
       transform="matrix(0,-1,-1,0,720.007,1032)"
       id="path50" />
  </g>
</svg>
