<?xml version="1.0" encoding="UTF-8" standalone="no"?>
<svg
   height="16"
   width="16"
   version="1.1"
   id="svg180"
   xmlns="http://www.w3.org/2000/svg"
   xmlns:svg="http://www.w3.org/2000/svg">
  <defs
     id="defs184" />
  <g
     transform="translate(-856,-179.988)"
     id="g12">
    <path
       style="fill:#222222"
       d="m 858.188,182 c -1.206,0 -2.188,0.8 -2.188,2 v 9.977 c 0,1.2 0.982,2 2.188,2 h 11.625 c 1.205,0 2.187,-1.018 2.187,-2.22 v -9.538 C 872,183.018 871.018,182 869.812,182 H 866 v 2 h 4 v 10 h -12 v -10 h 4 v -2 z"
       id="path6" />
    <path
       style="fill:#222222"
       d="m 857,189 v 1 h 3.625 c 0.024,0.302 -0.006,0.606 0.303,1.223 0.434,0.869 1.405,1.777 3.072,1.777 1.667,0 2.638,-0.908 3.072,-1.777 0.309,-0.617 0.279,-0.921 0.303,-1.223 H 870 v -1 h -3.5 v 0.5 c 0,0 -0.007,0.647 -0.322,1.277 -0.316,0.631 -0.845,1.223 -2.178,1.223 -1.333,0 -1.862,-0.592 -2.178,-1.223 -0.315,-0.63 -0.322,-1.277 -0.322,-1.277 V 189 Z"
       id="path8" />
    <path
       d="m 867,185 h -1 c -0.257,0 -0.528,0.13 -0.719,0.313 L 865,185.593 V 180 h -2 v 5.594 l -0.281,-0.281 C 862.529,185.13 862.257,185 862,185 h -1 v 1 c 0,0 0.09,0.552 0.281,0.75 l 2.719,2.656 2.719,-2.656 C 866.909,186.552 867,186.31 867,186 Z"
       style="fill:#222222"
       id="path10" />
  </g>
</svg>
