<?xml version="1.0" encoding="UTF-8" standalone="no"?>
<svg
   height="16"
   width="16"
   version="1.1"
   id="svg180"
   xmlns="http://www.w3.org/2000/svg"
   xmlns:svg="http://www.w3.org/2000/svg">
  <defs
     id="defs184" />
  <g
     transform="translate(0,-728)"
     id="g128">
    <g
       transform="translate(-471.969,739.995)"
       style="fill:none"
       id="g126">
      <path
         d="m 472.969,-8.995 v 1 h 8 v -1 z"
         style="fill:#222222;fill-opacity:1"
         id="path120" />
      <path
         style="fill:none;stroke-width:0"
         d="m 472,-12 h 16 V 4 h -16 z"
         id="path122" />
      <path
         d="m 474.969,-12.01 c -1.645,0 -3,1.354 -3,3 v 9.987 c 0,1.645 1.355,3 3,3 h 10 c 1.645,0 3,-1.355 3,-3 V -7.01 c 0,-1.645 -1.355,-3 -3,-3 h -3.586 l -1.707,-1.707 a 1,1 0 0 0 -0.707,-0.293 z m 0,2 h 3.586 l 1.707,1.706 a 1,1 0 0 0 0.707,0.293 h 4 c 0.564,0 1,0.436 1,1 V 0.98 c 0,0.563 -0.436,1 -1,1 h -10 c -0.564,0 -1,-0.437 -1,-1 v -9.99 c 0,-0.564 0.436,-1 1,-1 z"
         style="fill:#222222;fill-opacity:1"
         id="path124" />
    </g>
  </g>
  <path
     style="color:#000000;fill:#222222;fill-opacity:1;stroke-linecap:round;stroke-linejoin:round;-inkscape-stroke:none"
     d="M 7.5,5 A 3.515,3.515 0 0 0 4,8.5 C 4,10.421 5.579,12 7.5,12 9.421,12 11,10.421 11,8.5 11,6.579 9.421,5 7.5,5 Z m 0,2 C 8.34,7 9,7.66 9,8.5 9,9.34 8.34,10 7.5,10 6.66,10 6,9.34 6,8.5 6,7.66 6.66,7 7.5,7 Z"
     id="path130" />
  <path
     style="color:#000000;fill:#222222;fill-opacity:1;stroke-linecap:round;stroke-linejoin:round"
     d="m 8.57,9.57 a 1,1 0 0 0 0,1.414 l 1.723,1.723 a 1,1 0 0 0 1.414,0 1,1 0 0 0 0,-1.414 L 9.984,9.57 a 1,1 0 0 0 -1.414,0 z"
     id="path132" />
</svg>
