<?xml version="1.0" encoding="UTF-8" standalone="no"?>
<!-- Created with Inkscape (http://www.inkscape.org/) -->

<svg
   version="1.1"
   id="svg1"
   width="256"
   height="256"
   viewBox="0 0 256 256"
   sodipodi:docname="gcr-gnupg.svg"
   inkscape:version="1.3.2 (091e20ef0f, 2023-11-25)"
   xmlns:inkscape="http://www.inkscape.org/namespaces/inkscape"
   xmlns:sodipodi="http://sodipodi.sourceforge.net/DTD/sodipodi-0.dtd"
   xmlns="http://www.w3.org/2000/svg"
   xmlns:svg="http://www.w3.org/2000/svg">
  <defs
     id="defs1">
    <inkscape:path-effect
       effect="bspline"
       id="path-effect7"
       is_visible="true"
       lpeversion="1.3"
       weight="33.333333"
       steps="2"
       helper_size="0"
       apply_no_weight="true"
       apply_with_weight="true"
       only_selected="false"
       uniform="false" />
    <inkscape:path-effect
       effect="bspline"
       id="path-effect6"
       is_visible="true"
       lpeversion="1.3"
       weight="33.333333"
       steps="2"
       helper_size="0"
       apply_no_weight="true"
       apply_with_weight="true"
       only_selected="false"
       uniform="false" />
    <inkscape:path-effect
       effect="bspline"
       id="path-effect5"
       is_visible="true"
       lpeversion="1.3"
       weight="33.333333"
       steps="2"
       helper_size="0"
       apply_no_weight="true"
       apply_with_weight="true"
       only_selected="false"
       uniform="false" />
    <inkscape:path-effect
       effect="bspline"
       id="path-effect4"
       is_visible="true"
       lpeversion="1.3"
       weight="33.333333"
       steps="2"
       helper_size="0"
       apply_no_weight="true"
       apply_with_weight="true"
       only_selected="false"
       uniform="false" />
  </defs>
  <sodipodi:namedview
     id="namedview1"
     pagecolor="#ffffff"
     bordercolor="#cccccc"
     borderopacity="1"
     inkscape:showpageshadow="0"
     inkscape:pageopacity="1"
     inkscape:pagecheckerboard="0"
     inkscape:deskcolor="#d1d1d1"
     showgrid="false"
     inkscape:zoom="2.0172222"
     inkscape:cx="219.60892"
     inkscape:cy="156.89892"
     inkscape:window-width="1920"
     inkscape:window-height="994"
     inkscape:window-x="0"
     inkscape:window-y="0"
     inkscape:window-maximized="1"
     inkscape:current-layer="g1" />
  <g
     inkscape:groupmode="layer"
     inkscape:label="Image"
     id="g1">
    <path
       id="path4"
       style="opacity:0.964699;fill:#0093dd;fill-opacity:1;stroke:none;stroke-width:1.33417;stroke-opacity:1"
       d="m 125.35345,0.35452113 c -2.65544,-0.00756 -5.26883,0.044743 -7.47851,0.1347661 -4.41937,0.180044 -7.22134,0.50869397 -12.50586,2.07421797 -5.28453,1.565525 -13.05118,4.367362 -19.70116,7.8046878 -6.64999,3.437325 -12.18187,7.510097 -17.2168,12.451172 -5.03494,4.941075 -9.57265,10.750257 -13.18555,16.435546 -3.61289,5.685291 -6.30071,11.24743 -8.21094,16.753907 -1.91022,5.506476 -3.04241,10.958345 -4.17382,16.410156 l 0.0918,51.232416 -13.99219,-0.0566 0.16406,64.61523 c 0,0 -7.4e-4,-5.4e-4 0.14844,-0.25195 0.14918,-0.25141 0.44712,-0.75378 1.36523,-1.95508 0.91811,-1.2013 2.45547,-3.10128 4.77539,-5.5293 2.31993,-2.42801 5.42362,-5.38371 8.66016,-8.0957 3.23654,-2.71199 6.60746,-5.17918 10.13672,-7.41797 3.52926,-2.23879 7.21578,-4.24881 11.15625,-5.98242 3.94046,-1.73361 8.13295,-3.19099 12.0332,-4.18164 3.90025,-0.99066 7.50862,-1.51508 16.11133,-2.47852 8.6027,-0.96344 22.2,-2.36654 33.84764,-3.89062 11.64766,-1.52408 21.34457,-3.16906 30.50586,-5.36328 9.16129,-2.19424 17.78591,-4.93659 24.8086,-7.63672 7.02267,-2.70014 12.44259,-5.35818 16.23242,-7.2793 3.78982,-1.92112 5.95,-3.10681 7.10937,-3.92187 1.15937,-0.81508 1.31878,-1.2594 1.46094,-7.7754 0.14217,-6.51598 0.26827,-19.103041 0.15625,-28.019517 -0.11201,-8.916479 -0.46238,-14.160908 -1.12305,-18.767578 -0.66065,-4.606672 -1.63166,-8.574497 -2.99804,-12.726563 -1.36639,-4.152066 -3.12815,-8.488996 -5.25586,-12.5625 -2.12772,-4.073504 -4.62238,-7.883945 -7.46875,-11.541015 -2.84637,-3.657072 -6.04435,-7.161152 -9.62696,-10.50586 -3.58259,-3.344707 -7.54948,-6.529735 -11.80664,-9.322266 -4.25714,-2.792529 -8.80384,-5.1928168 -12.95312,-6.9355458 -4.14928,-1.74273 -7.90084,-2.828334 -11.50977,-3.689454 -3.60891,-0.861118 -7.07646,-1.496284 -11.82812,-1.79882797 -2.37584,-0.15127 -5.07307,-0.2190011 -7.72852,-0.2265621 z m 0.61328,9.67578087 c 1.35648,-0.0171 2.72175,0.0064 4.05079,0.06055 2.65805,0.108362 5.17113,0.335516 7.39843,0.691406 2.22732,0.355892 4.16731,0.841866 6.2461,1.386719 2.07877,0.544853 4.29643,1.147893 6.58007,1.992187 2.28366,0.844296 4.63347,1.929504 6.28516,2.84961 1.65169,0.920105 2.60663,1.676429 2.02734,1.673828 -0.57927,-0.0026 -2.69128,-0.764955 -5.20898,-1.404297 -2.5177,-0.639342 -5.44175,-1.156045 -8.34766,-1.525391 -2.90589,-0.369344 -5.79357,-0.590091 -9.0332,-0.55664 -3.23963,0.03345 -6.83109,0.321561 -10.73828,0.728516 -3.90719,0.406953 -8.13071,0.931536 -11.66992,1.820312 -3.53923,0.888776 -6.39449,2.139909 -9.61524,3.601562 -3.22074,1.461655 -6.80586,3.134051 -9.99803,4.972657 -3.19219,1.838606 -5.99014,3.845086 -8.57422,5.898437 -2.58409,2.053351 -4.95448,4.154044 -7.39649,6.521485 -2.44201,2.367439 -4.95723,5.001176 -7.18359,7.55664 -2.22636,2.555466 -4.16508,5.031849 -5.83008,7.769531 -1.665,2.737684 -3.05553,5.735423 -4.18164,8.478516 -1.1261,2.743093 -1.98756,5.231645 -2.66015,6.611328 -0.6726,1.379684 -1.15649,1.651425 -1.39844,1.78711 -0.24196,0.135684 -0.24242,0.134621 -0.0918,-1.236328 0.15062,-1.370951 0.45327,-4.111276 1.17578,-7.123047 0.72251,-3.011771 1.86604,-6.293245 3.32812,-9.550782 1.46209,-3.257535 3.24206,-6.491301 5.28907,-9.673828 2.047,-3.182527 4.35985,-6.315191 6.58008,-8.886719 2.22022,-2.571526 4.34805,-4.582836 6.59179,-6.677734 2.24376,-2.094898 4.60489,-4.273607 6.91407,-5.847656 2.30917,-1.57405 4.5665,-2.542704 7.39843,-3.837891 2.83195,-1.295186 6.23713,-2.915078 9.78515,-4.099609 3.54802,-1.184531 7.23884,-1.934062 10.27344,-2.529297 3.0346,-0.595235 5.4134,-1.037852 8.0039,-1.263672 1.29526,-0.11291 2.64354,-0.170401 4,-0.1875 z m -1.34179,28.601563 c 2.12081,0.01374 4.30536,0.170322 6.41406,0.449218 4.21739,0.557792 8.13586,1.608652 11.95312,3.330078 3.81727,1.721427 7.53153,4.113369 10.53321,6.554688 3.00168,2.441319 5.29084,4.930612 7.25781,7.544922 1.96697,2.61431 3.61295,5.35346 4.62305,7.412109 1.0101,2.058649 1.38348,3.437873 1.84765,5.402344 0.46418,1.964471 1.01891,4.514371 1.47266,6.273437 0.45375,1.759067 0.8069,2.727708 0.96094,10.183594 0.15404,7.455884 0.10909,21.398435 0.13086,28.826165 0.0218,7.42773 0.11029,8.33847 0.13086,8.78125 0.0206,0.44277 -0.0264,0.41714 -14.97071,0.4043 -14.94433,-0.0128 -44.7864,-0.0117 -59.70702,-0.0117 -14.92062,0 -14.9201,4.1e-4 -14.91406,-0.18946 0.006,-0.18987 0.0169,-0.57128 0.0215,-0.78515 0.005,-0.21387 0.002,-0.2618 0.0293,-6.99414 0.0274,-6.73235 0.0858,-20.148951 0.13867,-27.560542 0.0528,-7.411594 0.10055,-8.815705 0.31446,-10.710937 0.21391,-1.895232 0.59401,-4.281656 1.39257,-7.087891 0.79856,-2.806234 2.01485,-6.033519 3.51954,-8.824219 1.50468,-2.790699 3.29756,-5.142942 5.61523,-7.591796 2.31767,-2.448855 5.16129,-4.993927 8.18945,-7.00586 3.02816,-2.011932 6.24045,-3.492393 9.30663,-4.84375 3.06619,-1.351356 5.9856,-2.573689 9.70313,-3.152344 1.85876,-0.289327 3.9163,-0.418032 6.03711,-0.404296 z" />
    <path
       style="opacity:0.964699;fill:#0093dd;fill-opacity:1;stroke:none;stroke-width:1.33417;stroke-opacity:1"
       d="m 71.493304,264.9515 c 0,0 163.563106,0.31045 163.563106,0.31045 0,0 0.22204,-116.98128 0.22204,-116.98128 -3.18842,3.3242 -6.37684,6.64841 -9.46015,9.48483 -3.0833,2.83642 -6.06137,5.18497 -8.7911,7.26375 -2.72972,2.07878 -5.21094,3.88768 -9.15397,6.47814 -3.94303,2.59046 -9.3476,5.96231 -14.55528,8.59408 -5.20769,2.63176 -10.21817,4.5233 -14.92475,6.14007 -4.70658,1.61677 -9.10898,2.95868 -13.37948,4.12486 -4.2705,1.16617 -8.40885,2.15654 -11.46719,2.78173 -3.05833,0.62519 -5.0365,0.88518 -7.95927,1.02483 -2.92277,0.13964 -6.78995,0.15894 -8.94537,0.15214 -2.15542,-0.007 -2.59899,-0.0397 -1.88137,0.20206 0.71762,0.24175 2.59636,0.75815 5.40855,1.12495 2.81219,0.36681 6.55765,0.58401 10.18867,0.59538 3.63102,0.0114 7.14739,-0.18308 11.67613,-0.48352 4.52874,-0.30044 10.06956,-0.70685 14.11063,-1.18785 4.04107,-0.481 6.58218,-1.03655 9.87218,-1.91996 3.29001,-0.88341 7.32869,-2.09461 11.03678,-3.473 3.7081,-1.3784 7.08539,-2.92391 10.1926,-4.49539 3.1072,-1.57148 5.94414,-3.16883 8.67694,-4.69703 2.73281,-1.5282 5.36133,-2.98715 7.91038,-4.24724 2.54905,-1.2601 5.01849,-2.32128 6.6444,-2.97634 1.62591,-0.65506 2.4082,-0.90397 2.92635,-0.80131 0.51815,0.10267 0.77214,0.55691 0.78856,1.07047 0.0164,0.51356 -0.20472,1.08643 -1.08255,2.64894 -0.87784,1.5625 -2.41231,4.11454 -4.10167,6.44809 -1.68936,2.33354 -3.5335,4.44844 -5.49915,6.67408 -1.96566,2.22564 -4.05272,4.56189 -6.58454,6.89301 -2.53181,2.33113 -5.50822,4.65701 -7.90683,6.44427 -2.39861,1.78726 -4.21929,3.03582 -6.38859,4.39257 -2.1693,1.35676 -4.68708,2.82162 -8.37854,4.76157 -3.69145,1.93994 -8.55634,4.35484 -13.02018,6.09737 -4.46383,1.74252 -8.52635,2.81257 -13.51895,3.93898 -4.99259,1.1264 -10.91493,2.30908 -16.44297,3.2354 -5.52803,0.92633 -10.66143,1.59626 -15.36909,1.99487 -4.70766,0.3986 -8.98931,0.52587 -13.66522,0.68037 -4.67591,0.1545 -9.74579,0.33622 -12.3039,0.51292 -2.5581,0.1767 -2.60434,0.3484 -1.66377,0.62846 0.94056,0.28007 2.86784,0.66851 5.5195,1.07006 2.65165,0.40156 6.02749,0.81621 9.85527,1.34608 3.82778,0.52986 8.10724,1.17491 12.66643,1.50017 4.5592,0.32527 9.39784,0.33073 14.32509,0.24802 4.92724,-0.0827 9.9428,-0.25359 15.14279,-0.71144 5.19999,-0.45785 10.5841,-1.20263 15.09978,-2.17289 4.51569,-0.97025 8.16269,-2.16592 11.86924,-3.45318 3.70654,-1.28725 7.4724,-2.66602 10.32603,-3.69397 2.85364,-1.02795 4.7949,-1.70502 6.01166,-2.09047 1.21677,-0.38545 1.70899,-0.47927 2.03664,-0.34686 0.32766,0.1324 0.49073,0.49099 0.23135,1.26137 -0.25938,0.77038 -0.94119,1.95248 -2.0173,3.29802 -1.07611,1.34555 -2.54646,2.85445 -4.45264,4.58119 -1.90618,1.72674 -4.24807,3.67122 -6.70027,5.40242 -2.45221,1.7312 -5.01458,3.24901 -8.32032,5.1486 -3.30574,1.89959 -7.35463,4.18083 -11.09274,5.99602 -3.73812,1.8152 -7.16523,3.16426 -10.88128,4.4743 -3.71605,1.31004 -7.72081,2.581 -11.78804,3.62483 -4.06724,1.04382 -8.19671,1.86046 -11.7198,2.24715 -3.52309,0.3867 -6.43959,0.34342 -14.55443,0.40925 -8.11485,0.0658 -21.42744,0.24075 -28.9581,0.54018 -7.530661,0.29943 -9.279052,0.72334 -11.513313,1.30623 -2.23426,0.58289 -4.954242,1.3247 -7.695139,2.33451 -2.740897,1.00981 -5.502544,2.28755 -7.2,3.03966 -1.697457,0.75212 -2.330646,0.97858 -2.647245,1.09182 -0.316599,0.11323 -0.316599,0.11321 -0.316599,0.11321 z"
       id="path6"
       inkscape:path-effect="#path-effect7"
       inkscape:original-d="m 71.493304,264.9515 163.563106,0.31045 0.22204,-116.98128 c 0,0 -6.37684,6.64841 -9.56526,9.97261 -2.97819,2.34864 -5.95626,4.69719 -8.93439,7.04578 -2.48132,1.80897 -4.96254,3.61787 -7.44381,5.4268 -5.40479,3.37199 -10.80936,6.74384 -16.21404,10.11576 -5.01069,1.89161 -10.02117,3.78315 -15.03176,5.67472 -4.40257,1.34197 -8.80497,2.68388 -13.20745,4.02582 -4.13852,0.99041 -8.27687,1.98078 -12.4153,2.97117 -1.97824,0.26 -3.95641,0.51998 -5.93461,0.77997 -3.86734,0.0193 -7.73452,0.0386 -11.60178,0.0579 -0.44358,-0.0329 -0.88715,-0.0658 -1.33072,-0.0987 1.87881,0.51641 3.75755,1.0328 5.63632,1.54921 3.74561,0.21721 7.49107,0.43441 11.2366,0.65162 3.51651,-0.19446 7.03288,-0.38892 10.54932,-0.58338 5.54104,-0.40642 11.08186,-0.81283 16.62278,-1.21925 2.54122,-0.55558 5.08233,-1.11113 7.62349,-1.6667 4.03885,-1.21125 8.07753,-2.42244 12.1163,-3.63367 3.37742,-1.54557 6.75471,-3.09108 10.13207,-4.63662 2.83705,-1.59742 5.67399,-3.19477 8.51098,-4.79216 2.62862,-1.45901 5.25714,-2.91796 7.8857,-4.37693 2.46954,-1.06122 4.93898,-2.1224 7.40847,-3.1836 0.78233,-0.24892 1.56462,-0.49783 2.34692,-0.74675 0.254,0.45425 0.50799,0.90849 0.76198,1.36273 -0.22114,0.57288 -0.44229,1.14575 -0.66343,1.71862 -1.53453,2.55214 -3.06901,5.10418 -4.60351,7.65628 -1.84421,2.11499 -3.68835,4.22989 -5.53252,6.34484 -2.08714,2.33633 -4.1742,4.67258 -6.2613,7.00886 -2.97653,2.32597 -5.95294,4.65185 -8.92941,6.97777 -1.82075,1.2486 -3.64143,2.49716 -5.46215,3.74574 -2.51788,1.46493 -5.03566,2.92979 -7.55349,4.39469 -4.86508,2.415 -9.72997,4.8299 -14.59496,7.24484 -4.06268,1.0701 -8.1252,2.14016 -12.1878,3.21023 -5.92259,1.18273 -11.84493,2.36541 -17.7674,3.54811 -5.1336,0.66995 -10.267,1.33988 -15.4005,2.00982 -4.28182,0.12727 -8.56347,0.25454 -12.84521,0.38181 -5.07008,0.18173 -10.13996,0.36345 -15.20994,0.54517 -0.0462,0.17169 -0.0925,0.34337 -0.1387,0.51506 1.92736,0.38845 3.85464,0.77689 5.78196,1.16533 3.37599,0.41467 6.75183,0.82932 10.12775,1.24398 4.27964,0.64507 8.5591,1.29012 12.83865,1.93518 4.83884,0.005 9.67748,0.0109 14.51622,0.0164 5.01575,-0.17089 10.03131,-0.34177 15.04696,-0.51265 5.38433,-0.74482 10.76844,-1.4896 16.15266,-2.2344 3.64715,-1.19571 7.29415,-2.39138 10.94123,-3.58707 3.76601,-1.37883 7.53187,-2.75759 11.29781,-4.13639 1.94133,-0.6771 3.88259,-1.35417 5.82388,-2.03126 0.49224,-0.0938 0.98446,-0.18762 1.47669,-0.28144 0.16308,0.35862 0.32615,0.71721 0.48922,1.07582 -0.68183,1.18215 -1.36364,2.36425 -2.04546,3.54638 -1.4704,1.50896 -2.94075,3.01786 -4.41113,4.52679 -2.34198,1.94455 -4.68387,3.88903 -7.0258,5.83355 -2.56248,1.51787 -5.12485,3.03569 -7.68728,4.55354 -4.04905,2.28133 -8.09794,4.56256 -12.14691,6.84385 -3.42726,1.34911 -6.85437,2.69816 -10.28155,4.04725 -4.00492,1.271 -8.00968,2.54196 -12.01452,3.81294 -4.12963,0.81667 -8.2591,1.63331 -12.38865,2.44997 -2.91663,-0.0433 -5.83313,-0.0865 -8.7497,-0.12982 -13.31312,0.17492 -26.62571,0.34985 -39.938567,0.52477 -1.748463,0.42394 -3.496856,0.84785 -5.245283,1.27178 -2.720092,0.74185 -5.440075,1.48366 -8.160112,2.22549 -2.761757,1.27779 -5.523403,2.55553 -8.285105,3.83329 -0.633212,0.22647 -1.266399,0.45294 -1.899599,0.6794 z"
       transform="translate(-14.14849,-9.6279008)" />
  </g>
</svg>
