<?xml version="1.0" encoding="UTF-8" standalone="no"?>
<!-- Created with Inkscape (http://www.inkscape.org/) -->

<svg
   version="1.1"
   id="svg33406"
   xml:space="preserve"
   width="20"
   height="20"
   viewBox="0 0 20 20"
   xmlns="http://www.w3.org/2000/svg"
   xmlns:svg="http://www.w3.org/2000/svg"><defs
     id="defs33410" /><g
     id="g33418"
     transform="matrix(1.2494324,0,0,1.3359991,-1.137815,-2.7917981)"><path
       d="m 3.7098313,15.21086 h 5.5434688 c 3.0378319,0 4.8709559,-1.203315 4.8709559,-3.185358 0,-1.364885 -0.924079,-2.4066304 -2.615885,-2.8913388 1.456277,-0.3522586 2.207967,-1.1591661 2.207967,-2.3925413 0,-1.8345634 -1.690803,-2.8030402 -4.8539172,-2.8030402 H 3.771971 L 3.709831,4.5989496 C 4.258064,4.7605188 4.5868035,4.9361785 4.8062972,5.1268679 V 14.007545 C 4.4775581,14.315654 4.2269945,14.433074 3.7719711,14.520434 Z M 7.452249,8.7377548 V 5.0395077 c 0.3608114,-0.059179 0.7045847,-0.07327 1.174642,-0.07327 1.456276,0 2.286141,0.645338 2.286141,1.804504 0,1.3066452 -0.829865,1.9670129 -2.4585287,1.9670129 z m 1.2377841,5.4304202 c -0.3918814,0 -0.7677269,-0.02912 -1.2377841,-0.05824 V 9.794534 h 0.9711844 c 1.8631896,0 2.8193406,0.763697 2.8193406,2.260092 0,1.453185 -0.798796,2.113552 -2.5527409,2.113552 z"
       style="fill:#1a1a1a;fill-opacity:1;fill-rule:nonzero;stroke:#1a1a1a;stroke-width:0.727722;stroke-linecap:butt;stroke-linejoin:miter;stroke-miterlimit:4;stroke-dasharray:none;stroke-opacity:1"
       id="path33420" /></g></svg>
