<?xml version="1.0" encoding="UTF-8" standalone="no"?>
<svg
   inkscape:version="1.2 (dc2aedaf03, 2022-05-15)"
   id="svg8"
   version="1.1"
   viewBox="0 0 16 16"
   height="16"
   width="16"
   sodipodi:docname="source-symbols.svg"
   xmlns:inkscape="http://www.inkscape.org/namespaces/inkscape"
   xmlns:sodipodi="http://sodipodi.sourceforge.net/DTD/sodipodi-0.dtd"
   xmlns="http://www.w3.org/2000/svg"
   xmlns:svg="http://www.w3.org/2000/svg"
   xmlns:rdf="http://www.w3.org/1999/02/22-rdf-syntax-ns#"
   xmlns:cc="http://creativecommons.org/ns#"
   xmlns:dc="http://purl.org/dc/elements/1.1/">
  <defs
     id="defs2" />
  <sodipodi:namedview
     units="px"
     borderlayer="true"
     inkscape:showpageshadow="false"
     showgrid="false"
     inkscape:document-rotation="0"
     inkscape:current-layer="layer1"
     inkscape:document-units="px"
     inkscape:cy="560"
     inkscape:cx="400"
     inkscape:zoom="0.35"
     inkscape:pageshadow="2"
     inkscape:pageopacity="0"
     borderopacity="1"
     bordercolor="#383838"
     pagecolor="#ffffff"
     id="base"
     inkscape:pagecheckerboard="1"
     inkscape:deskcolor="#1f1f1f">
    <inkscape:grid
       type="xygrid"
       id="grid15539" />
  </sodipodi:namedview>
  <metadata
     id="metadata5">
    <rdf:RDF>
      <cc:Work
         rdf:about="">
        <dc:format>image/svg+xml</dc:format>
        <dc:type
           rdf:resource="http://purl.org/dc/dcmitype/StillImage" />
        <cc:license
           rdf:resource="http://creativecommons.org/licenses/by-sa/4.0/" />
      </cc:Work>
      <cc:License
         rdf:about="http://creativecommons.org/licenses/by-sa/4.0/">
        <cc:permits
           rdf:resource="http://creativecommons.org/ns#Reproduction" />
        <cc:permits
           rdf:resource="http://creativecommons.org/ns#Distribution" />
        <cc:requires
           rdf:resource="http://creativecommons.org/ns#Notice" />
        <cc:requires
           rdf:resource="http://creativecommons.org/ns#Attribution" />
        <cc:permits
           rdf:resource="http://creativecommons.org/ns#DerivativeWorks" />
        <cc:requires
           rdf:resource="http://creativecommons.org/ns#ShareAlike" />
      </cc:License>
    </rdf:RDF>
  </metadata>
  <g
     id="layer1"
     inkscape:groupmode="layer"
     inkscape:label="Layer 1"
     transform="translate(-702)">
    <g
       inkscape:label="task todo plan notes assigned"
       id="g295874"
       style="fill:#222222"
       transform="translate(690.01745,-668.00458)">
      <title
         id="title295864">task-assigned</title>
      <path
         style="color:#000000;fill:#2e3436;fill-opacity:1;-inkscape-stroke:none"
         d="m 14.982422,668.00391 c -1.644701,0 -3,1.3553 -3,3 v 10 c 0,1.6447 1.355299,3 3,3 h 10 c 1.644701,0 3,-1.3553 3,-3 v -10 c 0,-1.6447 -1.355299,-3 -3,-3 z m 0,2 h 10 c 0.571297,0 1,0.4287 1,1 v 10 c 0,0.57129 -0.428703,1 -1,1 h -10 c -0.571297,0 -1,-0.42871 -1,-1 v -10 c 0,-0.5713 0.428703,-1 1,-1 z"
         id="path295868" />
      <path
         style="fill:#2e3436;fill-opacity:1;fill-rule:nonzero;stroke:none;stroke-width:2;stroke-linecap:round;stroke-linejoin:round;stroke-opacity:1;stop-color:#000000"
         d="m 21.982804,671.04515 v 1 0.98633 h 0.0137 l 5.017654,-0.0406 v 2 c 0,0 -4.783808,0.0476 -5.017654,0.0406 h -0.0137 v 1.01367 1 h -1 v -0.006 c -0.26436,0.002 -0.51856,-0.10172 -0.70703,-0.28711 l -2,-2 c -0.39037,-0.39053 -0.39037,-1.02353 0,-1.41406 l 2,-2 c 0.18847,-0.18525 0.44267,-0.28911 0.70703,-0.28711 v -0.006 z"
         id="path295872"
         sodipodi:nodetypes="ccccccccccccccccccc" />
      <path
         style="color:#000000;fill:#2e3436;fill-opacity:1;-inkscape-stroke:none"
         d="m 17.295544,673.99571 -0.333496,0.0117 c -1.09336,0.004 -1.988281,0.90273 -1.988281,1.9961 v 3.01953 c 0,1.09314 0.895141,1.99023 1.988281,1.99023 h 2.986328 c 1.09314,0 1.990234,-0.89709 1.990234,-1.99023 v -1.02164 h -1 v 1.02164 c 0,0.5527 -0.437534,0.99023 -0.990234,0.99023 h -2.986328 c -0.5527,0 -0.988281,-0.43753 -0.988281,-0.99023 v -3.01953 c 0,-0.55419 0.436054,-0.99413 0.990234,-0.9961 l 0.335449,-0.0117 z"
         id="path277520-5"
         sodipodi:nodetypes="ccsssssccsssssccc" />
    </g>
  </g>
</svg>
