<?xml version="1.0" encoding="UTF-8" standalone="no"?>
<!-- Created with Inkscape (http://www.inkscape.org/) -->

<svg
   version="1.1"
   id="svg824"
   xml:space="preserve"
   width="20"
   height="20"
   viewBox="0 0 20 20"
   xmlns="http://www.w3.org/2000/svg"
   xmlns:svg="http://www.w3.org/2000/svg"><defs
     id="defs828" /><g
     id="g5385"><g
       id="g834"
       transform="matrix(1.1428571,0,0,1.3692585,0.51314285,-2.6450904)"
       style="fill:#e6e6e6;fill-opacity:1;stroke:#e6e6e6;stroke-width:1.5;stroke-miterlimit:4;stroke-dasharray:none"><path
         d="m 5.676,4.566 h 10.5"
         style="fill:#e6e6e6;fill-opacity:1;stroke:#e6e6e6;stroke-width:1.5;stroke-linecap:butt;stroke-linejoin:miter;stroke-miterlimit:4;stroke-dasharray:none;stroke-opacity:1"
         id="path836" /></g><g
       id="g838"
       transform="matrix(1.2609312,0,0,1.3692585,-0.15704562,-2.2610196)"
       style="stroke:#e6e6e6;stroke-width:1.5;stroke-miterlimit:4;stroke-dasharray:none"><path
         d="m 5.676,9.066 h 9.516776"
         style="fill:none;stroke:#e6e6e6;stroke-width:1.42804;stroke-linecap:butt;stroke-linejoin:miter;stroke-miterlimit:4;stroke-dasharray:none;stroke-opacity:1"
         id="path840" /></g><g
       id="g842"
       transform="matrix(1.1428571,0,0,1.3692585,0.51314285,-2.2604169)"
       style="stroke:#e6e6e6;stroke-width:1.5;stroke-miterlimit:4;stroke-dasharray:none"><path
         d="m 5.676,13.566 h 10.5"
         style="fill:none;stroke:#e6e6e6;stroke-width:1.5;stroke-linecap:butt;stroke-linejoin:miter;stroke-miterlimit:4;stroke-dasharray:none;stroke-opacity:1"
         id="path844" /></g><path
       d="M 3.540192,8.5547776 H 4.8624884 V 1.4099871 H 4.0538112 L 1.362774,2.8203232 1.8763932,3.7212954 3.540192,2.9928498 Z"
       style="fill:#e6e6e6;fill-opacity:1;fill-rule:nonzero;stroke:none;stroke-width:2.73526"
       id="path846" /><path
       d="M 1.2790067,17.682061 H 6.0600376 V 16.526407 H 3.1996149 c 1.8359161,-1.626678 2.6036128,-2.782332 2.6036128,-3.979064 0,-1.284364 -0.939814,-2.097704 -2.3905154,-2.097704 -0.8961016,0 -1.7075108,0.301236 -2.3468029,0.81334 l 0.3824823,0.985866 c 0.5573316,-0.429948 1.1529115,-0.643553 1.7075111,-0.643553 0.8114092,0 1.2813162,0.471027 1.2813162,1.155655 0,0.983128 -0.9807944,2.053888 -3.1582123,4.02288 z"
       style="fill:#e6e6e6;fill-opacity:1;fill-rule:nonzero;stroke:none;stroke-width:2.73526"
       id="path848" /></g></svg>
