<?xml version="1.0" encoding="UTF-8" standalone="no"?>
<svg
   height="16"
   width="16"
   version="1.1"
   id="svg180"
   xmlns="http://www.w3.org/2000/svg"
   xmlns:svg="http://www.w3.org/2000/svg">
  <defs
     id="defs184" />
  <g
     transform="translate(-121.063,-316)"
     style="fill:#222222"
     id="g174">
    <path
       style="fill:#212121;fill-opacity:1"
       d="m 124.031,317 a 3.038,3.038 0 0 0 -3.03,3.031 v 7.938 a 3.038,3.038 0 0 0 3.03,3.031 h 9 a 3.038,3.038 0 0 0 3.032,-3.031 v -7.938 A 3.038,3.038 0 0 0 133.03,317 Z m 4,1 h 1 v 2 h -1 z m -5.03,3 h 11.062 v 6.969 c 0,0.596 -0.436,1.031 -1.032,1.031 h -9 c -0.595,0 -1.03,-0.435 -1.03,-1.031 z"
       id="path168" />
    <rect
       style="fill:#212121;fill-opacity:1;stroke-width:5.02468;stop-color:#000000"
       width="1.1"
       height="9"
       x="127.931"
       y="321"
       rx="0"
       ry="0"
       id="rect170" />
    <path
       style="fill:#212121;fill-opacity:1;stroke-width:5.46241;stop-color:#000000"
       d="m 122.031,323 h 13 v 1 h -13 z m 0,3 h 13 v 1 h -13 z"
       id="path172" />
  </g>
</svg>
