<svg xmlns="http://www.w3.org/2000/svg" xmlns:xlink="http://www.w3.org/1999/xlink" width="128" height="128" version="1.0" enable-background="new"><defs><linearGradient id="b"><stop offset="0" stop-color="#dc8add"/><stop offset="1" stop-color="#813d9c"/></linearGradient><linearGradient id="c"><stop offset="0" stop-color="#fff"/><stop offset=".4" stop-color="#fff"/><stop offset="1" stop-color="#edece9"/></linearGradient><linearGradient id="a"><stop offset="0" stop-color="#fff"/><stop offset="1" stop-color="#edece9"/></linearGradient><linearGradient xlink:href="#a" id="e" x1="232" y1="23.717" x2="232" y2="-148" gradientUnits="userSpaceOnUse" gradientTransform="matrix(.286 0 0 .286 -2.163 229.657)"/><radialGradient xlink:href="#b" id="f" cx="344" cy="87.14" fx="344" fy="87.14" r="103.75" gradientUnits="userSpaceOnUse" gradientTransform="matrix(.33959 0 0 .33959 -25.387 226.06)"/><radialGradient xlink:href="#c" id="g" cx="344.5" cy="169.661" fx="344.5" fy="169.661" r="80" gradientUnits="userSpaceOnUse" gradientTransform="matrix(.42122 0 0 .42122 -53.466 207.313)"/><filter id="d" color-interpolation-filters="sRGB"><feBlend mode="multiply" in2="BackgroundImage"/></filter></defs><g filter="url(#d)" transform="translate(0 -172)"><path style="marker:none" d="M64 175.991a9.272 9.272 0 0 0-6.518 2.662L16 220v68h96v-68l-41.482-41.347A9.272 9.272 0 0 0 64 175.99z" fill="#9a9996" enable-background="new"/><rect ry="0" style="marker:none" width="80" height="88" x="24" y="188" fill="url(#e)" enable-background="new"/><path style="marker:none" d="M16 220l48 44v24l-48 .001zM112 220l-48 44 .19 24.002L112 288z" fill="#deddda" enable-background="new"/><path style="marker:none" d="M16 288l41.666-40.807c3.614-3.552 9.434-3.552 13.048 0L112 288z" fill="#edece9" enable-background="new"/><g transform="matrix(1.05052 0 0 1.05052 -2.122 -15.612)" stroke-width=".952"><path d="M69.953 251.55a28.557 28.557 0 0 0-7.01 18.714c.003 6.37 2.74 13.73 6.663 18.748h37.874z" style="marker:none" opacity=".15" enable-background="new"/><ellipse ry="28.557" rx="28.557" cy="268.068" cx="91.5" style="marker:none" fill="url(#f)" enable-background="new"/><circle r="22.846" cy="268.068" cx="91.5" style="marker:none" fill="url(#g)" enable-background="new"/><path d="M91.494 268.07l-9.513-9.52" fill="none" stroke="#68676b" stroke-width="3.808" stroke-linecap="round" enable-background="new"/><path d="M91.5 268.072l12.375-12.377" fill="none" stroke="#949390" stroke-width="1.904" stroke-linecap="round" enable-background="new"/><path d="M91.504 268.054l-8.571 14.295" fill="none" stroke="#f66151" stroke-width="1.904" stroke-linecap="round" enable-background="new"/><circle r="1.904" cy="268.07" cx="91.5" style="marker:none" color="#000" overflow="visible" fill="#131c1a" enable-background="accumulate"/></g></g></svg>