<?xml version="1.0" encoding="UTF-8" standalone="no"?>
<svg
   height="16"
   width="16"
   version="1.1"
   id="svg180"
   xmlns="http://www.w3.org/2000/svg"
   xmlns:svg="http://www.w3.org/2000/svg">
  <defs
     id="defs184" />
  <g
     transform="translate(-896,-220)"
     id="g32">
    <path
       style="fill:#222222;fill-opacity:0.35"
       d="m 902.375,220.02 a 1,1 0 0 0 -0.371,0.156 1,1 0 0 0 -0.404,1.064 c 0,0 0.376,1.522 0.656,3.22 0.14,0.848 0.254,1.736 0.287,2.47 -0.205,-0.194 -0.358,-0.226 -0.537,-0.457 -0.514,-0.662 -0.858,-1.293 -0.858,-1.293 a 1,1 0 0 0 -1.804,0.1 c 0,0 -0.538,1.317 -0.91,2.907 -0.373,1.591 -0.755,3.49 0.232,5 1.598,2.445 4.649,3.351 7.334,2.497 v -2.149 l -0.059,0.03 c -1.999,0.928 -4.412,0.347 -5.601,-1.471 -0.29,-0.444 -0.29,-2.038 0.04,-3.451 0.094,-0.4 0.128,-0.396 0.231,-0.739 0.605,0.76 1.354,1.59 2.522,1.834 a 1,1 0 0 0 1.101,-0.535 c 0.368,-0.744 0.346,-1.49 0.307,-2.355 -0.039,-0.866 -0.165,-1.817 -0.313,-2.713 -0.05,-0.302 -0.062,-0.285 -0.115,-0.569 0.378,0.318 0.4,0.28 0.817,0.674 1.494,1.415 2.944,3.297 3.123,4.516 0.063,0.435 0.092,0.85 0.084,1.244 h 1.98 a 8.405,8.405 0 0 0 -0.084,-1.533 c -0.325,-2.224 -2.112,-4.148 -3.728,-5.678 -1.616,-1.53 -3.162,-2.61 -3.162,-2.61 a 1,1 0 0 0 -0.768,-0.16 z"
       id="path28" />
    <path
       style="fill:#222222"
       d="m 907,231 h 1.375 l 1.125,1.094 1.094,-1.094 H 912 v 1.469 l -1.094,1.062 1.094,1.063 V 236 h -1.438 L 909.5,234.937 908.437,236 H 907 v -1.406 l 1.063,-1.063 L 907,232.47 Z"
       id="path30" />
  </g>
</svg>
