/* XPM */
static char * dayview_xpm[] = {
"24 24 15 1",
" 	c None",
".	c #000000",
"+	c #FFFFFF",
"@	c #D1D1D1",
"#	c #AAAFE2",
"$	c #C7CAEB",
"%	c #A3A6C7",
"&	c #0010A8",
"*	c #555FC5",
"=	c #1725AC",
"-	c #4550B5",
";	c #E3E4F5",
">	c #8B90C3",
",	c #3945BB",
"'	c #BABBCC",
"                        ",
"                        ",
"                        ",
"                        ",
" ...................... ",
" .............+.++.++.. ",
" .++@++@++@++@++@++@++. ",
" .++@++@++@++@++@++@++. ",
" .@@@@@@@@@@@@@@@@@@@@. ",
" .++@++@++@#$@++@++@++. ",
" .++@++@++%&*@++@++@++. ",
" .@@@@@@@%=&-@@@@@@@@@. ",
" .++@++@++@&*@++@++@++. ",
" .++@++@++@&*@++@++@++. ",
" .@@@@@@@@@&-@@@@@@@@@. ",
" .++@++@++@&*@++@++@++. ",
" .++@++@+;>&,>++@++@++. ",
" .@@@@@@@'>>>>@@@@@@@@. ",
" .++@++@++@++@++@++@++. ",
" .++@++@++@++@++@++@++. ",
" ...................... ",
"                        ",
"                        ",
"                        "};
