/* XPM */
static char * dayview_xpm[] = {
"24 24 7 1",
" 	c None",
".	c #000000",
"+	c #FFFFFF",
"@	c #D8D8D4",
"#	c #666666",
"$	c #F2F1ED",
"%	c #919191",
"....................... ",
".+++@+++++++++++++++++. ",
".+@@#$$$$$$$$$$$$$$$$%. ",
".+@@#$$$$$$$$$$$$$$$$%. ",
".+@@#$$$$$$$$$$$$$$$$%. ",
".%###%%%%%%%%%%%%%%%%#. ",
".+@@#$$$$$$$$$$$$$$$$%. ",
".+@@#$$$$$$$$$$$$$$$$%. ",
".+@@#$$$$$$$$$$$$$$$$%. ",
".%###%%%%%%%%%%%%%%%%#. ",
".+@@#$$$$$$$$$$$$$$$$%. ",
".+@@#$$$$$$$$$$$$$$$$%. ",
".+@@#$$$$$$$$$$$$$$$$%. ",
".%###%%%%%%%%%%%%%%%%#. ",
".+@@#$$$$$$$$$$$$$$$$%. ",
".+@@#$$$$$$$$$$$$$$$$%. ",
".+@@#$$$$$$$$$$$$$$$$%. ",
".%###%%%%%%%%%%%%%%%%#. ",
".+@@#$$$$$$$$$$$$$$$$%. ",
".+@@#$$$$$$$$$$$$$$$$%. ",
".+@@#$$$$$$$$$$$$$$$$%. ",
".@%%#%%%%%%%%%%%%%%%%#. ",
"....................... ",
"                        "};
