/* XPM */
static char * monthview_xpm[] = {
"24 24 19 1",
" 	c None",
".	c #000000",
"+	c #FFFFFF",
"@	c #D1D1D1",
"#	c #BABBCC",
"$	c #AAAFE2",
"%	c #8B90C3",
"&	c #E3E4F5",
"*	c #A3A6C7",
"=	c #5D66BA",
"-	c #3945BB",
";	c #555FC5",
">	c #2E3BB1",
",	c #727ACE",
"'	c #C7CAEB",
")	c #0010A8",
"!	c #4550B5",
"~	c #1725AC",
"{	c #8E95D8",
"                        ",
"                        ",
"                        ",
"                        ",
" ...................... ",
" .............+.++.++.. ",
" .++@++@++@++@++@++@++. ",
" .++@++@++@++@++@++@++. ",
" .@@@@@@@@@@@@@@@@@@@@. ",
" .++@++#$$%&+@+$*++@++. ",
" .++@+&=-;>,+@')!++@++. ",
" .@@@@%)%@%)@*~)!@@@@@. ",
" .++@++@'$=-+@+)!++@++. ",
" .++@++@{;>,+@+)!++@++. ",
" .@@@@@@@@%)@@@)!@@@@@. ",
" .++@+$)$+%)+@+)!++@++. ",
" .++@+'>,$=-+#$)>$+@++. ",
" .@@@@@#%%%#@#%%%%@@@@. ",
" .++@++@++@++@++@++@++. ",
" .++@++@++@++@++@++@++. ",
" ...................... ",
"                        ",
"                        ",
"                        "};
