/* XPM */
static char * recur_xpm[] = {
"16 16 64 1",
" 	c None",
".	c #350000",
"+	c #2A0000",
"@	c #1B0000",
"#	c #280000",
"$	c #430000",
"%	c #090000",
"&	c #160000",
"*	c #250000",
"=	c #460000",
"-	c #550000",
";	c #610000",
">	c #0D0000",
",	c #1F0000",
"'	c #4B0000",
")	c #5E0000",
"!	c #6B0000",
"~	c #750000",
"{	c #790000",
"]	c #810000",
"^	c #FFFF83",
"/	c #FFFF89",
"(	c #FFFF93",
"_	c #8B0000",
":	c #900000",
"<	c #930000",
"[	c #FFFF62",
"}	c #A10000",
"|	c #FFFF41",
"1	c #FFFF3B",
"2	c #FFFF31",
"3	c #B70000",
"4	c #B20000",
"5	c #AE0000",
"6	c #FFFF22",
"7	c #FFFF16",
"8	c #FFFF06",
"9	c #C90000",
"0	c #C10000",
"a	c #BB0000",
"b	c #FFF600",
"c	c #FFE100",
"d	c #FFC500",
"e	c #E40000",
"f	c #D70000",
"g	c #CD0000",
"h	c #FFDB00",
"i	c #FFA900",
"j	c #FF8500",
"k	c #FF5900",
"l	c #FF2800",
"m	c #FC0000",
"n	c #ED0000",
"o	c #E10000",
"p	c #FFAF00",
"q	c #FF9400",
"r	c #FF7400",
"s	c #FF5000",
"t	c #FF0100",
"u	c #F30000",
"v	c #E80000",
"w	c #FF6900",
"x	c #FF4900",
"y	c #FF0800",
"                ",
"        .       ",
"       +.       ",
"      @#.$      ",
"     %&*.=-;    ",
"      >,.')!~   ",
"       &. !{]   ",
"  ^/(   .  _:<  ",
"  [[[      }}}  ",
"  |12      345  ",
"  678      90a  ",
"   bcd    efg   ",
"   hdijklmnof   ",
"    pqrsltuv    ",
"      wxly      ",
"                "};
