/* XPM */
static char * task_assigned_to_xpm[] = {
"16 16 11 1",
" 	c None",
".	c #000000",
"+	c #FFFFFF",
"@	c #F3F3F3",
"#	c #CCCCCC",
"$	c #B2B2B2",
"%	c #ECECEC",
"&	c #ABCCAB",
"*	c #768E76",
"=	c #5E705E",
"-	c #EEEEEE",
"                ",
"  ...........   ",
" .++++++++++@.  ",
" .+#########$.  ",
" .+%%%%%%%..$.  ",
" .+#######.&..  ",
" .+%%......&&.  ",
" .+##.&&&&&&&&. ",
" .+%%.&*&*&*&*&.",
" .+##.========. ",
" .+%%......==.  ",
" .+#######.=..  ",
" .+%%%%%%%..$.  ",
" .-$$$$$$$$$$.  ",
"  ...........   ",
"                "};
