/* XPM */
static char * task_recurring_xpm[] = {
"16 16 2 1",
" 	c None",
".	c #333366",
"                ",
"                ",
"    ..   .....  ",
"  ...    ....   ",
"  ..     ....   ",
" ..      .....  ",
" ..      .  ..  ",
" ..         ..  ",
" ..  .      ..  ",
" .....      ..  ",
"  ....     ..   ",
"  ....    ...   ",
" .....   ..     ",
"                ",
"                ",
"                "};
