/* XPM */
static char * task_xpm[] = {
"16 16 13 1",
" 	c None",
".	c #000000",
"+	c #FFFFFF",
"@	c #F3F3F3",
"#	c #CCCCCC",
"$	c #B2B2B2",
"%	c #ECECEC",
"&	c #993333",
"*	c #660000",
"=	c #999999",
"-	c #666666",
";	c #663333",
">	c #EEEEEE",
"                ",
"  ...........   ",
" .++++++++++@.  ",
" .+#########$.  ",
" .+%%%%%%%%%$.  ",
" .+#######&*$.  ",
" .+%%%%%%&*=$.  ",
" .+#&=##&*-#$.  ",
" .+%&&%&*=#%$.  ",
" .+#;&&*-=##$.  ",
" .+%-&*-=%%%$.  ",
" .+#=--=####$.  ",
" .+%%%%%%%%%$.  ",
" .>$$$$$$$$$$.  ",
"  ...........   ",
"                "};
