/* XPM */
static char * task_assigned_xpm[] = {
"16 16 11 1",
" 	c None",
".	c #000000",
"+	c #FFFFFF",
"@	c #F3F3F3",
"#	c #CCCCCC",
"$	c #B2B2B2",
"%	c #ECECEC",
"&	c #FFCC66",
"*	c #CC9933",
"=	c #996600",
"-	c #EEEEEE",
"                ",
"  ...........   ",
" .++++++++++@.  ",
" .+##..#####$.  ",
" .+%%.&.%%%%$.  ",
"......&&.###$.  ",
".&&&&&&&&.%%$.  ",
".&*&*&*&*&.#$.  ",
".========.#%$.  ",
"......==.###$.  ",
" .###.=.#%%%$.  ",
" .+##..#####$.  ",
" .+%%##%%%%%$.  ",
" .-$$$$$$$$$$.  ",
"  ...........   ",
"                "};
