/* XPM */
static char * task_recurring_xpm[] = {
"16 16 101 2",
"  	c None",
". 	c #0F0E0D",
"+ 	c #3B2F22",
"@ 	c #080808",
"# 	c #292623",
"$ 	c #CBBFAD",
"% 	c #BEA47E",
"& 	c #AD9A7E",
"* 	c #000000",
"= 	c #232221",
"- 	c #CDC8C1",
"; 	c #CBC5BF",
"> 	c #766D62",
", 	c #887053",
"' 	c #A38664",
") 	c #A49887",
"! 	c #F6DEBC",
"~ 	c #957D59",
"{ 	c #151211",
"] 	c #F3EFEA",
"^ 	c #BBB7B0",
"/ 	c #A69E97",
"( 	c #FEFEFE",
"_ 	c #F8F7F5",
": 	c #524C45",
"< 	c #BBA382",
"[ 	c #A59176",
"} 	c #F6DBB8",
"| 	c #E79E3C",
"1 	c #CB783E",
"2 	c #171716",
"3 	c #EFE8DF",
"4 	c #716A61",
"5 	c #FDFCFC",
"6 	c #605D57",
"7 	c #26221F",
"8 	c #86735E",
"9 	c #D5C0A0",
"0 	c #C4AD8B",
"a 	c #F9E9D5",
"b 	c #C97138",
"c 	c #121110",
"d 	c #E9E8E7",
"e 	c #73604D",
"f 	c #332F29",
"g 	c #534C40",
"h 	c #D3BFA0",
"i 	c #D0BB98",
"j 	c #D0BA96",
"k 	c #F9E7D1",
"l 	c #CA773D",
"m 	c #090807",
"n 	c #B1B1AF",
"o 	c #FBFBF9",
"p 	c #CAB290",
"q 	c #D5C0A1",
"r 	c #D0BA97",
"s 	c #FBEFDF",
"t 	c #CB793E",
"u 	c #272625",
"v 	c #F4F4F4",
"w 	c #F4EFE7",
"x 	c #D0BA98",
"y 	c #CFB896",
"z 	c #F9EAD5",
"A 	c #CC793A",
"B 	c #0F0F0D",
"C 	c #100F0E",
"D 	c #494949",
"E 	c #FDFCFB",
"F 	c #DACBB0",
"G 	c #F5D9B4",
"H 	c #CA7537",
"I 	c #B79F80",
"J 	c #B0A693",
"K 	c #262525",
"L 	c #939292",
"M 	c #ECE3D5",
"N 	c #FBF3E8",
"O 	c #CA7337",
"P 	c #C7B08E",
"Q 	c #D3C2A5",
"R 	c #918776",
"S 	c #0B0A0A",
"T 	c #555453",
"U 	c #828282",
"V 	c #A09179",
"W 	c #897C67",
"X 	c #5B5245",
"Y 	c #191716",
"Z 	c #413E3C",
"` 	c #978368",
" .	c #867C6A",
"..	c #70685D",
"+.	c #1C1B18",
"@.	c #1D1C1A",
"#.	c #575654",
"$.	c #887B68",
"%.	c #676055",
"&.	c #141211",
"*.	c #0F0F0E",
"                                ",
"            . + @ @             ",
"        @ # $ % & @       * *   ",
"    @ = - ; > , ' ) @   * ! ~ * ",
"  { ] ^ / ( _ : < [ @ * } | 1 * ",
"  2 3 4 5 6 7 8 9 0 * a | b *   ",
"  c d e f g h i j * k | l *     ",
"  m n o p q r j * s | t *       ",
"    u v w x y * z | A * B       ",
"    C D E F * G | H * I J @     ",
"      K L M * N O * P Q R S     ",
"      @ T * U * * V W X Y @     ",
"        Z * * `  ...+.@ @       ",
"        @.#.$.%.&.@ @           ",
"          * *.@ @               ",
"          @ @                   "};
