/* XPM */
static char * task_recurring_xpm[] = {
"16 16 40 1",
" 	c None",
".	c #000000",
"+	c #FFFFFF",
"@	c #F3F3F3",
"#	c #CCCCCC",
"$	c #B2B2B2",
"%	c #ECECEC",
"&	c #BFBFC3",
"*	c #A2A2B0",
"=	c #454572",
"-	c #9898A9",
";	c #85859C",
">	c #333366",
",	c #4F4F79",
"'	c #B3B3C3",
")	c #A3A3B7",
"!	c #9696AD",
"~	c #464672",
"{	c #7F7F99",
"]	c #C9C9CA",
"^	c #3D3D6D",
"/	c #3B3B6B",
"(	c #A4A4B8",
"_	c #B5B5C4",
":	c #D1D1D8",
"<	c #9191A4",
"[	c #B5B5BD",
"}	c #9F9FAE",
"|	c #4A4A76",
"1	c #40406F",
"2	c #E9E9E9",
"3	c #8F8FA9",
"4	c #9D9DAC",
"5	c #9090A4",
"6	c #55557F",
"7	c #ADADBE",
"8	c #484875",
"9	c #B9B9C7",
"0	c #DCDCE0",
"a	c #EEEEEE",
"   . . . . .    ",
"  ...........   ",
" .+.+.+.+.+.@.  ",
" .+.#.#.#.#.$.  ",
" .+%%%%%%%%%$.  ",
" .+&*=-#;>>,$.  ",
" .+'>)%%!>>'$.  ",
" .+~{]##;^/~$.  ",
" .+>(%%%_:(>$.  ",
" .+><[}###<>$.  ",
" .+|^1!%%23|$.  ",
" .+4>>;##5>4$.  ",
" .+6>>!%7890$.  ",
" .a$$$$$$$$$$.  ",
"  ...........   ",
"                "};
