/* XPM */
static char * weekview_xpm[] = {
"24 24 14 1",
" 	c None",
".	c #000000",
"+	c #FFFFFF",
"@	c #D1D1D1",
"#	c #E3E4F5",
"$	c #8B90C3",
"%	c #AAAFE2",
"&	c #C7CAEB",
"*	c #4550B5",
"=	c #555FC5",
"-	c #2E3BB1",
";	c #0010A8",
">	c #BABBCC",
",	c #A3A6C7",
"                        ",
"                        ",
"                        ",
"                        ",
" ...................... ",
" .............+.++.++.. ",
" .++@++@++@++@++@++@++. ",
" .++@++@++@++@++@++@++. ",
" .@@@@@@@@@@@@@@@@@@@@. ",
" .++@++@+#$%%$%+@++@++. ",
" .++@++@+&*==-;+@++@++. ",
" .@@@@@@@@@@@$;@@@@@@@. ",
" .++@++@++@+%;%+@++@++. ",
" .++@++@++@+%;%+@++@++. ",
" .@@@@@@@@@@-->@@@@@@@. ",
" .++@++@++@+;*++@++@++. ",
" .++@++@++@+;*++@++@++. ",
" .@@@@@@@@@@$,@@@@@@@@. ",
" .++@++@++@++@++@++@++. ",
" .++@++@++@++@++@++@++. ",
" ...................... ",
"                        ",
"                        ",
"                        "};
