/* XPM */
static char * workweekview_xpm[] = {
"24 24 16 1",
" 	c None",
".	c #000000",
"+	c #FFFFFF",
"@	c #D1D1D1",
"#	c #E3E4F5",
"$	c #8B90C3",
"%	c #AAAFE2",
"&	c #0010A8",
"*	c #3945BB",
"=	c #555FC5",
"-	c #4550B5",
";	c #727ACE",
">	c #C7CAEB",
",	c #2E3BB1",
"'	c #5D66BA",
")	c #BABBCC",
"                        ",
"                        ",
"                        ",
"                        ",
" ...................... ",
" .............+.++.++.. ",
" .++@++@++@++@++@++@++. ",
" .++@++@++@++@++@++@++. ",
" .@@@@@@@@@@@@@@@@@@@@. ",
" .++@++@+#$%%$%+@++@++. ",
" .++@++@+%&*=-=+@++@++. ",
" .@@@@@@@$&$@@@@@@@@@@. ",
" .++@++@+%&;%$#+@++@++. ",
" .++@++@+>-==,;+@++@++. ",
" .@@@@@@@@@@@$&@@@@@@@. ",
" .++@++@+#$#+$&+@++@++. ",
" .++@++@+>,;%'*+@++@++. ",
" .@@@@@@@@)$$$)@@@@@@@. ",
" .++@++@++@++@++@++@++. ",
" .++@++@++@++@++@++@++. ",
" ...................... ",
"                        ",
"                        ",
"                        "};
