/* XPM */
static char * edit_xpm[] = {
"14 14 2 1",
" 	g None",
".	g #000000",
"              ",
"              ",
"     ...      ",
"    .   .     ",
"    .   .     ",
"        .     ",
"        .     ",
"      ..      ",
"      ..      ",
"      ..      ",
"              ",
"      ..      ",
"      ..      ",
"              "};
