/* XPM */
static char * shade_xpm[] = {
"14 14 2 1",
" 	g None",
".	g #000000",
"              ",
" ............ ",
" ............ ",
" ............ ",
" ............ ",
" .          . ",
" .          . ",
" .          . ",
" .          . ",
" .          . ",
" .          . ",
" .          . ",
" ............ ",
"              "};
