/* XPM */
static char * x_xpm[] = {
"14 14 2 1",
" 	g None",
".	g #000000",
"              ",
" ..        .. ",
" ...      ... ",
"  ...    ...  ",
"   ...  ...   ",
"    ......    ",
"     ....     ",
"     ....     ",
"    ......    ",
"   ...  ...   ",
"  ...    ...  ",
" ...      ... ",
" ..        .. ",
"              "};
