/* XPM */
static char * tree_unexpanded_xpm[] = {
"16 16 4 1",
" 	c None",
".	c #FFFFFF",
"*      c #666666",
"+	c #000000",
"                ",
"                ",
"                ",
"                ",
"    +++++++++   ",
"    +.......+   ",
"    +...*...+   ",
"    +...*...+   ",
"    +.*****.+   ",
"    +...*...+   ",
"    +...*...+   ",
"    +.......+   ",
"    +++++++++   ",
"                ",
"                ",
"                "};
