/* XPM */
static const char * arrow_up_xpm[] = {
"13 16 2 1",
" 	c None",
".	c #FF0000",
"      .      ",
"     ...     ",
"    .....    ",
"   .......   ",
"  .........  ",
" ........... ",
".............",
"     ...     ",
"     ...     ",
"     ...     ",
"     ...     ",
"     ...     ",
"     ...     ",
"     ...     ",
"     ...     ",
"     ...     "};
